<mxfile host="65bd71144e">
    <diagram id="-lDrS1Pm6FwT7DPm44bf" name="PÃ¡gina-1">
        <mxGraphModel dx="1126" dy="1001" grid="1" gridSize="10" guides="1" tooltips="1" connect="1" arrows="1" fold="1" page="0" pageScale="1" pageWidth="1169" pageHeight="827" background="#010029" math="0" shadow="0">
            <root>
                <mxCell id="0"/>
                <mxCell id="1" parent="0"/>
                <mxCell id="6" value="" style="group" parent="1" vertex="1" connectable="0">
                    <mxGeometry x="120" y="160" width="130" height="80" as="geometry"/>
                </mxCell>
                <mxCell id="4" value="&lt;font color=&quot;#121212&quot;&gt;index.html&lt;/font&gt;" style="shape=document;whiteSpace=wrap;html=1;boundedLbl=1;fillColor=#E0ED26;" parent="6" vertex="1">
                    <mxGeometry width="120" height="80" as="geometry"/>
                </mxCell>
                <mxCell id="11" value="" style="shape=image;verticalLabelPosition=bottom;labelBackgroundColor=default;verticalAlign=top;aspect=fixed;imageAspect=0;image=data:image/png,iVBORw0KGgoAAAANSUhEUgAAAgAAAAIACAYAAAD0eNT6AAAACXBIWXMAAA7DAAAOwwHHb6hkAAAAGXRFWHRTb2Z0d2FyZQB3d3cuaW5rc2NhcGUub3Jnm+48GgAAIABJREFUeJzt3Xl8XHW9//H3d2ayt2nSfW9aylqWgnqVKig7qAgoBQRltaWgICAXhZ9IFe4FUeQqizTsiwhWWURZReACgrKorGXpRvctSdPsycy5f6Twgy4kM/Od+Z5zvq/n49E/tDnf8wlJc14558wZI6DIgm+qSlWaorS2lVGdAk2U0UhJQyUN2fhHkgZKSjkbFMhBJpAWt+jhSb/VIa5nAT6OcT0A4i2YqRIltLsymiZpmqTdJU2SlHA7GVAYmUD651ppcDkRgHAjAGBd8C1NlNEhSugQBdpHUpXrmYBieT8AJCIA4UYAwIrgFE1QUkfJ6GgF+oTreQBXPhwAEhGA8CIAkLNgukpVq8NkdLwCHSIp6XomwLVNA0CSBpfrsUm/1YFuJgK2jABA1oKZGirpNEnfljTC8ThAqGwpACTOBCB8CAD0WzBLY5TR+ZJOklTpeh4gjLYWABIRgHAhANCnYJaGbzzwz5JU7noeIMw+LgAkIgDhQQBgq4KZKlGg02X0Y0mDXM8DREFfASBxTwDCgddiY4uCGTpI0hsy+h9x8AesaujQAe8erYddzwG/cQYAHxGcqBqV6qeSZojvDyBr/TkD8L7aUv1lm7t1QGEnAraMMwD4QDBD+6tU8yTNFAd/oOAau7Q/ZwLgCgEABdOVDGZqtoweFi/rA4qqqUsHzT9aj7meA/4hADwXzNJw1eghSReJB/kATjR2aX8iAMVGAHgsmKH9ldGrMlyDBFzjcgCKjQDwVHCqjpfRg5KGu54FQC8uB6CYCAAPBTP0XQW6RVKJ61kAfBSXA1AsBIBHAskEM3X5xtf2c5c/EFJEAIqBg4AngtlKabnmSDrZ9SxAnGXzHIC+8JwAFBJnADwQzFZCy3WnOPgDkcKNgSgkAsAHy3WlpOmuxwCQPW4MRKEQADEXzNRsSWe6ngNA7rgnAIVAAMRYcKpmqfcBPwAijgiAbQRATAUz9DUFusb1HADs4Z4A2EQAxFBwiibL6Cbx9QVih3sCYAsHiJgJTlS5kvqdpGrXswAoDC4HwAYCIG5K9UtJu7seA0BhEQHIFwEQI8EMHSVppus5ABQHEYB8EAAxEZyqbWV0g+s5ABQXNwYiVwRADASzlZB0o6SBrmcBUHzcGIhcEABxsEyzFGgv12MAcIfLAcgWARBxwekaKaNLXc8BwD0uByAbBEDUpXWpeMkfgI24HID+IgAiLJipPRToeNdzAAgXLgegPwiAaPu5+BoC2AIiAH3h4BFRwbe0r6R9XM8BILyIAHwcAiCqjH7iegQA4ceNgdgaAiCCghn6vIw+63oOANHAjYHYEgIgioy+53oEANHC5QBsigCImGCGtpP0JddzAIiexi7tP/8YPeJ6DoQDARA1RrPE1w1Ajho7dSBnAiBxIImU4AyVSfqG6zkARBuXAyARANHSpa9KGuZ6DADRx+UAEABREug41yMAiA8uB/iNAIiI4ETVSDrA9RwA4oXLAf4iAKKiRIdLKnU9BoD44XKAnwiAqDD6susRAMQXlwP8QwBEQDBbKUn7uZ4DQLxtPBPwF9dzoDgIgChYoWmSalyPASD+Gju1H5cD/EAAREFGX3A9AgB/NHbqQM4ExB8BEAW88Q+AItt4JoAIiDECIOSC2UpI+rTrOQD4h8sB8UYAhN1ybSdpkOsxAPiJywHxRQCEXaBdXY8AwG9cDognAiDsDAEAwD0iIH4IgLALtL3rEQBA4p6AuCEAwi6hia5HAID3cU9AfBAAYReozvUIAPBhXA6IBwIgxIKZqpQ0xPUcALCpjRHwqOs5kDsCINyGuh4AALamsVMHcCYgugiAcCMAAIQalwOiiwAIM6Na1yMAQF+4HBBNBECYZVThegQA6A8uB0QPARBuZa4HAID+4nJAtBAA4VbiegAAyAaXA6KDAAi3pOsBACBbXA6IBgIAAGAdlwPCjwAAABQEERBuBAAAoGCIgPAiAAAABUUEhBMBAAAoOCIgfAgAAEBREAHhQgAAAIqGCAgPAgAAUFREQDgQAACAoiMC3CMAAABOEAFuEQAAAGeIAHcIAACAU0SAGwQAAMA5IqD4CAAAQCgQAcVFAAAAQoMIKB4CAAAQKkRAcRAAAIDQIQIKjwAAAIQSEVBYBAAAILSIgMIhAAAAoUYEFAYBAAAIvY0R8LjrOeKEAAAAREJjp/YlAuwhAAAAkUEE2EMAAAAihQiwgwAAAEQOEZA/AgAAEElEQH4IAABAZBEBuSMAAACRRgTkhgAAAEQeEZA9AgAAEAtEQHYIAABAbBAB/UcAAABihQjoHwIAABA7REDfCAAAQCwRAR+PAAAAxBYRsHUEAAAg1oiALSMAAACxRwRsjgAAAHiBCPgoAgAA4A0i4P8jAAAAXiECehEAAADvEAEEAADAU75HAAEAAPCWzxFAAAAAvOZrBBAAAADv+RgBBAAAAPIvAggAAAA28ikCCAAAAD7ElwggAAAA2IQPEUAAAACwBXGPAAIAAICtiHMEEAAAAHyMuEYAAQAAQB/iGAEEAAAA/RC3CCAAAADopzhFAAEAAEAW4hIBBAAAAFmKQwQQAAAA5CDqEUAAAACQo8ZO7Tv/aP3V9Ry5IAAAAMhDY5f2iWIEEAAAAOQpihFAAAAAYEHUIoAAAADAkihFAAEAAIBFUYkAAgAAAMuiEAEEAAAABRD2CCAAAAAokDBHAAEAAEABhTUCCAAAAAosjBFAAAAAUARhiwACAACAImns0j5heQMhAgAALEoY1xMg7MLyBkIEAABYliIC0IcwnAkgAADAsvKU6wkQBY2d2tdlBBAAAGBZFQGAfnJ5OYAAAADLqktdT4AocXU5gAAAAMsGlkgl/HRFFlycCeBbFAAsM0YaVuF6CkRNsZ8TQAAAQAEMr5BS/IRFlop5OYBvTwAogKSRxla5ngJRVKxXBxAAAFAgQ8qlwWWup0AUFeOeAAIAAApo/ECpkpcFIgeFvhxAAABAASWNtO0gIgC5KeTlAAIAAAoslZC2q5FquRyAHBQqAggAACiCpJEmVUt1A3l1ALJXiAjg2xAAimhIubTzYGl0FQ8LQnZsRwDffgBQZEkjjaqUdhksbVsjjajoff+AJD+R0QebEcBtKQDgiDFSdUnvn/cFkjIZZyMhGvYNzlC1uUrN+SxCAABAiBhxJgD90CmT7xJ8mwEA4CECAAAADxEAAAB4iAAAAMBDBAAAAB4iAAAA8BABAACAhwgAAAA8RAAAAOAhAgAAAA8RAAAAeIgAAADAQwQAAAAeIgAAAPAQAQAAgIcIAAAAPEQAAADgIQIAAAAPEQAAAHiIAAAAwEMEAAAAHiIAAADwEAEAAICHCAAAADxEAAAA4CECAAAADxEAAAB4iAAAAMBDBAAAAB4iAAAA8BABAACAhwgAAAA8RAAAAOAhAgAAAA8RAAAAeIgAAADAQwQAAAAeIgAAAPAQAQAAgIcIAAAAPEQAAADgIQIAAAAPEQAAAHiIAAAAwEMEAAAAHiIAAADwEAEAAICHCAAAADxEAAAA4CECAAAADxEAAAB4iAAAAMBDBAAAAB4iAAAA8BABAACAhwgAAAA8RAAAAOAhAgAAAA8RAAAAeIgAAADAQwQAAAAeIgAAAPAQAQAAgIdSxdrRi4drGxkdEUj7GWmcpJGShhRr/1H00lrXEwCIs5SRShK9f6pLpZoyqSzpeioUS8ED4IXD9QVjdKmkz0iSKfQOAQD90hNIPWmpPS01d0tLW6WqEmlMlTSwxPV0KLSCBcDL0zUs06ObJH25UPsAANjV2i293SQNKpXqBkopLhTHVkG+tC8coZ0zaf1dHPwBIJLWd0lvNkptPa4nQaFYD4CXvqZdjfSsAk20vTYAoHi6MtJbTURAXFkNgBcP1dAgo3slVdtcFwDgRiaQ3l0vdWdcTwLb7J4BSOk3kiZZXRMA4FR3RlrU7HoK2GYtAF46QgdLOtDWegCA8Gju7r0vAPFhLQAC6VJbawEAwmdZq+sJYJOVAPjH4ZoqaaqNtQAA4dTeww2BcWIlAExCh9tYBwAQbk2drieALXYCIND+NtYBAIRbc7frCWCLrXsAJlhaBwAQYl1p1xPAlrwDIJithKQRFmYBAIRcd0YKAtdTwIa8A+Dvf9cASbxtBAB4Ik0AxELeAZAawBv8AYBX+KkfC7zPEwAAHiIAAADwEAEAAICHCAAAADxEAAAA4CECAAAADxEAAAB4iAAAAMBDBAAAAB4iAAAA8FDK9QA2lNSO0qBPfFGlw+qUrBio7sblannrObXO+5uCTDTfuipZWa3q3Q9W+dgdlaqqVc+GdWpb8LI2vPK4Mt0dBdlnoqxS1VMPVMWEXVUyaLhMMn5v8dC9fpU6Vy1U88sPqrtpVUH2UbXdZzRgh2lKDRouZdLqXDlfza/+VV2rFxVkf6FgjAZsP02Vkz+l0iFjFGTS6lg2Txtee7Ion3eitEIDd9tflXVTlRo4RD2tjepY8oaa//WI0m3NBd8/EEWRDoCyEZM05puXqXbPr0lm85MZXWvf0/I7L9S6p26PzNtXJQfUatT0CzX84NNlSso2+/t023qtuu9nWnX/FdZCIFFepZFH/EAjDj1LifIBVtYMvSCjhmfu1rI7zlfXmsVWlhz0qUM19huXqXzcTlvc3/p/PqylN52tjuVvW9lfWNROm67Rx16i8tHbbf6XQUZNL/5JS28+R50r51vfd6K0QiMOO1cjDjtXycrqzf4+092hNQ9doxVzL1G6tcn6/oEoy/stHV6crkHqUdH/ZVXvdoAmnfs7Jatq+vzYhqfv1KKrT1bQ3VmEyXJXPmZ7Tb7gTyobNbnPj219+3nNv+zwvH+LLR0yVttc8IAqJ07Na52o6mlp0ILLj9SG157IfRFjNO6kX2j4l8/q80MzXe1a9MtvqvG5P+S+v7AwCU04rV5D9z+lzw/NdLRqwc+P0vqXH7S2+5Kakdrm/PtVte1/9PmxHcvf1vz/PjR28eXKbkOlFG8I5FqNqdf6fBaI5D0AVZM/pW3Ov79fB39JGrzXsZowa06Bp8pPSc0IbXvRo/06+Eu9p5m3ueABJUorct5nsrJak3/0sLcHf0lKDRisyRc8oIq63XJeY+w3f9qvg7/U+xvrxHN+q0Gf+FLO+wuL8ade26+Dv9R7lmmb79+jATvtbWXfibJKTf5/f+rXwV+Sykdvp21/9IhS1cOs7B+Ig8gFgEmWqO6sO7I+8A3Z54TeSwUhNW7G1SodOj6rbaomf0qjpl+Y8z7HfONSVYybkvP2cZEor9LEs+6QSSSz3nbAjp/TiMO+l9U2JlmiujNvVcng0VnvLywG73Wshh14albbmJIy1Z1xsxLlVXnvf/TRs1W5zSey2qZ0eJ3Gz7gq730DcRG5ABj8+eO2fK2xH0Yf8xPL09hRMWFX1X4mtzgZfuhZSg0ckvV2pUPGaugBM3LaZxxVjN9ZtZ89KuvtRk2/cIv3n/QlNXCI6r5zs2Sidx61dOg4jZ95TU7blo2YpCF7fyOv/aeqh2nYl87IadvaaUepYvzOee0fiIvIBUDttOk5b1s+bqdQ/uOvnTY95wNBorQip9PJNZ8+IpZ3+ecj2++tkpqRqt5t/5z3Vz31QA0/5Ds5b++ESajuzFv7ffltSwbvfVxeIwz65JeVKCnPbWNjVLvnkXntH4iLyAVA1eT+XfPbmsrJn7I0iT39vY65Nbl8TvnuM46y/e9YMXFqTr/9f9iYEy5XxYRd8lqjmEZ85RwN3HmfvNaonLR7Xmc+8v73sm34fgYALkQqAEwypdTAwXmtUVI70tI09qQGDc9r+5LaUTnsk5uhNlVSMyKrjy8dMjbvfSZKylV3xi0yqdK81yq0igm7asyxl+S9TqJ8gFJVtTlvX+Lg3wsQR9EKgEQq79+4EqnNX1vvWiLPH/65bJ9u35DXPuMo2wfG5HLT4JZUTtpDo4+ebWWtQjElZZp41u1bfDZFThK5/zvON5aiEFtAMUQqAGBP5/J3XI8QOp0r3P03GXHEeRqw4+ec7b8vY477b1VM2NX1GAAsIgA81fTiA65HCJ2mF9z9NzGJpOrOvG2LT7NzbeAu+2rEof17zgGA6CAAPNX61nNqmfes6zFCI92+Qesev9HpDGUjJmrcyb90OsOmklU1qjvj5rwvvQEIH/5Ve2zJDWcq09XueoxQWHb7Dwr25kDZGLLviar5zFddj/GB8TOvzfoBVQCigQDwWNuCl7Xol8eH/j0SCm31n36pNQ9f63qMD0yYNScUd6oP3utYDd7r667HAFAgBIDnGp/7vd6+aD91LJvnepSi62lp0OJfz9SSm8J1fTtVPVR137nJ6VMC83naH4BoiPTbAcOOlnnP6o2zdlHtnkeq5jNfVcX4nZWqGSGT/5tFSolk3je2ZTrbrJ2l6GltVOfK+Vr/0p+17snblG5ptLKubdW7H6xhB5+uNQ85OAhbeNofgPAjACBJCtI9anjmLjU8c5fVdctHb6cpV7+V1xpLbjhDax+/ydJE0TH2xJ+r5fWn1P7ea0Xdr42n/QEIPy4BACGVKClX3Zm3FvXBNRXjpmj0sRcXbX8A3CEAgBCrnLSHRh31o6Lsy5SUaeI5d+b+RjsAIoUAAEJu1NfO18Apny/4fnjaH+AXAgAIO5PQhO/cXNCnBA7YaW+e9gd4hgAAIqBsxESNPenKgqydrKrRxLNu52l/gGf4Fw9ExND9TlbttOnW1+Vpf4CfCAAgQsbPvNbqUwJ52h/gLwIAiJBU9VDVnXGLlacElg4Zq3Ezrsp/KACRRAAAEVM99UANO+i0/BbZ+LS/1IDBdoYCEDkEABBBY0/4mcrH7JDz9iO+co4G7rKvxYkARA0BAERQoqxSE8/+TU5PCeRpfwAkAgCIrMpJe2jU9Auz2oan/QF4HwEARNioIy/QgJ327vfH87Q/AO8jAIAoMwnVnXGLkhUD+/xQnvYH4MMIACDi+vOUQJ72B2BT/DQAYmDo/qeods8jt/r3PO0PwKYIACAmxp96rUpqRmz2/w/e6+t2n/YXBPbWAuAMAQA4tPbRemtrpaqHqe7MWz/ylMCSwWM0bsbV1vaR6e7Quidvs7YeAHcIAMChlfddrg2vPWltveqpB2nYgaf2/g+T0MTv3mb1aX/Lbj1P7e+9Zm09AO4QAIBLQUaLrj5J6bZma0uOPfEKlY/Z3vrT/pr//ZhWP2TvbAIAtwgAwLGu1Yu05MYzra2XKKvUpPP+oDHHXmJtzZ4N67ToqpO4/g/ECAEAhMC6J25V47O/s7ZexbgpMiVl1tZ7r/7b6m5YZm09AO4RAEBILJ4zS11rl7geYzO9cXK36zEAWEYAACGRbmnU4mtOCdVp9q61S7Tk5rNdjwGgAAgAIER6b7S7xvUYvYKMFv3qeKVbGl1PAqAACAAgZJbd+p+heKndynvtvkQRQLikXA9QbOXjdlLttOmux/iIRGW16xEQIpnuDi361Qna4afPyyRLnMzQtvCfWn7XRU72DaA4vAuA2mnTQxcAwKbaFrys5XfN1pjj/qvo+34/QIKerqLvG0DxcAkACKmV91ymDa8/VfT9Lrv1PLUvfrXo+wVQXAQAEFZBRostPyWwLzztD/AHAQCEWOeqhVpy03eLsq90a1PoXoYIoHAIACDk1v31FqtPCdyaxdeF80FEAAqDAAAi4L3rv63uxhUFW3/dk7fxtD/AMwQAEAE9zWu16FcnFOT0fNfaJVpy01nW1wUQbgQAEBHN/35Max6+1u6iPO0P8BYBAETI0lvOtfqUQJ72B/iLAAAixOZDenjaH+A3AgCImLYFL2vF736S1xpBdydP+wM8RwAAEbTiD5fm9ZTApbfxtD/AdwQAEEVBRouvPlnptvVZb9r8r0e0+sGrCjAUgCghAICI6ly1QPMvPUyZ7o5+b9O++FUtuOIYnvYHgAAAomzD60/p3Yu/qK617/X5setfeEBvX7Sf0q1NRZgMQNh593bAQNxseO0JvXHWrhp28Gkass8JKh+zwwd/F2TSav7Xo1r72PVq+vu9DqcEEDbeBcDaR+u15rF612N8xKRz56psxETXYyDC0m3rtfKey7TynsuUrKxW6bAJynS2qWvtEu70B7BF3gVAd+MKtc1/yfUYHxF0tbseATGSbmvmDn8AfeIeAAAAPEQAAADgIQIAAAAPEQAAAHiIAAAAwEMEAAAAHiIAAADwEAEAAICHCAAAADxEAAAA4CECAAAADxEAAAB4iAAAAMBDBAAAAB4iAAAA8BABAACAhwgAAAA8RAAAAOAhAgAAAA8RAAAAeIgAAADAQwQAAAAeIgAAAPAQAQAAgIcIAAAAPJRyPQAAFJNJJJUcUOt6jOxk0kq3NbueAjFDAADwSvmYHTT1tgbXY2Qt09WuzlUL1PzSg1rzyHXqXLXA9UiIOC4BAEAEJEorVDFuikYc/p+actWbGv31iyXDj3Dkju8eAIgYkyrVqOk/1KRz7yYCkDO+cwAgomr3PFKjj5ntegxEFAEAABE28ojvq2zkNq7HQAQRAAAQYSZVqqEHzHA9BiKIAACAiBu0xxddj4AIIgAAIOK4BIBcRCoAgnS3gkw6rzUy3R2WprEn09OZ3/Yh/Jzel+nKfzYbaxSCjf/uYf3cPk7g+PPOdOf37yWOTEkZrwZA1iL1HRNk0uppXpPXGt0Nyy1NY09344r8tg/h5/S+7vWrpCDIb43GcH5++X7dgnSPetavtjRN8eT7eafbmpXpaHG2/zjqaVolBRnXYyBiIhUAktQ67295bd/y1nOWJrEn789p3rOWJrEv6O5U24KX8tt+fu7bF1LrO/9QkO7Offu3n8/7jJYLLW89l1fU5fv92vpWfv9e4ijMPwMQXpELgIZn7sp529Z3X1DnincsTmNHw7O/y/lAkG5tUvM/H7Y8kV0NT+f+NWt68U9Kt2+wOI096dYmNf/r0Zy3b3z2bovTFE93w3K1vPl0ztvn+3mvf+lBnou/iah+L8GtyAVA43N/UNuCl3PadvkdF1iexo7OFe9o3V9vyWnblfdcFtoD5PvWPPJrda1bmvV2QbpHy+/6UQEmsmf5nRfmdOq1c9VCrXns+gJMVBzL7vxhTmcBOpa8oYan7shr3+m29Vp13+V5rREnre++oMbn73E9BiIocgGgIKOFv/i60i2NWW226r6fqfmVvxRoqPwtvflstS9+Nattml/5i1b98YoCTWRPprNNC684WkGWN28tvflsdSx5o0BT2dG28J9adsf5WW2T6e7Qwl8ck/V/jzBpeeNprfj9JVltk+lo0YJfHGPlssfKe3+qDa88nvc6UZduadTCK4/L+z4b+Cl6ASCpY/nbevvHB/T7t8pV9/0s6x/SxZZu36B3Lj5Yre/8o18fv/6FB7Tgp19VkO4p8GR2tMz7m9699Cv9Crcgk9bSW76n1Q9eXYTJ8rfy3su17DcX9OtMQM+GdXr3ki/1++scZsvvukgr5l7Sr4NPd9NKvfOTg7KO3K0J0j2af/lXtf6lP1tZL4q61i7R2xftF8rLmoiGZL4LzJyicmX0AxvDZKO7cYUanrxNiZJSVYzfRSZVutnHtL7zDy266gStfbQ+EoWcad+gdU/drnRrkyonTlWivGqzj+lctVBLbzlHy+44P3K/QXaunK+Gp+9UqqpWFWN3lElu8m7UQaANr/5VC644Rk3P/8HNkDlqefMZNf/7MZWNmqyyYRMkYz7y90F3p9Y9casWXHG02he/4mhK+za89oRaXn9SZaO3U+nQcZv9faarXWsfu14LrjhGHcvmWd130N2phmfuUvfa91RZt5uSVTVW1w+rTEerVj94tRZdeZw6Vy90MsPISilh+v44FNRlP35JeR0E8v4Svjhdg9SjpnzXyUeitEIDdtpb5aO3lSkpV3fTSrXO+1uk3y/bJJKq2n5PlY/dUakBg9W9fpXaF72S8/0PYZOsrNbAKV9Q6fA6mWRK3Q3LteGN/w31Sxr7q3ToOA3YcS+V1I5SkO5W5+qFanntydDfq5Gv0uF1GrDj51RSM1JBd6c6V87XhtefVKazrfA7N0aVk/ZQxYRdVDJoROH350C6o0WdK95Ry+v/6/zZH7sNlVIEgGs1pl7r81kgFgEAACgeAiAU8g6ASN4DAAAA8kMAAADgIQIAAAAPEQAAAHiIAAAAwEMEAAAAHiIAAADwEAEAAICHCAAAADxEAAAA4KG8A6CjU9m/GToAILrC/95q6Ie8A+Bzf9QGSe0WZgEAhJwxUopzx7Fg58totNLKOgCAUCvh4B8bdr6UgRZZWQcAEGqlBEBsWPlSGukhG+sAAMJtUKnrCWCLnZZL614r6wAAQq2mzPUEsMVKAHzij3pX0pM21gIAhNOAEqk86XoK2GLtak7G6Dzx4hAAiK0xVa4ngE3WAuA/7tELku60tR4AIDxqy3rPACA+rN7PWZHSLEmv2FwTAOBWeVKaMND1FLDNagBMmauWZKDDJK2wuS4AwI2ShDR5kJQ0rieBbdZf0bn7fVqUSOuTRnrB9toAgOKpSEo71Ehl3PgXSwV5pMMef9TyoEdfkNGvJfUUYh8AgMIwkoZWSDvUSqUc/GOr4Cd1XvyadjCBLgkCHSqJR0gAQEgZSYPKpDGVUnnK9TToQ42p1/p8FijaVZ0Xp2tQ0K0vJoz2D6RxkkZLGiGJvtwKY1SaMOKFNwCsM+p9U5/SRO91/urS3qf8ca0/MqITAMheMEPHyegO13MAAEIn7wDgbR0AAPAQAQAAgIcIAAAAPEQAAADgIQIAAAAPEQAAAHiIAAAAwEMEAAAAHiIAAADwEAEAAICHCAAAADxEAAAA4CECAAAADxEAAAB4iAAAAMBDBAAAAB4iAAAA8BABAACAhwgAAAA8RAAAAOAhAgAAAA8RAAAAeIgAAADAQwQAAAAeIgAAAPAQAQAAgIcIAAAAPEQAAADgIQIAAAAPEQAAAHiIAAAAwEO6ByXaAAAGpklEQVQEAAAAHiIAAADwEAEAAICHCAAAADxEAAAA4CECAAAADxEAAAB4iAAAAMBDBAAAAB4iAAAA8BABAACAhwgAAAA8RAAAAOAhAgAAAA8RAAAAeIgAAADAQwQAAAAeIgAAAPAQAQAAgIcIAAAAPEQAAADgIQIAAAAPEQAAAHiIAAAAwEMEAAAAHiIAAADwEAEAAICHCAAAADxEAAAA4CECAAAADxEAAAB4iAAAAMBDBAAAAB4iAAAA8BABAACAhwgAAAA8RAAAAOAhAgAAAA8RAAAAeIgACLe06wEAACGUyv/4QACEWUJdrkcAAITQcHXkuwQBEGYZAgAAsJmMma2efBchAMIsoXbXIwAAQsfKsYEACLOM1rkeAQAQOlaODQRAmJUQAACAzay1sQgBEGZldr7IAIAYCTgDEHvmSrXLUukBAGLjPRuLEADht8j1AACAEDFaaGMZAiD8rHyhAQCxQQB4wehN1yMAAEIkYee4QACEXUavuB4BABAaPeogAPyQIAAAAB9429yS/2OAJQIg/EZpvqQm12MAAELhZVsLEQAhZ2YrI+k513MAAELhGVsLEQDR8KzrAQAAIRAQAL55yvUAAADnVmuMvVeGEQBR0KjnJDW4HgMA4NQjGy8LW0EARICZq7Skx13PAQBwyOghm8sRAFER6AHXIwAAnOlWjx6xuSABEBXlul+y89pPAEDEBHrM3Gj3UjABEBHmKjUrsFt/AICISOhu+0siSu50PQAAoOjaFOh+24sSAFHSpPskrXY9BgCgqOaaeq23vSgBECFmrrpkdJvrOQAARXVDIRYlAKKmR3Mke68DBQCE2mum3t7T/z6MAIgYc6PelbF/LQgAEEJGPyvU0gRAFBld4XoEAEDBLVOD7irU4gRABJnr9Kx4fwAAiLsrzFx1FWpxAiC6fuh6AABAwaxQla4r5A4IgIgy9XpGgR5zPQcAoAACXWKuVHshd0EARNt5ktKuhwAAWPW6jK4v9E4IgAgz1+tfMrrJ9RwAAGsCSWeYenUXekcEQNQZ/VBSk+sxAAAWBLrd1OuJYuyKAIg4c51WK9B5rucAAOStWUY/KNbOCIA4uF43SPqL6zEAAHkIdL6p14pi7Y4AiAHTe81olqRm17MAAHJg9LSaNKeYuyQAYsLUa76kb7meAwCQtQb16JtmbnFf1UUAxIip11xJv3Y9BwCg3wIFOsncqMXF3jEBEDdlOlvSy67HAAD0g9Fl5nr90cWuCYCYMVepU2kdLWm961kAAB/D6HkFusjV7gmAGNr4lsEniKcEAkBYLZHRkcV44M/WEAAxZebofgU6zfUcAIDNrFNGB5nrtMzlEARAjJnrdb2MLnQ9BwDgA+1K6DBzg950PQgBEHNmji6R9D+u5wAAKC3pWHOdnnU9iEQA+GG0vifpbtdjAIDHAhmdbOp1n+tB3mdcD4DiCKYrqRrNkdEprmcBAM/0yGiWmaMbXQ/yYQSARwLJaKYukty97AQAPNMmo+lmjh50PcimCAAPBTP0XRn9QlwCAoBCalBCXwnLNf9NEQCeCk7VNxToJkklrmcBgBhaLulgU69XXQ+yNfwG6CkzR3dIOkgq3ltPAoAXAj0p6ZNhPvhLBIDXTL2eULd2k9EjrmcBgBgIJP1KRgea+vD/csUlAPTeHHiqzlOg/5KUdD0PAETQGhkdb+boYdeD9BcBgA8EM7WPpN9IGuV6FgCIkCckHReF3/o/jEsA+ICp1xPq0k6S6tV7KgsAsHWtMvqBGnVA1A7+EmcAsBXBqdpPga6RtL3rWQAghO5RRt81N2ip60FyRQBgq4KZKpHRSRvvDRjqeh4ACIF5Mjo7Stf6t4YAQJ+CmRoqo+8r0OmSKl3PAwAOLFKgizVGt5nZ6nE9jA0EAPotmKlRG0PgW5KqXM8DAEWwUEaXq0E3mbnqcj2MTQQAshacosFK6jRJ35E00vU8AFAAL8ro52rQ781cpV0PUwgEAHK28R0G95HRTElHSEq5ngkA8tAs6S5Jt5t6PeN6mEIjAGBFMEtjlNF0GR2tQJ8W31sAoqFd0kPqPfD/2dSrzfE8RcMPaVgXnK5xSusQBTpE0n6SBrqeCQA+ZLGkh2X0kJJ63FyrFtcDuUAAoKCC2UppqXZTQp+VNE3SVEmTxSOHARRHm6TX1XtN/28yesZcp0WOZwoFAgBFF5ytCrVpijKaLKM6SRNlNFqBhkgf/Emo95UGpQ5HBRBerZK6JHVKWrfxzxpJS9R75/5CSfM0SvPNbGXcjRle/wdA1CzzUnDuUAAAAABJRU5ErkJggg==;" parent="6" vertex="1">
                    <mxGeometry x="109" y="1" width="10" height="10" as="geometry"/>
                </mxCell>
                <mxCell id="13" value="" style="group" parent="1" vertex="1" connectable="0">
                    <mxGeometry x="330" y="160" width="120" height="80" as="geometry"/>
                </mxCell>
                <mxCell id="7" value="&lt;font color=&quot;#f2f2f2&quot;&gt;main.jsx&lt;/font&gt;" style="shape=document;whiteSpace=wrap;html=1;boundedLbl=1;fillColor=#1109ED;" parent="13" vertex="1">
                    <mxGeometry width="120" height="80" as="geometry"/>
                </mxCell>
                <mxCell id="12" value="" style="shape=image;verticalLabelPosition=bottom;labelBackgroundColor=default;verticalAlign=top;aspect=fixed;imageAspect=0;image=data:image/png,iVBORw0KGgoAAAANSUhEUgAAAgAAAAIACAYAAAD0eNT6AAAABHNCSVQICAgIfAhkiAAAAAlwSFlzAAAOxAAADsQBlSsOGwAAABl0RVh0U29mdHdhcmUAd3d3Lmlua3NjYXBlLm9yZ5vuPBoAACAASURBVHic7d13nJxVof/x73lmdrYnu+mFhCQm9FCjkoQiiBRRxKt4m+iV37WhohcLiMgFG4iiF7lcFS4igohYQJHmRVEhBBAREloIZFM32/vs1Oc5vz+CCpi2m5k5M3M+7/8Eds7XvGDms880I1Qte6tibbO0MB7TvjbSPBnNt0ZzZDVF0hRJkyXVSqqR1OR0LDAGNQ0Hro2ZnqNmHNLZ5XoLUKmM6wEonE0PaWEkLZO0zEpHSDpAUoPjWUDB1TYvk4KaNfnBF5fNWba5z/UeoBIRABVswwNqjeI6MYh0sjU6SdJM15uAUqhtXqYgPlk2Glo9PLz6qEVH9g253gRUGgKgwrTdr5agVqdZ6QxJJ2nb5XvAK38JAEmyYf8TgVlz9LQDu0cczwIqCgFQAayV2bhSx0fSB4x0uqSE602ASy8PAEmy4cCK4Y0PvHHRm5VxOAuoKARAGeu6X02phM6yRh+TtND1HqBcvDoAJCkK+347o3vFSeY45R3NAioKAVCG2h/TlFxW51rpQ5JaXe8Bys32AkCSovzAXTOefeA08y6FDmYBFYUAKCPPPajmeqOzrdFnJU10vQcoVzsKAEkKcz23z1y88h3GKCrxLKCiBK4HQHrsMdVsWKFz6gKtt0aXiQd/YNxiNVNO37p62Q2udwDljgBwbMNKnTAlqyet0ZWSJrneA1SDWM3kd7c/ddR3Xe8AyhkB4Ejb/Wppe0jftVa/lrS/6z1AtYnFWj+w9allV7jeAZQrAsCBthV6m6nVc0b6gHgdBlA0QWzyuR2rj/qS6x1AOSIASmjTQ6pvW6krjdFtkqa73gP4IIi3XNCxevkFrncA5YYAKJEND+uAUHrcWJ0jfusHSsbKGBNv/VL7U0d/wvUWoJwQACWwcaVOs5EekrSf6y2An4yJxSZe0b56+YdcLwHKBQFQRNbKrF+pL0ZWt4u39gGOmSAeb72q85ljz3S9BCgHBECRPP20Ehse1g9kdaG45A+UBSsTl5q+1/HM8n90vQVwjQAoguceVHPjoO6V1btdbwHwKiaIG9N6Q/fq4051PQVwiQAosLb71VIX6F5Jb3C9BcCOmNoo1njr5iePfqPrJYArBEABbX5Ek02t7pe01PUWALtgTENNYuJtnU8dt9z1FMAFAqBA1j6sCblQd0s61PUWALvLNJtYw51bnzr2ta6XAKVGABRAx5NqrIl0l5G4EwEqjFUwMYg139X37AmLXW8BSokA2EPWKkgndZMkLiMCFctMyan2N+2rj+F7OeANAmAPrX9Y35R0uusdAPZUMDUWn3Bf56pTF7heApQCAbAH1q/Q2S99tC+AqmBmKWHu61nzltmulwDFRgCM0/oVWiqjb7reAaDArJkfWfP7rqffPMP1FKCYCIBxaHtUM2T0M0kJ11sAFJ61eo0NgvsGnz5jkustQLEQAGNkrYwJdZ2kma63ACgmc2A6SP+uv+30FtdLgGIgAMZo/Up9XFZvdr0DQEkszqXzv+548sxG10OAQiMAxmDDwzrASJe63gGgdKzMa4PE4J227eI611uAQiIAdpO1CmykayRxJwB4xsoe25V57E772AdqXG8BCoUA2E0bH9JHxYf9AP6y5vjuxs7brL047noKUAgEwG5oe1QzrNGXXO8A4JZVdGr380/cZK3lvhMVj3+Jd0OQ06WSml3vAOCejcJ/7Fnz9huttcb1FmBPEAC7sOFhHWGN3uN6B4DyEdnwX7qfP+O/iQBUMgJgF6JQl4o/JwCvYqPM2T1rz/iG6x3AePHAthMbHtZRxuhNrncAKE82yny86/l3fdH1DmA8CICdsBEv/AOwY9bK2DD1uZ61//pZ11uAsSIAdmDjCr1W0rGudwAoeyYMh7/UueYfz3U9BBgLAmAHokDnud4AoEJYG5godXn38+/+oOspwO4iALZjwwNaIKvTXe8AUDmsbCyKhr/Vv+4s3jWEikAAbE9M75cUcz0DQIWxUSKb7b2ma+173+V6CrArBMCr2PsVt9J7Xe8AUKFsVKtw8Prute8/zfUUYGcIgFfZUKfTJM10vQNA5bI2bLBh9009L77/BNdbgB0hAF7N6l9dTwBQ+awNm22+56fdbR96g+stwPYQAC/z3INqlnSK6x0AqkMU5SdGmc6f9qz72OtcbwFejQB4mbpAb5VU73oHgCpi85OjzJZf9rd9+lDXU4CXIwBexljxoh0ABWeVm57LvHhn74bzDnS9BfgLAuAl9lbFrBEv2AFQFNbmZoXpdb8a3PTFRa63ABIB8FcbZut1kia73gGgetkoPS+TWnVnX/tlc11vAQiAvwh0vOsJAKqfDdOLwpHH70luvGqW6y3wGwHwF1bLXU8A4IcoTO0/mn7wzuGOb09zvQX+IgC07Ss9Jb3e9Q4A/ojC0UPTQ7+/a2jzDTz1CCcIAEltK7SPpEmudwDwSxQmj8ikf32b7b1rgust8A8BIMnExPtzATgR5YaO7um9+efWPt3kegv8QgBIMpEWu94AwF9ROPjGnhcu/Ym1m/ggMpQMASBJRnw4BwCnovzgyb0vfP5Ga22t6y3wAwGwzQLXAwAgzPe+o/fFf7/WWptwvQXVjwDYZm/XAwBAksJc15l9bR++2lpb43oLqpv3AbDpIU2SNNH1DgD4i3xmy7/3tp19hbU27noLqpf3ARAFmuF6AwC8WpTd/NG+to9dSgSgWLwPAJPn8/8BlB9rZcLshk/2t330Emut9/fVKDzv/6WKAk1xvQEAtsdamVx20/m9Gz51ARGAQvP+XygjNbveAAA7ZG0Qpdb+Z9/6C86x1hrXc1A9vA8AWfGeWwBlzcrGw/TTXxvY/LmPEgEoFO8DwEq81QZA2bOy8Wzy6a8NbLrofUQACsH7ADCGAABQIWxUm02uvmqo/bJ/cj0Flc/7AIgkShpABQkbMsOPXDuw4UtnuF6CyuZ9AABApbE2bMymHr92qOMbb3W9BZWLAACACmRtbmJ68KHvjWy+8o2ut6AyEQAAUKFslJkymnzgR/1br3qD6y2oPAQAAFQwG2Wm5oYe+OFgx/VHut6CykIAAECFs1FqVnrw3luSXT86zPUWVA4CAACqQZTce3Tglz8d6bh1sespqAwEAABUiSgcWZAauv3WdPed+7jegvJHAABAFYnC4f2G+2+5NTXwyHzXW1DeCAAAqDJROHDISPd//3R09NE5rregfBEAAFCFovzA4aPt377FJp+b5XoLyhMBAABVKsz1LOvd+vUbre2Y5noLyg8BAABVLMx1Ht/XdtGN1g5Ndr0F5YUAAIAql89sPbG37TPXWWtbXG9B+SAAAMADYWbL2/rXf+Jqa+1E11tQHggAAPBELr3uX/o2fOqb1tpm11vgHgEAAB7Jp55/X/+GT19hrW1yvQVuEQAA4Jl8es2/D2z83JestQ2ut8AdAgAAPGOtTHZ09TmDmy/5PBHgLwIAAPxkMsnHPzOw5QvnW2vrXI9B6REAAOAra4Pc8J8+O7jl8v+w1ta6noPSIgAAwGNWNp4Zfujioa3/9WFrbcL1HpRO3PUAAIBrUSI99LvLAhsPrbXfMcbkXC9C8REAAADJRrWjQ7+5zMYSKWvt940xedeTUFwEAADgJWFDeuCeKwJTn7HW3myMCV0vQvEQAACAv7I2P2G0//arrAmy1tqfGGMi15tQHAQAAOAVrM1NTPXf/t+xoD5rrf0FEVCdCAAAwN+xUWbKSM8t/2ODhoy19m5jjHW9CYXF2wABANtlbXrGaPf112SG7jvRWmtc70FhEQAAgB2KotTsoY7rvpMeeOAYIqC6EAAAgJ2yUXLecPe3v5cefmS56y0oHAIAALBLNhxZMNJx1bXZwSde53oLCoMAAADsligc2m+g8xvXZJNrD3e9BXuOAAAA7DYb9h8y2P7lazPDLxzkegv2DAEAABiTKN97+HDnpddY27Of6y0YPwIAADBmYa5rae+6C6+2dnCR6y0YHwIAADAuYXbL8b3rzv8fa1PzXW/B2BEAAIBxC7ObT+htO+9Ka+1c11swNgQAAGCPhJm2t/at//RXrbWzXW/B7iMAAAB7LJ9e808DGy/4srV2lust2D0EAACgILKjT713YNOFX7DWTne9BbtGAAAACiY3uuqsoc1fvNBaO831FuwcAQAAKBhrZdIjf/zIYPvln7LWTna9BztGAAAACs1khld8cnjrNz5prZ3kegy2L+56AACgClkbpAd//2lratLW2m8ZYwZcT8IrEQAAgKKwsvH0wG8+Z1SXsdZ+xxgz6HoT/oYAAAAUUZRIDd55SRDE8tbaa4wxw64XYRsCAABQXDaqTfbd8QUTa0hba28wxoy4ngQCAABQEmFDsufWrwSmPmOtvdkYM+p6ke8IAABASVibnzDc/YOvK4iF1tpbjDEp15t8RgAAAErG2tzE4a4bLldQl7HW/twYk3a9yVcEAACgpGyUmTK89ZorgqAha629wxiTcb3JRwQAAKDkrE3PGGq/8r8m7BXPW2vvMsZkXW/yDZ8ECABwIopSswc3f/ObmdEnT7TW1rje4xsCAADgjI2S84Y3X35FJvPCcdZarkqXEAEAAHAqiob3Gd548ZXKbzzWWhtzvccXBAAAwLkoHNqvu+3zV+TzW5dba3lsKgH+kAEAZcGG/YcMbrzw8ny+fykRUHz8AQMAykaY7X794MbPXK7c0Guttcb1nmpGAAAAykqY7VzWu+m8r0ijS4iA4iEAAABlJ8xuOb6/7fz/lHQIEVAcBAAAoCzlMutP7W/7xCWSDna9pRoRAACAspXLrDutf8N551lrD3S9pdoQAACAspZLPfvPAxsv/DQRUFgEAACg7GVHV713YNNF51pr93G9pVoQAACAipAbfeJ9A5u+co61dqHrLdWAAAAAVARrZbKjj3x4sP0bH7TWvsb1nkrHFy8AACqHtUFm+PfnDnfEQmvtt40xG1xPqlQEAACgslgbpAd++0mruoy19jpjzEbXkyoRAQAAqDhWNp4euPt8E6tLW2t/YIzZ4npTpSEAAAAVKkqk+m67KAjiobX2JmNMu+tFlYQAAABULhvVJbt/+p+BqctYa28xxnS6nlQpCAAAQIULG5I9N18SmIastfZnxpgu14sqAQEAAKh4UZSbONT9v19pVCx8KQJ6XW8qdwQAAKAq2CjXkuy69stBvCFnrf2FMabP9aZyRgAAAKqGtZkpw1u/9eXA1mattXcaYwZcbypXfBIgAKCq2Cg9c6jj619NJf98irV2ous95YoAAABUnShKzU62X/7lMLXmTdbaZtd7yhEBAACoSlGYnN+/6QtfDrObjrfWNrneU24IAABA1Yqi4X36N1xwaRhueYO1tsH1nnJCAAAAqloUDu7f3/a5L4aZ7jdYa+td7ykXBAAAoOpF+b5DB7acf1E+P3i0tbbO9Z5yQAAAALwQZrtfP7TxUxcpn15ura11vcc1PgcAQMXJjDwqI+N6BirT8pHum9479/Xn/971ENcIAACVx+ZlXW9A5bK5M9c/dPH9kq53PcUlngIAAPgnUIvrCa4RAAAAeIgAAADAQwQAAAAeIgAAAPAQAQAAgIcIAAAAPEQAAADgIQIAAAAPEQAAAHiIAAAAwEMEAAAAHiIAAADwEAEAAICHCAAAADxEAAAA4CECAAAADxEAAAB4iAAAAMBDBAAAAB4iAAAA8BABAACAhwgAAAA8RAAAAOAhAgAAAA8RAAAAeIgAAADAQwQAAAAeIgAAAPAQAQAAgIcIAAAAPEQAAADgIQIAAAAPEQAAAHiIAAAAwEMEAAAAHiIAAADwEAEAAICHCAAAADxEAAAA4CECAAAADxEAAAB4iAAAAMBDBAAAAB4iAAAA8BABAACAhwgAAAA8RAAAAOAhAgAAAA8RAAAAeIgAAADAQwQAAAAeIgAAAPAQAQAAgIcIAAAAPEQAAADgIQIAAAAPEQAAAHiIAAAAwEMEAAAAHiIAAADwEAEAAICHCAAAADxEAAAA4CECAAAADxEAAAB4iAAAAMBDBAAAAB4iAAAA8BABAACAhwgAAAA8RAAAAOAhAgAAAA8RAAAAeIgAAADAQwQAAAAeIgAAAPAQAQAAgIcIAAAAPEQAAADgIQIAAAAPEQAAAHiIAAAAwEMEAAAAHiIAAADwEAEAAICHCAAAADxEAAAA4CECAAAADxEAAAB4iAAAAMBDBAAAAB4iAAAA8BABAACAhwgAAAA8RAAAAOAhAgAAAA8RAAAAeIgAAADAQwQAAAAeIgAAAPAQAQAAgIcIAAAAPEQAAADgIQIAAAAPEQAAAHiIAAAAwEMEAAAAHiIAAADwEAEAAICHCAAAADxEAAAA4CECAAAAD8VdDwBQXUxQr3hijmKJWQpqpiqIt8rIyMRbJEk2SslGacnmFOZ6FOU6lc+2K8p1ydqs4/WAPwgAYBzqJp6gIN5a1DMyQ79TmOsu6hl7KlYzQ3UT36BEw6GqaTxMicZDFKuZPr4bs6FymXXKjT6tXOpZZUceU2b4QYW5rsKOBiCJAADGpXXupUo0LSnqGZ1PH1uWAVDbvEwNk96muoknKdF4sCRTmBs2MdXULVJN3SJJp//1L+dSzyk99Dul+m5XevB+rhIABUIAANilWGIvNU37NzVOPVM1dfuU9Oya+v1UU7+fmqd/SFF+QKn+OzTS9T2lh34vyZZ0C1BNCAAAO1RTt48mzD5fjVPfLWNqXM9REG9R49Qz1Tj1TOVSz2mk87sa6bpOUTjsehpQcXgXAIC/E0vM1pSFN2rWoc+oadr7yuLB/9Vq6vdT67xvavbh6zRx9vkysSbXk4CKQgAA+CtjEpow+zzNPvQ5NU59t2RiriftUhCfopa5l2qvw9vUPP1D4m4N2D38lwJAklTTcKBmHvyYWudeVpG/TQfxKZq04NuaufgR1Ta9zvUcoOwRAADUOPU9mrn4EdU0LHY9ZY8lmpZoxuKHNWnelTIm4XoOULYIAMBjJqjVlIU3asrCG2SCRtdzCsioeeY5mnHQipK/awGoFAQA4KkgPlnT9v/1tuf6q1SiaYlmHPyY6ltPdT0FKDsEAOCheO1czTz4j6qbcIzrKUUXxJo1bd/b1TT9A66nAGWFAAA8E6uZrmn736t47XzXU0rHxDV5wXc1YfZ5rpcAZYMAADwSxCdp+oH3q6Z+P9dTnGide6maZ3zE9QygLBAAgDcCTVl0k2rq93c9xCGjSfOvUsPkM1wPAZwjAABPtMy5SPUtp7ieUQaMpiy8vire8gjsCQIA8ECi8QhN3OvzrmeUDRM0atq+P1cQa3Y9BXCGAACq3rbL3vzn/krxuoVqmfsV1zMAZ7hHAKpc09T3qLZ5qesZZal5xtmqbV7uegbgBAEAVDXDW992KtCk+d+SZFwPAUqOAACqWH3rqZ6/6n/XEo2Hq2HS21zPAEqOAACqWPOMs11PqAgT51wirgLAN3HXAwAURxBrVt2E413PUBQOKsp1KwoHJWsV1ExREJ9cVq/ATzQcrLoJRys99AfXU4CSIQCAKlXXcqJMUFvyc22UVmrgLo32/kSZ4UeUz7Rt958L4lNUN/FY1U04Tg2TTlcsMbvES1+padq/EwDwCk8BAFWqbuIJJT7RaqTzGm3582vUveYdSvbcssMHf0mK8j0a7f2Z+to+qi2PL1Dvi2cpl3q2hHtfqWHyO2ViTc7OB0qNAACqVKLh4JKdZaOMep7/Z/Wu+6DCbPvYf95mNdJ1vdqfXKyBTRdLNl/4kbtggvqyeMoEKBUCAKhKRjUNB5XstIGNn1Wy98d7fkM21ODmS9Tx9BvGFRJ7qr6Vj0qGPwgAoArFaqYpiE0oyVn59Asa2nplQW8zM7xCnc+coDDXXdDb3ZkoHFaU6yrZeYBrvAgQqEJBbGLJztr2m39U8NvNpZ5V17MnavqBvyvq/59c6lkNd1ytZPeNisKhop0DlBsCAKhCJl6a3/4lKTdavBfuZZNPqK/tHE1ZeEOBbzlSqv8uDW29UunB30iyBb59oPwRAEAVMkF9yc6yNlvU2092/0CNk89Qfetb9vi2wlyHRjqv1XDndxVmtxRgHVC5CACgCtkoVbKzaur2KfoZves+rNmHvWncn2uQGXpAwx1Xa7TvtqIHC1ApeBEgUIVsmCzZWU3T/5+MSRT1jDC7WcmeH47pZ2yUVrL7Rm1ddag6nj5Gyd4f8+APvAwBAFQhG46U7Kx47Xy1zP1i0c8Zar9Cu/NcfS71nPraztHmx2ao54X3KJt8sujbgErEUwBAFQrzvdr2YFmaL7iZMOszkqSBjRfK2lxRzsilnlF66A+qm3Ds3/9Nm9do/x0a7rha6cHfihf1AbvGFQCgCtlotOQvcpsw6zOasXilEk1LinZGqu8Xr/jfYa5Tg1u+rC2PL1D3mn/gFf3AGBAAQJXKpZ4v+ZmJxiM0c/EfNW3/e1TfcrJkYgW9/dH+bQGQGV6hnrX/oi1/mquBjRcqn91U0HMAH/AUAFClcqnnVDfRzWfb17ecpPqWkxRm25XsvUWp/nuUGX5ANkrv0e3m0+vU/sT+yqWeK9BSwF8EAFClMsMPqnnG2U43xBKzNGHmuZow81zZaFTZ5J+VTT6p7OgTyiWfVHb0adlobO9Y4MEfKAwCAKhSf3s+vDQvBNwVEzSotnm5apuXv+yvRsql1iozslKZoT8oPfSA8ukXnG0EfEIAAFUqzHUpm1ylROMhrqfsRKCa+n1VU7+vmqb+m6Rtl/nTg/dptP9XSg/cy3v3gSLhRYBAFRvt/YnrCWMWr1ugpukf0LT9fqm9lnRoyqKb1Tjln0r27YaALwgAoIqNdF1XtPfll0IQb1XjlH/WlEU/0l5LOjVtvzvUMPmMon/yIOADAgCoYmGuQ6m+X7qeURAmqFN961s0dZ9bNfuITWqde5nitfNdzwIqFgEAVLnB9sskRa5nFFSsZpomzD5Psw9bq6n73qbapte7ngRUHAIAqHLZkcc00nWD6xnFYWJqmHS6Zix+WDMOelD1rW91vQioGAQA4IGBjRcoCodczyiq2ublmrbfLzXjoAe2fQohgJ0iAAAPhLkO9a//hOsZJVHbfJSm7X+3Zhz0kGrq9nE9ByhbBADgiZGu65XsucX1jJKpbV6qmYc8oeaZH3c9BShLBADgkb62s736KF0T1GvSvP/S5Nd8r+BfTARUOgIA8EiU71fnMycon9ngekpJNU17n6YuulnG1LieApQNAgDwTJjdoq5nT/HuK3QbJr9LUxb9SNztAdvwXwLgoVzqWW198nClh37nekpJNUx+h1rmfsH1DKAsEACAp6J8j7qeOUlDW7+havugoJ2ZOPsCNUz6B9czAOcIAMBj1mbVv/6TL70uYKPrOSViNHnh9xWve43rIYBTBAAApQfvV/sT+2tw8yWyUcb1nKILYs2avOBaScb1FMAZAgCAJMlGoxrYdLG2rjpMo32/cD2n6OomHqfGqf/qegbgDAEA4BVyqWfVveZ0daw+UqmBeyVZ15OKpnXvbyiIT3I9A3CCAACwXZmRR9T17Mna+uShSnb/oCqfGojVTNWEWZ90PQNwggAAsFPZ0VXqeeG92vL4HPVv+LRy6eddTyqo5hkfUxBvdT0DKDkCAMBuCXPdGmr/utr/vK+2rlqikc5rZKOU61l7LIg1q2nqv7meAZQcAQBgzLLJP6l33Qe1+U97qWftu5Xs/bGi/IDrWePWNO0s1xOAkou7HgCgckX5PiV7fqhkzw9lTI1qJxyt+ta3qr71VNXULXI9b7fVNBykeO085TPrXU8BSoYrAAAKwtqc0oO/Vf/6/1D7n/fRlscXqHfdBzXa+xNF4aDrebtU33KK6wlASREAAIoin2nTSOc16n7+Xdr8x2nqfOaNGt76rbL9JsL61je7ngCUFE8BACg6a7NKD/5W6cHfSus/rkTj4WqY9HY1TH6Haur3dz1P0rYPBpKJSTZ0PQUoCa4AANglE9QX9Payycc1sOnzan/iAG1ddYSGO66WjUYLesZYmaBR8cRcpxuAUiIAAGxHoETTEk3c6/OacdBKzVz8aNFOyiYfV1/bR7Xl8XnbvpnQ5ot21q7U1O/r7Gyg1HgKAIAkKYhPUn3LiapvOUV1LScrVjPtr3/PRhnJxIv64BzmutW//pMa6fq+piy6SYmGg4t21o7E6/eVBu4p+bmACwQA4C2jRONhqm85RfWtp6i26chtz4Fv758MapVoOETZ5J+Kvio3ulodq5dpysLr1TD5jKKf93I1dfuU9DzAJQIA8EgQb1HdxDf99UE/VjNjt3+2bsKxJQkASbJRUt1r/1lTorQap55ZkjMlveKqB1DtCABgHExQ63rCbjJKNB6y7QG/5RTVNi/ddil/HBomv33bc/SlYkP1rnu/Ek2vVU39fiU50sQaS3IOUA4IAGAcSvEVsnacX8MbxCaqruWEvz7oxxKzCrKntnmZ4nULlE+vK8jt7Q4bZTSw8bOauu9tJTkvCJpKcg5QDggAYByC+OTiHzLWr981MU0/4D7VNi+XMTVFGBSoecZH1L++tF+fm+q/S1F+QEG8pehncQUAPuFtgMAYxWvnywR1RT/HRukx/kCoRMMhRXrw36Z5+gcVS8ws2u1vj7VZ5VLPluQsExAA8AcBAIxR3YRjSnJONI6v2g2zW4qw5G9M0KiWOV8s6hnbE+V7S3KOtWO86gJUMAIAGKO6lpNLcs54Phkvn91chCWv1DTtLNW3nFj0c14uKNGr8204XJJzgHJAAABjEK9boMbJ7yzBSVZRrnvMP5UbXV2ELa9mNHnhjYon5pTgLEkmrpq6hSU5KiIA4BECABiDlr0uGffb6MYizHXL2uyYfy4z/HAR1vy9WM00Td3vDgXx1qKfVd9ycknedSFpXNEFVCoCANhNzdM/rMap7y7JWWG2fVw/lxkpTQBIUqLxEE3b/56ifniOMTWauNeFRbv9V8ulnivZWYBr7D5SSQAADh9JREFUBACwG5qnf1Ct868s2XlhduM4f65dudSaAq/Zsdqm12nmwY+rtnl5UW6/Ze/LVdv0+qLc9vYQAPAJAQDsRLxuoabu81NNWvCdor697tWyyVXj/tnR3lsLuGTXYonZmn7g/Zow81wV6i7FmIQmv+Y6TZj5iYLc3u7KjT5V0vMAlwgAeKOm/oDdes46XrdIjVPP1LT97tDsw9aoYfI7SrDulbKjT4z7Z5MlDgBp26X61nlXaObBf1TdxDfu0W3VTTxBMw/+k5qmnVWgdbsnzG5WLv18Sc8EXOKTAOGNafv9QvG6hYryfcpnNslGo7JRUtbmFMQmKIi3KlYzo2QvONuZbHL8AZAbfUrZ5JNKNB5SwEW7J9F4uKYfcJ+yI49ppOt7Gu37qcLdeGFdEGtWw+R3qmnq+1Q74egSLP17qYF7nZwLuEIAwDtBfJISZfAgvyNhdssef97+0Nava8rCGwu0aOwSTUs0qWmJJi24WrnRp5VN/lm59IuK8r2yNqsg1qwg1qJYYrZqm5aopv6AHX4VcamkBu5xej5QagQAUGa2/SY6vi8C+otkzy1qmfNFxWvnFWTT+BnVNBykmoaDHO/YuSjfq1T/r1zPAEqK1wAAZSY98Os9vxGb19CWr+757XhipOv6sX/3AlDhCACgjNgopdRgYZ6LHu66Vtnk4wW5rapmQw13XuN6BVByBABQRkZ7f6ooP1CYG7Ohetd9SFJUmNurUiPd31c+vdb1DKDkCACgjIx0XVfQ28uO/FHDHf9T0NusJjZKamDTRa5nAE4QAECZyCafVHroDwW/3f4Nn+KpgB0Y3HzpuD92Gah0BABQJrb9Jrpnr/7fHhtl1L3mHxTl+wp+25UsO/JHDbVf7noG4AwBAJSBzMijSvXfUbTbz2c2qGftv4zrGwarURQOqfv5f5S1OddTAGcIAMA1G6q/7RwV47f/l0sN3KveF94r718UaEP1vvAe5TNtrpcAThEAgGOD7V9TZuSRkpyV7LlFfes+qmLHRvmy6m37sEb7fuF6COAcAQA4lE0+ocHNF5f0zOHOb6v3hbMkmy/pueVgYOPnNNJ5resZQFkgAABHwuxWda95m2yUKfnZI93fV+ezb5YNR0p+thM2VF/bRzW45VLXS4CyQQAADtgoqa41pymf2ehsQ3rw/9T5zAlON5SCjVLqfv4MDXdc7XoKUFYIAKDEony/Op85SdmRx1xPUWbkEW1ddVjVPieeSz2jjqeWa7TvNtdTgLJDAAAlFGbb1fn0G5QZXuF6yl9F+T51r3m7+trOkY2SrucUiNXw1m9p66olyib/7HoMUJYIAKBE0oP3aeuqw5UdXeV6ynZYDXdcpfYnDtBo3+2ux+yRbPJP6nj6WPWt/7hslHI9ByhbBABQZDYaVf/G89X5zEkKc52u5+xUPrNR3Wverq7nTlNu9GnXc8YkzLar94X3aeuq1ykz9IDrOUDZi7seAFSzVP+v1Nf2MeUz611PGZNU/x1K9f9K9a1vUcucS5RoPMz1pB3KpddquONqjXRew2/8wBgQAECBWZvVaM+PNbT1mxX+/LN9KQTuVH3ryWqa9n7Vt54qY2pcD5ONRjXaf4eSXd9XauBe+fvBRsD4EQBAQUTKDD+i0b6fK9lzc5V9w1ykVP9dSvXfpVjNDDVOPVMNk05TbdNSycRKtyI/oPTQ7zTa9zON9t3uz2cYAEVCAMAbPWv/VYnGw1TTsFg1DQcqXrtA8cTscT2I2Sij3OhqZUYeVmbkEaUHf1tlD/rbF+Y6NNT+NQ21f01BfJLqW05W3cTjlGhcokTDQZIp0F2KDZXLrFMuuWrbn+/Q/duuptiwMLcPgACAPzIjjyoz8ugr/poxNYol9lIsMUNBfJKC+GSZoE5BbKJktr1G1obDslFWUdivMLtV+cx6hdmt8v2yc5TvU7LnZiV7bpYkmaBeiYaDFa9fpHhijmK1cxVPzJEJahXEWiRToyDWrCjsf+nnB2VtXlGuU2GuQ/nsFkXZDuXSLyiXeobn84EiIwDgNWtzymfa+Ga4ArBRSpmRR0r2xUYA9gxvAwQAwEMEAAAAHiIAAADwEAEAAICHCAAAADxEAAAA4CECAAAADxEAAAB4iAAAAMBDBAAAAB4iAAAA8BABAACAhwgAAAA8RAAAAOAhAgAAAA8RAAAAeIgAAADAQwQAAAAeIgAAAPAQAQAAgIcIAAAAPEQAAADgIQIAAAAPEQAAAHiIAAAAwEMEAAAAHiIAAADwEAEAAICHCAAAADxEAAAA4CECAAAADxEAAAB4iAAAAMBDBAAAAB4iAAAA8BABAACAhwgAAAA8RAAAAOAhAgAAAA8RAAAAeIgAAADAQwQAAAAeIgAAAPAQAQAAgIcIAAAAPEQAAADgIQIAAAAPEQAAAHiIAAAAwEMEAAAAHiIAAADwEAEAAICHCAAAADxEAAAA4CECAAAADxEAAAB4iAAAAMBDBAAAAB4iAAAA8BABAACAhwgAAAA8RAAAAOAhAgAAAA8RAAAAeIgAAADAQwQAAAAeIgAAAPAQAQAAgIcIAAAAPEQAAADgIQIAAAAPEQAAAHjI+wAIrCLXGwAApcV9PwGgKFDO9QYAQGlFRhnXG1zzPgCMVdb1BgBAiUUEgPcBIKO06wkAgNIyAb/8EQCRBlxPAACUXJ/rAa55HwDWqtf1BgBAaUXc9xMA8UA9rjcAAEorFnLf730A1GbU4XoDAKC0aieo0/UG17wPgGnHaUSWEgQAj3TNOERJ1yNc8z4AJElG611PAACUhhH3+RIBIEkyVi+63gAAKA1rtM71hnJAAEiy0lOuNwAASma16wHlgACQFARa5XoDAKA0DAEgiQCQJIUiAADAFxEBIEkyrgeUi/UPqV3STNc7AABF1TlvmWa4HlEOuALwNytdDwAAFJnRg64nlAsC4C+MVrieAAAouodcDygXBMBLbKTfut4AACiuKK/fuN5QLngNwEusldmwUpslzXK9BQBQFB17L9UsY2RdDykHXAF4iTGyMrrX9Q4AQJEY3c2D/98QAC9jrX7pegMAoEis7nA9oZwQAC+TH9DdkgZd7wAAFNxwTLrH9YhyQgC8zKI3KyNxFQAAqtDtc5Yp5XpEOSEAXsVKP3S9AQBQYEY/cj2h3BAArzJvqf5PfFUkAFSTzXtv0q9djyg3BMCrGKPISNe73gEAKAxrdZ15l0LXO8oNAbAdJtL/Ssq63gEA2GP5sEbXuR5RjgiA7Zh7lNqNeL4IACqe1Y8Xvk6bXM8oRwTADhirr0t8YAQAVLRA33A9oVwRADswd7meknSX6x0AgPEx0r3zlupx1zvKFQGwM0YXiasAAFCRokgXu95QzgiAnXipHH/hegcAYMx+Nf8oPex6RDkjAHbBBPqcpLzrHQCA3RZG2+67sRMEwC7sfaSekdW3Xe8AAOweI1274Eitcr2j3BEAuyFmdLGkXtc7AAC7NJDN6yLXIyoBAbAb5ixTn6TPuN4BANg5a/TZRceo2/WOSmBcD6gU1sqsf0j3GqM3ud4CANgOo4f3PlLLjVHkekol4ArAbjJGNiZ9WFLS9RYAwN9JSzqLB//dRwCMwdzletFY/YfrHQCAVzJGn5m3VM+63lFJeApgHNoe0o+N9C7XOwAA2z7xb+5SnWIMH9w2FlwBGIf4tqcC1rveAQDQljDQe3nwHzsCYBzmLFNfFOp0SaOutwCAx3Im0D8tOFKdrodUIgJgnBYcrSet0Udc7wAAj/3H3kfqQdcjKhUBsAfmL9X3jXSZ6x0A4BsrXTNvma52vaOSEQB7aO5SXSCjm1zvAACP3D0vwxXYPUUA7CFjZG1a75d0n+stAOCBlXWNOsMcx5e07SneBlgg7Y+pIZfV3VY6xvUWAKhSq2LScS99PDv2EFcACmTWEo3mEzrNSI+63gIAVeipvNWbePAvHK4AFFjHk2pMJ/VLSce73gIAVeLxREInzVqiHtdDqglXAApsxiFKJhJ6q6R7XG8BgEpnpQfChI7nwb/wCIAimLVEo3tn9FYjfcf1FgCoWEY/i0snvWaJBl1PqUY8BVBk61fqAll9SfxZA8Bus0ZfnXekPstH/BYPD0olsP5BvVmBbpLU6noLAJS5lDX68PylusH1kGpHAJTIiw9rURDpZ0Za7HoLAJQlq+djRu+cs0yrXU/xAa8BKJHXHKm1yuh11uirkiLXewCgzNzYkNURPPiXDlcAHFi/UqfI6n8lzXK9BQCcsuoxRmfvvUw/cT3FN1wBcGDeUt0dJnSANfqWuBoAwF8/yYU6gAd/N7gC4Ni6FTomCPQtWR3iegsAlMgaK318/jLd63qIz7gC4NiC5frD3pt0hJU+JKnb9R4AKKIBa3RuT0KLefB3jysAZaTrfjWlEvqINTpPvGUQQPVIWqPrwkhfXrhcXa7HYBsCoAxteECtUaCPG+kjMprieg8AjNOgNfpOPqcrFh3DFc5yQwCUsfbH1JDN6N8kfVxG+7jeAwC7ab2MrkqHuna/ozTsegy2jwCoANbKrH9Yxxqr90v6B0l1rjcBwKtkJf3SSv87b6n+zxje4VTuCIAK0/6YGnJZnWql90g6UVLC9SYA3golPWykn+SsfsTz+5WFAKhgLz6mibGMTpB0spFOskZzXG8CUPW2Gqt7o0D3xK3+b84y9bkehPEhAKpI20rNCyIdZaVlMjpc0kGSGl3vAlCxRq30tKQ/B9IKY7Vi7nK96HoUCoMAqGLWKti8UgtCq31lNF9W863RXkaaZqXJRposqV5STNIEx3MBlM6Qtl2+T1mp10i9krpltckEWi+rtnygNQterxd5Lr96/X9n+9ZvgYT2JwAAAABJRU5ErkJggg==;" parent="13" vertex="1">
                    <mxGeometry x="110" y="2" width="10" height="10" as="geometry"/>
                </mxCell>
                <mxCell id="14" style="edgeStyle=none;html=1;entryX=0;entryY=0.5;entryDx=0;entryDy=0;fontColor=#F2F2F2;" parent="1" source="4" target="7" edge="1">
                    <mxGeometry relative="1" as="geometry"/>
                </mxCell>
                <mxCell id="15" value="calls" style="edgeLabel;html=1;align=center;verticalAlign=middle;resizable=0;points=[];fontColor=#F2F2F2;" parent="14" vertex="1" connectable="0">
                    <mxGeometry x="-0.1303" relative="1" as="geometry">
                        <mxPoint as="offset"/>
                    </mxGeometry>
                </mxCell>
                <mxCell id="16" value="" style="group" parent="1" vertex="1" connectable="0">
                    <mxGeometry x="520" y="160" width="120" height="80" as="geometry"/>
                </mxCell>
                <mxCell id="17" value="&lt;font color=&quot;#f2f2f2&quot;&gt;app.jsx&lt;/font&gt;" style="shape=document;whiteSpace=wrap;html=1;boundedLbl=1;fillColor=#1109ED;" parent="16" vertex="1">
                    <mxGeometry width="120" height="80" as="geometry"/>
                </mxCell>
                <mxCell id="18" value="" style="shape=image;verticalLabelPosition=bottom;labelBackgroundColor=default;verticalAlign=top;aspect=fixed;imageAspect=0;image=data:image/png,iVBORw0KGgoAAAANSUhEUgAAAgAAAAIACAYAAAD0eNT6AAAABHNCSVQICAgIfAhkiAAAAAlwSFlzAAAOxAAADsQBlSsOGwAAABl0RVh0U29mdHdhcmUAd3d3Lmlua3NjYXBlLm9yZ5vuPBoAACAASURBVHic7d13nJxVof/x73lmdrYnu+mFhCQm9FCjkoQiiBRRxKt4m+iV37WhohcLiMgFG4iiF7lcFS4igohYQJHmRVEhBBAREloIZFM32/vs1Oc5vz+CCpi2m5k5M3M+7/8Eds7XvGDms880I1Qte6tibbO0MB7TvjbSPBnNt0ZzZDVF0hRJkyXVSqqR1OR0LDAGNQ0Hro2ZnqNmHNLZ5XoLUKmM6wEonE0PaWEkLZO0zEpHSDpAUoPjWUDB1TYvk4KaNfnBF5fNWba5z/UeoBIRABVswwNqjeI6MYh0sjU6SdJM15uAUqhtXqYgPlk2Glo9PLz6qEVH9g253gRUGgKgwrTdr5agVqdZ6QxJJ2nb5XvAK38JAEmyYf8TgVlz9LQDu0cczwIqCgFQAayV2bhSx0fSB4x0uqSE602ASy8PAEmy4cCK4Y0PvHHRm5VxOAuoKARAGeu6X02phM6yRh+TtND1HqBcvDoAJCkK+347o3vFSeY45R3NAioKAVCG2h/TlFxW51rpQ5JaXe8Bys32AkCSovzAXTOefeA08y6FDmYBFYUAKCPPPajmeqOzrdFnJU10vQcoVzsKAEkKcz23z1y88h3GKCrxLKCiBK4HQHrsMdVsWKFz6gKtt0aXiQd/YNxiNVNO37p62Q2udwDljgBwbMNKnTAlqyet0ZWSJrneA1SDWM3kd7c/ddR3Xe8AyhkB4Ejb/Wppe0jftVa/lrS/6z1AtYnFWj+w9allV7jeAZQrAsCBthV6m6nVc0b6gHgdBlA0QWzyuR2rj/qS6x1AOSIASmjTQ6pvW6krjdFtkqa73gP4IIi3XNCxevkFrncA5YYAKJEND+uAUHrcWJ0jfusHSsbKGBNv/VL7U0d/wvUWoJwQACWwcaVOs5EekrSf6y2An4yJxSZe0b56+YdcLwHKBQFQRNbKrF+pL0ZWt4u39gGOmSAeb72q85ljz3S9BCgHBECRPP20Ehse1g9kdaG45A+UBSsTl5q+1/HM8n90vQVwjQAoguceVHPjoO6V1btdbwHwKiaIG9N6Q/fq4051PQVwiQAosLb71VIX6F5Jb3C9BcCOmNoo1njr5iePfqPrJYArBEABbX5Ek02t7pe01PUWALtgTENNYuJtnU8dt9z1FMAFAqBA1j6sCblQd0s61PUWALvLNJtYw51bnzr2ta6XAKVGABRAx5NqrIl0l5G4EwEqjFUwMYg139X37AmLXW8BSokA2EPWKkgndZMkLiMCFctMyan2N+2rj+F7OeANAmAPrX9Y35R0uusdAPZUMDUWn3Bf56pTF7heApQCAbAH1q/Q2S99tC+AqmBmKWHu61nzltmulwDFRgCM0/oVWiqjb7reAaDArJkfWfP7rqffPMP1FKCYCIBxaHtUM2T0M0kJ11sAFJ61eo0NgvsGnz5jkustQLEQAGNkrYwJdZ2kma63ACgmc2A6SP+uv+30FtdLgGIgAMZo/Up9XFZvdr0DQEkszqXzv+548sxG10OAQiMAxmDDwzrASJe63gGgdKzMa4PE4J227eI611uAQiIAdpO1CmykayRxJwB4xsoe25V57E772AdqXG8BCoUA2E0bH9JHxYf9AP6y5vjuxs7brL047noKUAgEwG5oe1QzrNGXXO8A4JZVdGr380/cZK3lvhMVj3+Jd0OQ06WSml3vAOCejcJ/7Fnz9huttcb1FmBPEAC7sOFhHWGN3uN6B4DyEdnwX7qfP+O/iQBUMgJgF6JQl4o/JwCvYqPM2T1rz/iG6x3AePHAthMbHtZRxuhNrncAKE82yny86/l3fdH1DmA8CICdsBEv/AOwY9bK2DD1uZ61//pZ11uAsSIAdmDjCr1W0rGudwAoeyYMh7/UueYfz3U9BBgLAmAHokDnud4AoEJYG5godXn38+/+oOspwO4iALZjwwNaIKvTXe8AUDmsbCyKhr/Vv+4s3jWEikAAbE9M75cUcz0DQIWxUSKb7b2ma+173+V6CrArBMCr2PsVt9J7Xe8AUKFsVKtw8Prute8/zfUUYGcIgFfZUKfTJM10vQNA5bI2bLBh9009L77/BNdbgB0hAF7N6l9dTwBQ+awNm22+56fdbR96g+stwPYQAC/z3INqlnSK6x0AqkMU5SdGmc6f9qz72OtcbwFejQB4mbpAb5VU73oHgCpi85OjzJZf9rd9+lDXU4CXIwBexljxoh0ABWeVm57LvHhn74bzDnS9BfgLAuAl9lbFrBEv2AFQFNbmZoXpdb8a3PTFRa63ABIB8FcbZut1kia73gGgetkoPS+TWnVnX/tlc11vAQiAvwh0vOsJAKqfDdOLwpHH70luvGqW6y3wGwHwF1bLXU8A4IcoTO0/mn7wzuGOb09zvQX+IgC07Ss9Jb3e9Q4A/ojC0UPTQ7+/a2jzDTz1CCcIAEltK7SPpEmudwDwSxQmj8ikf32b7b1rgust8A8BIMnExPtzATgR5YaO7um9+efWPt3kegv8QgBIMpEWu94AwF9ROPjGnhcu/Ym1m/ggMpQMASBJRnw4BwCnovzgyb0vfP5Ga22t6y3wAwGwzQLXAwAgzPe+o/fFf7/WWptwvQXVjwDYZm/XAwBAksJc15l9bR++2lpb43oLqpv3AbDpIU2SNNH1DgD4i3xmy7/3tp19hbU27noLqpf3ARAFmuF6AwC8WpTd/NG+to9dSgSgWLwPAJPn8/8BlB9rZcLshk/2t330Emut9/fVKDzv/6WKAk1xvQEAtsdamVx20/m9Gz51ARGAQvP+XygjNbveAAA7ZG0Qpdb+Z9/6C86x1hrXc1A9vA8AWfGeWwBlzcrGw/TTXxvY/LmPEgEoFO8DwEq81QZA2bOy8Wzy6a8NbLrofUQACsH7ADCGAABQIWxUm02uvmqo/bJ/cj0Flc/7AIgkShpABQkbMsOPXDuw4UtnuF6CyuZ9AABApbE2bMymHr92qOMbb3W9BZWLAACACmRtbmJ68KHvjWy+8o2ut6AyEQAAUKFslJkymnzgR/1br3qD6y2oPAQAAFQwG2Wm5oYe+OFgx/VHut6CykIAAECFs1FqVnrw3luSXT86zPUWVA4CAACqQZTce3Tglz8d6bh1sespqAwEAABUiSgcWZAauv3WdPed+7jegvJHAABAFYnC4f2G+2+5NTXwyHzXW1DeCAAAqDJROHDISPd//3R09NE5rregfBEAAFCFovzA4aPt377FJp+b5XoLyhMBAABVKsz1LOvd+vUbre2Y5noLyg8BAABVLMx1Ht/XdtGN1g5Ndr0F5YUAAIAql89sPbG37TPXWWtbXG9B+SAAAMADYWbL2/rXf+Jqa+1E11tQHggAAPBELr3uX/o2fOqb1tpm11vgHgEAAB7Jp55/X/+GT19hrW1yvQVuEQAA4Jl8es2/D2z83JestQ2ut8AdAgAAPGOtTHZ09TmDmy/5PBHgLwIAAPxkMsnHPzOw5QvnW2vrXI9B6REAAOAra4Pc8J8+O7jl8v+w1ta6noPSIgAAwGNWNp4Zfujioa3/9WFrbcL1HpRO3PUAAIBrUSI99LvLAhsPrbXfMcbkXC9C8REAAADJRrWjQ7+5zMYSKWvt940xedeTUFwEAADgJWFDeuCeKwJTn7HW3myMCV0vQvEQAACAv7I2P2G0//arrAmy1tqfGGMi15tQHAQAAOAVrM1NTPXf/t+xoD5rrf0FEVCdCAAAwN+xUWbKSM8t/2ODhoy19m5jjHW9CYXF2wABANtlbXrGaPf112SG7jvRWmtc70FhEQAAgB2KotTsoY7rvpMeeOAYIqC6EAAAgJ2yUXLecPe3v5cefmS56y0oHAIAALBLNhxZMNJx1bXZwSde53oLCoMAAADsligc2m+g8xvXZJNrD3e9BXuOAAAA7DYb9h8y2P7lazPDLxzkegv2DAEAABiTKN97+HDnpddY27Of6y0YPwIAADBmYa5rae+6C6+2dnCR6y0YHwIAADAuYXbL8b3rzv8fa1PzXW/B2BEAAIBxC7ObT+htO+9Ka+1c11swNgQAAGCPhJm2t/at//RXrbWzXW/B7iMAAAB7LJ9e808DGy/4srV2lust2D0EAACgILKjT713YNOFX7DWTne9BbtGAAAACiY3uuqsoc1fvNBaO831FuwcAQAAKBhrZdIjf/zIYPvln7LWTna9BztGAAAACs1khld8cnjrNz5prZ3kegy2L+56AACgClkbpAd//2lratLW2m8ZYwZcT8IrEQAAgKKwsvH0wG8+Z1SXsdZ+xxgz6HoT/oYAAAAUUZRIDd55SRDE8tbaa4wxw64XYRsCAABQXDaqTfbd8QUTa0hba28wxoy4ngQCAABQEmFDsufWrwSmPmOtvdkYM+p6ke8IAABASVibnzDc/YOvK4iF1tpbjDEp15t8RgAAAErG2tzE4a4bLldQl7HW/twYk3a9yVcEAACgpGyUmTK89ZorgqAha629wxiTcb3JRwQAAKDkrE3PGGq/8r8m7BXPW2vvMsZkXW/yDZ8ECABwIopSswc3f/ObmdEnT7TW1rje4xsCAADgjI2S84Y3X35FJvPCcdZarkqXEAEAAHAqiob3Gd548ZXKbzzWWhtzvccXBAAAwLkoHNqvu+3zV+TzW5dba3lsKgH+kAEAZcGG/YcMbrzw8ny+fykRUHz8AQMAykaY7X794MbPXK7c0Guttcb1nmpGAAAAykqY7VzWu+m8r0ijS4iA4iEAAABlJ8xuOb6/7fz/lHQIEVAcBAAAoCzlMutP7W/7xCWSDna9pRoRAACAspXLrDutf8N551lrD3S9pdoQAACAspZLPfvPAxsv/DQRUFgEAACg7GVHV713YNNF51pr93G9pVoQAACAipAbfeJ9A5u+co61dqHrLdWAAAAAVARrZbKjj3x4sP0bH7TWvsb1nkrHFy8AACqHtUFm+PfnDnfEQmvtt40xG1xPqlQEAACgslgbpAd++0mruoy19jpjzEbXkyoRAQAAqDhWNp4euPt8E6tLW2t/YIzZ4npTpSEAAAAVKkqk+m67KAjiobX2JmNMu+tFlYQAAABULhvVJbt/+p+BqctYa28xxnS6nlQpCAAAQIULG5I9N18SmIastfZnxpgu14sqAQEAAKh4UZSbONT9v19pVCx8KQJ6XW8qdwQAAKAq2CjXkuy69stBvCFnrf2FMabP9aZyRgAAAKqGtZkpw1u/9eXA1mattXcaYwZcbypXfBIgAKCq2Cg9c6jj619NJf98irV2ous95YoAAABUnShKzU62X/7lMLXmTdbaZtd7yhEBAACoSlGYnN+/6QtfDrObjrfWNrneU24IAABA1Yqi4X36N1xwaRhueYO1tsH1nnJCAAAAqloUDu7f3/a5L4aZ7jdYa+td7ykXBAAAoOpF+b5DB7acf1E+P3i0tbbO9Z5yQAAAALwQZrtfP7TxUxcpn15ura11vcc1PgcAQMXJjDwqI+N6BirT8pHum9479/Xn/971ENcIAACVx+ZlXW9A5bK5M9c/dPH9kq53PcUlngIAAPgnUIvrCa4RAAAAeIgAAADAQwQAAAAeIgAAAPAQAQAAgIcIAAAAPEQAAADgIQIAAAAPEQAAAHiIAAAAwEMEAAAAHiIAAADwEAEAAICHCAAAADxEAAAA4CECAAAADxEAAAB4iAAAAMBDBAAAAB4iAAAA8BABAACAhwgAAAA8RAAAAOAhAgAAAA8RAAAAeIgAAADAQwQAAAAeIgAAAPAQAQAAgIcIAAAAPEQAAADgIQIAAAAPEQAAAHiIAAAAwEMEAAAAHiIAAADwEAEAAICHCAAAADxEAAAA4CECAAAADxEAAAB4iAAAAMBDBAAAAB4iAAAA8BABAACAhwgAAAA8RAAAAOAhAgAAAA8RAAAAeIgAAADAQwQAAAAeIgAAAPAQAQAAgIcIAAAAPEQAAADgIQIAAAAPEQAAAHiIAAAAwEMEAAAAHiIAAADwEAEAAICHCAAAADxEAAAA4CECAAAADxEAAAB4iAAAAMBDBAAAAB4iAAAA8BABAACAhwgAAAA8RAAAAOAhAgAAAA8RAAAAeIgAAADAQwQAAAAeIgAAAPAQAQAAgIcIAAAAPEQAAADgIQIAAAAPEQAAAHiIAAAAwEMEAAAAHiIAAADwEAEAAICHCAAAADxEAAAA4CECAAAADxEAAAB4iAAAAMBDBAAAAB4iAAAA8BABAACAhwgAAAA8RAAAAOAhAgAAAA8RAAAAeIgAAADAQwQAAAAeIgAAAPAQAQAAgIcIAAAAPEQAAADgIQIAAAAPEQAAAHiIAAAAwEMEAAAAHiIAAADwEAEAAICHCAAAADxEAAAA4CECAAAAD8VdDwBQXUxQr3hijmKJWQpqpiqIt8rIyMRbJEk2SslGacnmFOZ6FOU6lc+2K8p1ydqs4/WAPwgAYBzqJp6gIN5a1DMyQ79TmOsu6hl7KlYzQ3UT36BEw6GqaTxMicZDFKuZPr4bs6FymXXKjT6tXOpZZUceU2b4QYW5rsKOBiCJAADGpXXupUo0LSnqGZ1PH1uWAVDbvEwNk96muoknKdF4sCRTmBs2MdXULVJN3SJJp//1L+dSzyk99Dul+m5XevB+rhIABUIAANilWGIvNU37NzVOPVM1dfuU9Oya+v1UU7+fmqd/SFF+QKn+OzTS9T2lh34vyZZ0C1BNCAAAO1RTt48mzD5fjVPfLWNqXM9REG9R49Qz1Tj1TOVSz2mk87sa6bpOUTjsehpQcXgXAIC/E0vM1pSFN2rWoc+oadr7yuLB/9Vq6vdT67xvavbh6zRx9vkysSbXk4CKQgAA+CtjEpow+zzNPvQ5NU59t2RiriftUhCfopa5l2qvw9vUPP1D4m4N2D38lwJAklTTcKBmHvyYWudeVpG/TQfxKZq04NuaufgR1Ta9zvUcoOwRAADUOPU9mrn4EdU0LHY9ZY8lmpZoxuKHNWnelTIm4XoOULYIAMBjJqjVlIU3asrCG2SCRtdzCsioeeY5mnHQipK/awGoFAQA4KkgPlnT9v/1tuf6q1SiaYlmHPyY6ltPdT0FKDsEAOCheO1czTz4j6qbcIzrKUUXxJo1bd/b1TT9A66nAGWFAAA8E6uZrmn736t47XzXU0rHxDV5wXc1YfZ5rpcAZYMAADwSxCdp+oH3q6Z+P9dTnGide6maZ3zE9QygLBAAgDcCTVl0k2rq93c9xCGjSfOvUsPkM1wPAZwjAABPtMy5SPUtp7ieUQaMpiy8vire8gjsCQIA8ECi8QhN3OvzrmeUDRM0atq+P1cQa3Y9BXCGAACq3rbL3vzn/krxuoVqmfsV1zMAZ7hHAKpc09T3qLZ5qesZZal5xtmqbV7uegbgBAEAVDXDW992KtCk+d+SZFwPAUqOAACqWH3rqZ6/6n/XEo2Hq2HS21zPAEqOAACqWPOMs11PqAgT51wirgLAN3HXAwAURxBrVt2E413PUBQOKsp1KwoHJWsV1ExREJ9cVq/ATzQcrLoJRys99AfXU4CSIQCAKlXXcqJMUFvyc22UVmrgLo32/kSZ4UeUz7Rt958L4lNUN/FY1U04Tg2TTlcsMbvES1+padq/EwDwCk8BAFWqbuIJJT7RaqTzGm3582vUveYdSvbcssMHf0mK8j0a7f2Z+to+qi2PL1Dvi2cpl3q2hHtfqWHyO2ViTc7OB0qNAACqVKLh4JKdZaOMep7/Z/Wu+6DCbPvYf95mNdJ1vdqfXKyBTRdLNl/4kbtggvqyeMoEKBUCAKhKRjUNB5XstIGNn1Wy98d7fkM21ODmS9Tx9BvGFRJ7qr6Vj0qGPwgAoArFaqYpiE0oyVn59Asa2nplQW8zM7xCnc+coDDXXdDb3ZkoHFaU6yrZeYBrvAgQqEJBbGLJztr2m39U8NvNpZ5V17MnavqBvyvq/59c6lkNd1ytZPeNisKhop0DlBsCAKhCJl6a3/4lKTdavBfuZZNPqK/tHE1ZeEOBbzlSqv8uDW29UunB30iyBb59oPwRAEAVMkF9yc6yNlvU2092/0CNk89Qfetb9vi2wlyHRjqv1XDndxVmtxRgHVC5CACgCtkoVbKzaur2KfoZves+rNmHvWncn2uQGXpAwx1Xa7TvtqIHC1ApeBEgUIVsmCzZWU3T/5+MSRT1jDC7WcmeH47pZ2yUVrL7Rm1ddag6nj5Gyd4f8+APvAwBAFQhG46U7Kx47Xy1zP1i0c8Zar9Cu/NcfS71nPraztHmx2ao54X3KJt8sujbgErEUwBAFQrzvdr2YFmaL7iZMOszkqSBjRfK2lxRzsilnlF66A+qm3Ds3/9Nm9do/x0a7rha6cHfihf1AbvGFQCgCtlotOQvcpsw6zOasXilEk1LinZGqu8Xr/jfYa5Tg1u+rC2PL1D3mn/gFf3AGBAAQJXKpZ4v+ZmJxiM0c/EfNW3/e1TfcrJkYgW9/dH+bQGQGV6hnrX/oi1/mquBjRcqn91U0HMAH/AUAFClcqnnVDfRzWfb17ecpPqWkxRm25XsvUWp/nuUGX5ANkrv0e3m0+vU/sT+yqWeK9BSwF8EAFClMsMPqnnG2U43xBKzNGHmuZow81zZaFTZ5J+VTT6p7OgTyiWfVHb0adlobO9Y4MEfKAwCAKhSf3s+vDQvBNwVEzSotnm5apuXv+yvRsql1iozslKZoT8oPfSA8ukXnG0EfEIAAFUqzHUpm1ylROMhrqfsRKCa+n1VU7+vmqb+m6Rtl/nTg/dptP9XSg/cy3v3gSLhRYBAFRvt/YnrCWMWr1ugpukf0LT9fqm9lnRoyqKb1Tjln0r27YaALwgAoIqNdF1XtPfll0IQb1XjlH/WlEU/0l5LOjVtvzvUMPmMon/yIOADAgCoYmGuQ6m+X7qeURAmqFN961s0dZ9bNfuITWqde5nitfNdzwIqFgEAVLnB9sskRa5nFFSsZpomzD5Psw9bq6n73qbapte7ngRUHAIAqHLZkcc00nWD6xnFYWJqmHS6Zix+WDMOelD1rW91vQioGAQA4IGBjRcoCodczyiq2ublmrbfLzXjoAe2fQohgJ0iAAAPhLkO9a//hOsZJVHbfJSm7X+3Zhz0kGrq9nE9ByhbBADgiZGu65XsucX1jJKpbV6qmYc8oeaZH3c9BShLBADgkb62s736KF0T1GvSvP/S5Nd8r+BfTARUOgIA8EiU71fnMycon9ngekpJNU17n6YuulnG1LieApQNAgDwTJjdoq5nT/HuK3QbJr9LUxb9SNztAdvwXwLgoVzqWW198nClh37nekpJNUx+h1rmfsH1DKAsEACAp6J8j7qeOUlDW7+havugoJ2ZOPsCNUz6B9czAOcIAMBj1mbVv/6TL70uYKPrOSViNHnh9xWve43rIYBTBAAApQfvV/sT+2tw8yWyUcb1nKILYs2avOBaScb1FMAZAgCAJMlGoxrYdLG2rjpMo32/cD2n6OomHqfGqf/qegbgDAEA4BVyqWfVveZ0daw+UqmBeyVZ15OKpnXvbyiIT3I9A3CCAACwXZmRR9T17Mna+uShSnb/oCqfGojVTNWEWZ90PQNwggAAsFPZ0VXqeeG92vL4HPVv+LRy6eddTyqo5hkfUxBvdT0DKDkCAMBuCXPdGmr/utr/vK+2rlqikc5rZKOU61l7LIg1q2nqv7meAZQcAQBgzLLJP6l33Qe1+U97qWftu5Xs/bGi/IDrWePWNO0s1xOAkou7HgCgckX5PiV7fqhkzw9lTI1qJxyt+ta3qr71VNXULXI9b7fVNBykeO085TPrXU8BSoYrAAAKwtqc0oO/Vf/6/1D7n/fRlscXqHfdBzXa+xNF4aDrebtU33KK6wlASREAAIoin2nTSOc16n7+Xdr8x2nqfOaNGt76rbL9JsL61je7ngCUFE8BACg6a7NKD/5W6cHfSus/rkTj4WqY9HY1TH6Haur3dz1P0rYPBpKJSTZ0PQUoCa4AANglE9QX9Payycc1sOnzan/iAG1ddYSGO66WjUYLesZYmaBR8cRcpxuAUiIAAGxHoETTEk3c6/OacdBKzVz8aNFOyiYfV1/bR7Xl8XnbvpnQ5ot21q7U1O/r7Gyg1HgKAIAkKYhPUn3LiapvOUV1LScrVjPtr3/PRhnJxIv64BzmutW//pMa6fq+piy6SYmGg4t21o7E6/eVBu4p+bmACwQA4C2jRONhqm85RfWtp6i26chtz4Fv758MapVoOETZ5J+Kvio3ulodq5dpysLr1TD5jKKf93I1dfuU9DzAJQIA8EgQb1HdxDf99UE/VjNjt3+2bsKxJQkASbJRUt1r/1lTorQap55ZkjMlveKqB1DtCABgHExQ63rCbjJKNB6y7QG/5RTVNi/ddil/HBomv33bc/SlYkP1rnu/Ek2vVU39fiU50sQaS3IOUA4IAGAcSvEVsnacX8MbxCaqruWEvz7oxxKzCrKntnmZ4nULlE+vK8jt7Q4bZTSw8bOauu9tJTkvCJpKcg5QDggAYByC+OTiHzLWr981MU0/4D7VNi+XMTVFGBSoecZH1L++tF+fm+q/S1F+QEG8pehncQUAPuFtgMAYxWvnywR1RT/HRukx/kCoRMMhRXrw36Z5+gcVS8ws2u1vj7VZ5VLPluQsExAA8AcBAIxR3YRjSnJONI6v2g2zW4qw5G9M0KiWOV8s6hnbE+V7S3KOtWO86gJUMAIAGKO6lpNLcs54Phkvn91chCWv1DTtLNW3nFj0c14uKNGr8204XJJzgHJAAABjEK9boMbJ7yzBSVZRrnvMP5UbXV2ELa9mNHnhjYon5pTgLEkmrpq6hSU5KiIA4BECABiDlr0uGffb6MYizHXL2uyYfy4z/HAR1vy9WM00Td3vDgXx1qKfVd9ycknedSFpXNEFVCoCANhNzdM/rMap7y7JWWG2fVw/lxkpTQBIUqLxEE3b/56ifniOMTWauNeFRbv9V8ulnivZWYBr7D5SSQAADh9JREFUBACwG5qnf1Ct868s2XlhduM4f65dudSaAq/Zsdqm12nmwY+rtnl5UW6/Ze/LVdv0+qLc9vYQAPAJAQDsRLxuoabu81NNWvCdor697tWyyVXj/tnR3lsLuGTXYonZmn7g/Zow81wV6i7FmIQmv+Y6TZj5iYLc3u7KjT5V0vMAlwgAeKOm/oDdes46XrdIjVPP1LT97tDsw9aoYfI7SrDulbKjT4z7Z5MlDgBp26X61nlXaObBf1TdxDfu0W3VTTxBMw/+k5qmnVWgdbsnzG5WLv18Sc8EXOKTAOGNafv9QvG6hYryfcpnNslGo7JRUtbmFMQmKIi3KlYzo2QvONuZbHL8AZAbfUrZ5JNKNB5SwEW7J9F4uKYfcJ+yI49ppOt7Gu37qcLdeGFdEGtWw+R3qmnq+1Q74egSLP17qYF7nZwLuEIAwDtBfJISZfAgvyNhdssef97+0Nava8rCGwu0aOwSTUs0qWmJJi24WrnRp5VN/lm59IuK8r2yNqsg1qwg1qJYYrZqm5aopv6AHX4VcamkBu5xej5QagQAUGa2/SY6vi8C+otkzy1qmfNFxWvnFWTT+BnVNBykmoaDHO/YuSjfq1T/r1zPAEqK1wAAZSY98Os9vxGb19CWr+757XhipOv6sX/3AlDhCACgjNgopdRgYZ6LHu66Vtnk4wW5rapmQw13XuN6BVByBABQRkZ7f6ooP1CYG7Ohetd9SFJUmNurUiPd31c+vdb1DKDkCACgjIx0XVfQ28uO/FHDHf9T0NusJjZKamDTRa5nAE4QAECZyCafVHroDwW/3f4Nn+KpgB0Y3HzpuD92Gah0BABQJrb9Jrpnr/7fHhtl1L3mHxTl+wp+25UsO/JHDbVf7noG4AwBAJSBzMijSvXfUbTbz2c2qGftv4zrGwarURQOqfv5f5S1OddTAGcIAMA1G6q/7RwV47f/l0sN3KveF94r718UaEP1vvAe5TNtrpcAThEAgGOD7V9TZuSRkpyV7LlFfes+qmLHRvmy6m37sEb7fuF6COAcAQA4lE0+ocHNF5f0zOHOb6v3hbMkmy/pueVgYOPnNNJ5resZQFkgAABHwuxWda95m2yUKfnZI93fV+ezb5YNR0p+thM2VF/bRzW45VLXS4CyQQAADtgoqa41pymf2ehsQ3rw/9T5zAlON5SCjVLqfv4MDXdc7XoKUFYIAKDEony/Op85SdmRx1xPUWbkEW1ddVjVPieeSz2jjqeWa7TvNtdTgLJDAAAlFGbb1fn0G5QZXuF6yl9F+T51r3m7+trOkY2SrucUiNXw1m9p66olyib/7HoMUJYIAKBE0oP3aeuqw5UdXeV6ynZYDXdcpfYnDtBo3+2ux+yRbPJP6nj6WPWt/7hslHI9ByhbBABQZDYaVf/G89X5zEkKc52u5+xUPrNR3Wverq7nTlNu9GnXc8YkzLar94X3aeuq1ykz9IDrOUDZi7seAFSzVP+v1Nf2MeUz611PGZNU/x1K9f9K9a1vUcucS5RoPMz1pB3KpddquONqjXRew2/8wBgQAECBWZvVaM+PNbT1mxX+/LN9KQTuVH3ryWqa9n7Vt54qY2pcD5ONRjXaf4eSXd9XauBe+fvBRsD4EQBAQUTKDD+i0b6fK9lzc5V9w1ykVP9dSvXfpVjNDDVOPVMNk05TbdNSycRKtyI/oPTQ7zTa9zON9t3uz2cYAEVCAMAbPWv/VYnGw1TTsFg1DQcqXrtA8cTscT2I2Sij3OhqZUYeVmbkEaUHf1tlD/rbF+Y6NNT+NQ21f01BfJLqW05W3cTjlGhcokTDQZIp0F2KDZXLrFMuuWrbn+/Q/duuptiwMLcPgACAPzIjjyoz8ugr/poxNYol9lIsMUNBfJKC+GSZoE5BbKJktr1G1obDslFWUdivMLtV+cx6hdmt8v2yc5TvU7LnZiV7bpYkmaBeiYaDFa9fpHhijmK1cxVPzJEJahXEWiRToyDWrCjsf+nnB2VtXlGuU2GuQ/nsFkXZDuXSLyiXeobn84EiIwDgNWtzymfa+Ga4ArBRSpmRR0r2xUYA9gxvAwQAwEMEAAAAHiIAAADwEAEAAICHCAAAADxEAAAA4CECAAAADxEAAAB4iAAAAMBDBAAAAB4iAAAA8BABAACAhwgAAAA8RAAAAOAhAgAAAA8RAAAAeIgAAADAQwQAAAAeIgAAAPAQAQAAgIcIAAAAPEQAAADgIQIAAAAPEQAAAHiIAAAAwEMEAAAAHiIAAADwEAEAAICHCAAAADxEAAAA4CECAAAADxEAAAB4iAAAAMBDBAAAAB4iAAAA8BABAACAhwgAAAA8RAAAAOAhAgAAAA8RAAAAeIgAAADAQwQAAAAeIgAAAPAQAQAAgIcIAAAAPEQAAADgIQIAAAAPEQAAAHiIAAAAwEMEAAAAHiIAAADwEAEAAICHCAAAADxEAAAA4CECAAAADxEAAAB4iAAAAMBDBAAAAB4iAAAA8BABAACAhwgAAAA8RAAAAOAhAgAAAA8RAAAAeIgAAADAQwQAAAAeIgAAAPAQAQAAgIcIAAAAPEQAAADgIQIAAAAPEQAAAHjI+wAIrCLXGwAApcV9PwGgKFDO9QYAQGlFRhnXG1zzPgCMVdb1BgBAiUUEgPcBIKO06wkAgNIyAb/8EQCRBlxPAACUXJ/rAa55HwDWqtf1BgBAaUXc9xMA8UA9rjcAAEorFnLf730A1GbU4XoDAKC0aieo0/UG17wPgGnHaUSWEgQAj3TNOERJ1yNc8z4AJElG611PAACUhhH3+RIBIEkyVi+63gAAKA1rtM71hnJAAEiy0lOuNwAASma16wHlgACQFARa5XoDAKA0DAEgiQCQJIUiAADAFxEBIEkyrgeUi/UPqV3STNc7AABF1TlvmWa4HlEOuALwNytdDwAAFJnRg64nlAsC4C+MVrieAAAouodcDygXBMBLbKTfut4AACiuKK/fuN5QLngNwEusldmwUpslzXK9BQBQFB17L9UsY2RdDykHXAF4iTGyMrrX9Q4AQJEY3c2D/98QAC9jrX7pegMAoEis7nA9oZwQAC+TH9DdkgZd7wAAFNxwTLrH9YhyQgC8zKI3KyNxFQAAqtDtc5Yp5XpEOSEAXsVKP3S9AQBQYEY/cj2h3BAArzJvqf5PfFUkAFSTzXtv0q9djyg3BMCrGKPISNe73gEAKAxrdZ15l0LXO8oNAbAdJtL/Ssq63gEA2GP5sEbXuR5RjgiA7Zh7lNqNeL4IACqe1Y8Xvk6bXM8oRwTADhirr0t8YAQAVLRA33A9oVwRADswd7meknSX6x0AgPEx0r3zlupx1zvKFQGwM0YXiasAAFCRokgXu95QzgiAnXipHH/hegcAYMx+Nf8oPex6RDkjAHbBBPqcpLzrHQCA3RZG2+67sRMEwC7sfaSekdW3Xe8AAOweI1274Eitcr2j3BEAuyFmdLGkXtc7AAC7NJDN6yLXIyoBAbAb5ixTn6TPuN4BANg5a/TZRceo2/WOSmBcD6gU1sqsf0j3GqM3ud4CANgOo4f3PlLLjVHkekol4ArAbjJGNiZ9WFLS9RYAwN9JSzqLB//dRwCMwdzletFY/YfrHQCAVzJGn5m3VM+63lFJeApgHNoe0o+N9C7XOwAA2z7xb+5SnWIMH9w2FlwBGIf4tqcC1rveAQDQljDQe3nwHzsCYBzmLFNfFOp0SaOutwCAx3Im0D8tOFKdrodUIgJgnBYcrSet0Udc7wAAj/3H3kfqQdcjKhUBsAfmL9X3jXSZ6x0A4BsrXTNvma52vaOSEQB7aO5SXSCjm1zvAACP3D0vwxXYPUUA7CFjZG1a75d0n+stAOCBlXWNOsMcx5e07SneBlgg7Y+pIZfV3VY6xvUWAKhSq2LScS99PDv2EFcACmTWEo3mEzrNSI+63gIAVeipvNWbePAvHK4AFFjHk2pMJ/VLSce73gIAVeLxREInzVqiHtdDqglXAApsxiFKJhJ6q6R7XG8BgEpnpQfChI7nwb/wCIAimLVEo3tn9FYjfcf1FgCoWEY/i0snvWaJBl1PqUY8BVBk61fqAll9SfxZA8Bus0ZfnXekPstH/BYPD0olsP5BvVmBbpLU6noLAJS5lDX68PylusH1kGpHAJTIiw9rURDpZ0Za7HoLAJQlq+djRu+cs0yrXU/xAa8BKJHXHKm1yuh11uirkiLXewCgzNzYkNURPPiXDlcAHFi/UqfI6n8lzXK9BQCcsuoxRmfvvUw/cT3FN1wBcGDeUt0dJnSANfqWuBoAwF8/yYU6gAd/N7gC4Ni6FTomCPQtWR3iegsAlMgaK318/jLd63qIz7gC4NiC5frD3pt0hJU+JKnb9R4AKKIBa3RuT0KLefB3jysAZaTrfjWlEvqINTpPvGUQQPVIWqPrwkhfXrhcXa7HYBsCoAxteECtUaCPG+kjMprieg8AjNOgNfpOPqcrFh3DFc5yQwCUsfbH1JDN6N8kfVxG+7jeAwC7ab2MrkqHuna/ozTsegy2jwCoANbKrH9Yxxqr90v6B0l1rjcBwKtkJf3SSv87b6n+zxje4VTuCIAK0/6YGnJZnWql90g6UVLC9SYA3golPWykn+SsfsTz+5WFAKhgLz6mibGMTpB0spFOskZzXG8CUPW2Gqt7o0D3xK3+b84y9bkehPEhAKpI20rNCyIdZaVlMjpc0kGSGl3vAlCxRq30tKQ/B9IKY7Vi7nK96HoUCoMAqGLWKti8UgtCq31lNF9W863RXkaaZqXJRposqV5STNIEx3MBlM6Qtl2+T1mp10i9krpltckEWi+rtnygNQterxd5Lr96/X9n+9ZvgYT2JwAAAABJRU5ErkJggg==;" parent="16" vertex="1">
                    <mxGeometry x="110" y="2" width="10" height="10" as="geometry"/>
                </mxCell>
                <mxCell id="21" value="&amp;lt; div id=root &amp;gt;" style="rounded=1;whiteSpace=wrap;html=1;fontColor=#F2F2F2;fillColor=#004C99;" parent="1" vertex="1">
                    <mxGeometry x="119" y="270" width="120" height="20" as="geometry"/>
                </mxCell>
                <mxCell id="22" style="edgeStyle=none;html=1;entryX=0;entryY=0.5;entryDx=0;entryDy=0;fontColor=#F2F2F2;endArrow=diamond;endFill=1;" parent="1" source="4" target="21" edge="1">
                    <mxGeometry relative="1" as="geometry">
                        <Array as="points">
                            <mxPoint x="100" y="200"/>
                            <mxPoint x="100" y="280"/>
                        </Array>
                    </mxGeometry>
                </mxCell>
                <mxCell id="23" style="edgeStyle=orthogonalEdgeStyle;html=1;entryX=1;entryY=0.5;entryDx=0;entryDy=0;fontColor=#F2F2F2;endArrow=openThin;endFill=0;" parent="1" source="7" target="21" edge="1">
                    <mxGeometry relative="1" as="geometry">
                        <Array as="points">
                            <mxPoint x="390" y="280"/>
                        </Array>
                    </mxGeometry>
                </mxCell>
                <mxCell id="25" value="points" style="edgeLabel;html=1;align=center;verticalAlign=middle;resizable=0;points=[];fontColor=#F2F2F2;" parent="23" vertex="1" connectable="0">
                    <mxGeometry x="0.2077" relative="1" as="geometry">
                        <mxPoint as="offset"/>
                    </mxGeometry>
                </mxCell>
                <mxCell id="29" value="" style="edgeStyle=orthogonalEdgeStyle;html=1;fontColor=#F2F2F2;endArrow=open;endFill=0;" parent="1" source="7" target="28" edge="1">
                    <mxGeometry relative="1" as="geometry"/>
                </mxCell>
                <mxCell id="32" value="imports" style="edgeLabel;html=1;align=center;verticalAlign=middle;resizable=0;points=[];fontColor=#F2F2F2;" parent="29" vertex="1" connectable="0">
                    <mxGeometry x="0.0248" y="-1" relative="1" as="geometry">
                        <mxPoint as="offset"/>
                    </mxGeometry>
                </mxCell>
                <mxCell id="31" value="" style="group" parent="1" vertex="1" connectable="0">
                    <mxGeometry x="330" y="10" width="120" height="80" as="geometry"/>
                </mxCell>
                <mxCell id="28" value="&lt;font color=&quot;#f2f2f2&quot;&gt;index.css&lt;/font&gt;" style="shape=document;whiteSpace=wrap;html=1;boundedLbl=1;fillColor=#d80073;fontColor=#ffffff;strokeColor=#F7F2FF;" parent="31" vertex="1">
                    <mxGeometry width="120" height="80" as="geometry"/>
                </mxCell>
                <mxCell id="30" value="" style="shape=image;verticalLabelPosition=bottom;labelBackgroundColor=default;verticalAlign=top;aspect=fixed;imageAspect=0;image=data:image/png,iVBORw0KGgoAAAANSUhEUgAAAgAAAAIACAYAAAD0eNT6AAAABHNCSVQICAgIfAhkiAAAAAlwSFlzAAAN1wAADdcBQiibeAAAABl0RVh0U29mdHdhcmUAd3d3Lmlua3NjYXBlLm9yZ5vuPBoAACAASURBVHic7d15eFTl3T7w+5xZs+8bCTsSlFUFQUSBotSFTavivtSfVvSt1rYUra1ga1+r1KX6uhRfX1xq3S2ItYpSUcGiYZUdgQAhCZN9T2YmM/P7I0BRWSbJnPM9M8/9uS6vGEzOc5uQnHue85znaKFQCERmKfL4HAD6AcgD0OM4bxOlMlLsqm4LSEeIKh88/fCrjz809yrpHGQMjQWAjFbk8SUDuBDADAAXAEiWTUSqYgHonBdm3wIA97/2xsvzhKOQAezSASg2FXl8+QCmoeOkPwGAUzQQEXXV3CsuvxYsAbGHBYAipsjjiwcwC8BMACMBaLKJiChCWAJikC4dgKJfkcdnK/L4bgGwE8CfAIwCT/5EsWbuFZdfO086BEUOCwB1S5HHNwPAJgB/QccCPiKKXSwBMYQFgLqkyOMbW+TxrQTwdwCDpPMQkWlYAmIECwB1SpHH16fI4/s7gJUAxkrnISIRLAExgAWAwlbk8U0AsBodK/uJSG0sAVGOBYDCUuTxzQLwEYAM6SxEZBksAVGMBYCOq8jjcxR5fM8AeBq8bZSIvo8lIEqxANAxFXl8mQCWArhVOgsRWRpLQBRiAaCjKvL4hgD4Ch27+BERnQhLQJRhAaDvOXjy/wJAX+ksRBRVWAKiCAsAfcvBaf93ASRJZyGiqMQSECVYAOiwg4/qfRN85U9E3cMSEAVYAOhIT4DX/IkoMlgCLI4FgAAcvs+fq/2JKJJYAiyMBYAO7fD3hHQOIopJLAEWxQKguCKPrw+At8BNfojIOCwBFsQCQI+B2/sSkfFYAiyGBUBhRR7fWPDBPkRkHpYAC2EBUNt86QBEpByWAItgAVBUkcc3A8BY6RxEpCSWAAtgAVBQkcdnA/CgdA4iUhpLgDAWADXdBGCQdAgiUh5LgCAWAMUUeXzxAOZJ5yAiOoglQAgLgHpmAciTDkFEdASWAAEsAOqZKR2AiOgoWAJMxgKgkCKPLx/ASOkcRETHwBJgIhYAtUwDoEmHICI6DpYAk7AAqIW7/hFRNGAJMAELgCKKPL5kABOkcxARhYklwGAsAOq4EIBTOgQRUSewBBiIBUAdnP4nomjEEmAQFgAFFHl8DgAXSOcgIuoilgADsACooR+AZOkQRETdwBIQYSwAauDOf0QUC1gCIogFQA09pAMQEUUIS0CEsACogTMARBRLWAIigAVADZwBIKJYwxLQTSwAauAMABHFIpaAbmABUANnAIgoVrEEdBELgBo4A0BEsYwloAtYANTAGQAiinUsAZ3EAqCGROkAREQmYAnoBBYAIiKKJSwBYWIBICKiWMMSEAYWACIiikUsASfAAkBERLGKJeA4WACIiCiWsQQcAwsAERHFOpaAo2ABICIiFbAEfAcLABERqYIl4AgsAEREpBKWgINYAIiISDUsAWABICIiNSlfAlgAiIhIVUqXABYAIiJSmbIlgAWAiIhUp2QJYAEgIiJSsASwABAREXVQqgSwABAREf2HMiWABYCIiOjblCgBLABERETfF/MlgAWAiIjo6GK6BLAAEBERHVvMlgAWACIiouOLyRLAAkBERHRiMVcCWACIiIjCE1MlgAWAiIgofDFTAlgAiIiIOicmSgALABERUedFfQlgASAiIuqaqC4BLABERERdF7UlgAWAiIioe6KyBLAAEBERdV/UlQAWACIiosiIqhLAAkBERBQ5UVMCWACIiIgiKypKAAsAERFR5Fm+BLAAEBERGcPSJYAFgIiIyDiWLQEsAERERMayZAlgASAiIjKe5UoACwAREZE5LFUCWACIiIjMY5kSwAJARERkLkuUABYAIiIi84mXABYAIiIiGaIlgAWAiIhIjlgJYAEgIiKSJVICWACIiIjkmV4CWACIiIiswdQSwAJARERkHaaVABYAIiIiazGlBLAAEBERWY/hJYAFgIiIyJoMLQEsAERERNZlWAlgASAiIrI2Q0oACwAREZH1RbwEsAAQERFFh4iWABYAIiKi6BGxEsACQEREFF0iUgJYAIiIiKJPt0sACwARER2Vw+WWjkDH160SwAJARERHFZ+cKh2BTqzLJYAFgIiIjiouOUU6AoWnSyWABYCIiI4qI7+ndAQKX6dLAAsAEREdVc9ThktHoM7pVAlgASAioqPK7nsSnHHx0jGoc8IuASwARER0VLqu4+SzJkrHoM4LqwSwABAR0TENmfBDuBMSpWNQ552wBLAAEBHRMTlcbpx2wSXSMahrjlsCWACIiOi4Bo4eh4FjzpGOQV1zzBLAAkBERCc0ZsaVyDtpkHQM6pqjlgAWACIiOiHdZsN5N93JmYDo9b0SoIVCIaEsZJYij4/fZCIA1W0B6QgxYceXK7D2n++grblJOgp13v2vvfHyPIAFQAksAEQdWAAix+9tw6blH2Lryk/ga22RjkOdc/9rb7w8jwVAASwARB1YACIvGAyiovgblGzZgOrSErQ21KOloQ5+b5t0NDqO3L4DXmUBUAALAFEHFgCi/+AiQCIiIgWxABARESmIBYCIiEhBLABEREQKYgEgIiJSEAsAERGRglgAiIiIFMQCQEREpCAWACIiIgWxABARESmIBYCIiEhBLABEREQKYgEgIiJSEAsAERGRglgAiIiIFMQCQEREpCAWACIiIgWxABARESmIBYCIiEhBLABEREQKYgEgIiJSEAsAERGRglgAiIiIFMQCQEREpCAWACIiIgWxABARESmIBYCIiEhBLABEREQKYgEgIiJSEAsAERGRgrRQKCSd4bDg9EIHgH4A8gD0OM7bRKmMRBTF9jVIJ1BCwB0Pb3oOvGnZ8KYf+ueI99Oy0ZLbCyGbXTqq0sQLQHB6YTKACwHMAHABgGTRQEQUu1gALKM9PhFVp09ExRnnour0iWiP5+s6s4kUgOD0wnwA09Bx0p8AwGl6CCJSDwuAJQXtDtQOGYOKMZNRMWoSvBm50pGUYFoBCE4vjAcwC8BMACMBaKYMTER0CAuA9Wka6gcMhWfcFJScfzUCrjjpRDHL8AIQnF5oA3ATgHnouIZPRCSDBSCqeNOysevKO1F67uUI6TbpODHH0AIQnF44A8CDAAYZNggRUbhYAKJSc0F/fHPtbFSMniwdJaYYUgCC0wvHApgPYGzED05E1FUsAFGtbtBp2HHDr1E36DTpKDEhogUgOL2wD4DH0LG4j4jIWlgAYkLF6MnYftNv0JpdIB0lqkWsAASnF04A8BaAjIgckIgo0lgAYoY/KQ0b5jyFmiFjpKNErYjsBBicXjgLwEfgyZ+IiEzgaKzF6XOvRc8PXpGOErW6NQNwcOe+JwDcGrFERERG4QxATCo5/2psu3kudxbspC4XgOD0wkwAb6JjIx8iIutjAYhZNUPGYMOvnoI/OU06StTo0iWA4PTCIQC+Ak/+RERkAembVmHM7BlI3LdDOkrU6PQMwMGT/xcAkgxJRERkFM4AxLz2uAR89dDbaOo1UDqK5XVqBuDgtP+74MmfiIgsyN7ajFP/cDMcDbXSUSwv7AJwcMHfmwD6GheHiIioe+I8JRj+8O3QAu3SUSytMzMAT4DX/ImIKAqkb1qFQc/dLx3D0sIqAAfv8+etfkREFDV6fvAK9wk4jhMWgIM7/D1hfBQiIqLIGvTcPKRvWiUdw5KOWwAO7u3/FgDurkBERFFHCwQw/KHbEVexXzqK5ZxoBuAxcHtfIiKKYo7GWhQ+/4B0DMs5ZgE4+EhfPtWPiIiiXvaXS5G6ba10DEs53gzAfNNSEBERGWzgC/8tHcFSjloAgtMLZwAYa3IWIiIiw6RuW4vsL5dKx7CM7xWA4PRCG4AHBbIQEREZ6qSX50MLBqRjWMLRZgBuAjDI7CBERERGS9i/C/kfvyEdwxK+VQCC0wvjAcyTiUJERGS8/q/+GTZvq3QMcd+dAZgFIE8iCBERkRlctRXcIRDfLwAzRVIQERGZKGfFe9IRxB0uAMHphfkARgpmISIiMkXKzo1wVR+QjiHqyBmAaQA0qSBERESmCYWQXbRMOoWoIwsAd/0jIiJlZK9Se08AHQCC0wuTAUyQjUJERGSetE2rYG9pko4h5tAMwIUAnJJBiIiIzKS3+5G55hPpGGIOFQBO/xMRkXKyv/xIOoIYPTi90AHgAukgREREZstcuxxaoF06hggdQD8AydJBiIiIzGZvaUL8gX3SMUTo4M5/RESkMFdthXQEETqAHtIhiIiIpLhq1C0AnAEgIiJlcQaAiIhIQa4aj3QEEZwBICIipal8CYAzAEREpCyVCwBnAIiISFlcA0BERKQgldcAJEqHICIikmJra5GOIEI/8YcQERFRrGEBICIiUhALABERkYJYAIiIiBTEAkBERKQgFgAiIiIFsQAQEREpiAWAiIhIQSwARERECmIBICIiUhALABERkYJYAIiIiBTEAkBERKQgFgAiIiIF2aUDqC5ks8ObmQ9/Shb8qdkH32Z1vD34Z77ULACAs64SjvpKOOoqDr49+P7BP3NVlUILtAv/H9GxhOxOtOb1Q1uP/mhPSEXQ6ULQ4UbI4Tr47y5owQCctR44aivgrD0AR10FnLUe6F41H1cabYJ2J1oL+nX8k9cHrdn58GXkwpecDltrM1w1HsRV7Edc+V7ElexCwr7t0L1t0rFJUSwAAgLuBDQMPgt1p05C/ZCzEYhPCuvz2nJ6oy2n9zH/u62lESmbPkfqumVI3rwStrbmSEWmTgq64tA4aDRaCgrRWjAQrfknwZvdGyG9a5Nu9uY6JOxcj6QdRUjaXoT4ku1AKBjh1NQZ/rQslF50HSpHn4em3N4I2J0Ialqnj6MjBFu7H+66SmSuWY6CdxcirnS3AYmJvk0LTBsYkg6hAn9KFuqHj0fdiEloGHQGQnanoeNp7T4kb/sKqeuXIWXDp3DUVxo6HgHtSWmoGzYBdSN+gMZTzkTQ4TJsLFtrExK/WYOk7UVIL/onHHUVho0VU/Y1dP1zdR0VZ0/FgR/8CHUDh6MtLrzi3hUubwtSd36NvGVvIXv5IiDIsme0pYvUK10sAAYKOlyoGn85akaej+a+Q4EuvDqIiFAICcUbkb76A2R++gZ0v1cmRwwKuBNRfdYM1J52HpoGjAA085fVaMEAUtctQ9YnryJpx2rTx48qXSgAFT+4BLuvuBNNWQVdeoXfXXooiMSK/Sj458soWPS86eOrggWAIkPTUTV2Osqn3Q5fWo50mm9x1nqQ9+5TyPxiMaeQu8GfkoWKSdegcsLlCLgTpeMcFle6E1nLX0XGqiXQva3ScaynEwWgbMp12HXFnWhNTDMwUOe4Wxpw0ksPI++Dv0lHiTksANRt9cPGo/SSn6G1xwDpKMcVV7YT+e88jpSvP5WOElXacnrDM/kGVJ85zfDLON1ha21CjyVPI+tfr0Dj9PF/hFEA9l1+O4ov/gm8cdYpdt8V31iLgf/7O2R/ulg6SsxgAaAua+47DKU/uguNA0dKR+mUpB2rkf/2Y0go/lo6iqW1J6Wh5PI5qDnjApFp/q6K37cVvV75PRKKN0pHsYZjFQBdR/G1v8Tei66HzxlnbqZuSKirwKBnfouMLz+SjhL1WACo03zpudh/2WzUnj5ZOkq3pK1ZioI358NZc0A6iuXUjJmCkplz0J6QKh2la0JBZH32JvLfeRy21ibpNLKOUgCaBgzF2t//1dBFfUZLqizFiPuuQVz5XukoUYsFgDqlqf8I7Lrtz2hPSpeOEhH2xhr0f/pOJO5aLx3FEnzpudh39X2oH3q2dJSIcDRUo+er/420NUulo8j5TgHYe/Vd+Oay/0IQQgt0I8gWbMfw+T9F5r8/lI4SlVQsALa5hRnzpENEo+qx07H71scQtPB1ws4KuuJQM2YqnLUHOu4zV1jlOZdh921PoDXf2ms5OiPoikftyB8Cug1JO4qk48io77gDJuCOx9pHFmH/2IsQioGTPwCENB0Hxk2B7nIjbcNK6ThRZ9cVd0pHMB1nADpL07H/0p/Dc9710kkMlfPRiyh461Hl7hQI6TpKrrwXleMvl45iqLSiD9Dnhd+od0vovgbUnToO63+9AD6HWzqNYbK3fIURv7mK+wd0goozACwAnRBwJ6L4lvmoHzJOOoopUjatQN8Fs2FrU+O6cdAVh903z0f9sPHSUUyRsHsDBjx1B+yNNdJRTLNj6hzsPe9KqPBLL6GuEmfcNQWOWm4CFg4VC0D0LGcW5s3uhW33vKLMyR8A6oeMw7Z7XoE3u5d0FMP5kzOw/ZcLlTn5A0Bzv+HY+utX0ZbXXzqKKcov+gn2KHLyB4Dm1CyseO5z1A07UzoKWRQLQBgOnfzb8vpJRzFdW16/mC8Bbbl9sf3uV9DSe7B0FNP5Mnpg25yX0ZbbRzqKoTyTb0DZ9P+SjmE6v92J1b/7K0sAHRULwAkE3InYefuT0XsLWAS0J6Ri5+1PWmrHu0jxpedixy+ehzczXzqKmEB8Enbd9kRMfn8BoOIHV2H/pb+QjiEmCA1r71sIX3q2dBSyGBaA49F0FN8yX8lX/t/VltcPxbfMj6pNcE4k4E7Azv96Cv6ULOko4tpy+2LvDb+TjhFxVedcipKZd0vHENdud6Lo0XelY5DFxM5vcwPsv/TnSl3zP5H6IeOw/9KfS8eIiJCuo/jm+WgtGCgdxTJqTzsv6nayPJ7qM6dj79X3yT2Ey2KaU7NR8qOfSMcgC2EBOIbqsdNj/la/rvCcdz2qx06XjtFt+2feHTMb/ERS6SU/k44QETVnXIg9N/yOJ//v2DXzTkDnr33qwL8JR9HUfwT2XjNXOoZl7b1mLpr6j5CO0WUVP7gKFROvlI5hSc39hqO53zDpGN3SOGg09vz4v2PqclWk+JxulFx8s3QMsgj+hHyHLz0Xu277M0J2h3QUywrZHdh125/hS8+VjtJpbXn9sP/SX0rHsLRovhUyEJ+EPTf+ASHdJh3Fsg6MnyEdgSyCBeA79l82O2b29jdSe1I69l82WzpGp+295j6WuxOoH3qOdIQuK7niHvjScqRjWFpDQexsb03dwwJwhOa+w6L+qX5mqj19Mpr7Rs90cfXY6Wg66XTpGJbXmn9SVE6f1512LqrHTJWOYXkB3YbWfN7ZRCwA31L6o7ukI0SdaPmatSekKn0veGeEdBv8SWnSMTol6IrDvit/LR0jajT34t0vxAJwWP2w8TF1C5RZGgeOjIprxvsv/QXaE6PrpCapPTlTOkKneM69jvs5dEJrAWcAiAWgg6bHzO1PEkov+Zmlp4yb+w6NiVsXzaT526QjhK09KR2eH94oHSOq6G2t0hHIAqz7W9tEVWOno7UHF8Z0VWuPAaiy8Am2YtI1vB+8kxz1VdIRwlY2dRYC7gTpGFElfv8u6QhkAcoXgKDDhfJpt0vHiHrl025H0OGSjvE9/uQM1J52nnSMqGJra4atrVk6Rljak9JRdfal0jGiTuKerdIRyAKULwBV4y/nbUMR4EvLQdX4y6VjfE/VuB/xtr9OStxeJB0hbFVnXYyQzS4dI6o4fa1w1FZKxyALUL4A1Iw8XzpCzLDa1zKk66g65zLpGFEndeOn0hHCo/H72xVp29dJRyCLULoA+FOy0Nx3qHSMmNHcd6ilVmLXD58YlbsVStLafUjZEB0FoOGUsUo/xrmrei16TjoCWYTSc2f1w8dbb3FYKIjEXRuQuuETxO/ZDEd9BRx1HdN1/tQs+FOy0dJnMOqGT0RT/+HWWn2vaagfPh6Zn70lnQQAUGnBSxIA4KrYi5RNKxG/dzMc9ZVw1B/8/qZkwZ+ShZbeg1E/5Cx4s3ubni3rszcP57G6qrOsuaWtHgohrr4KKTu/RtrGfyNks8OfkIxAQhL8iamoHXwGmtNyEBLIllxRgrQ10VHwyHhKF4C6EZOkIxym+73I+uRV5Cx9AY6G6qN+jO1AM9wH9iBp+1fI+XAh/MkZ8Ey+AZUTr7TMAry6EZMsUQCCDhcaB46SjnGYFgwg44tFyP1gIVwVe4/6MXGlOwEAGf9+Fz0BeLN748D5N6J67AxT9rbXva3I+8cCw8eJhJBuQ8Pgs6RjfEtCXQUKn/sdMle+f8KP9aVnY+8Vd8Bz5gVoMXHTpVMe52ZY9B9aYNpAiSIqLuBOwIZHP0PI7pSOgtR1y9Dz9YfgrCnv0uf70vNQMnMO6k6VLzRauw/Df36O+CryppNOw/bZL4pmOCRl0wr0fO1BuCr2denzvdm9UHLFPagfMi7Cyb6t90tzkbniHUPHiJSufn+r2wIRz+L0tWLgC39Ej/df7tLnF1//K+y6+CcIwtjZyB6rl2HIA3wS4LEsXbRbOoLpLDR/bK6GwWfJn/xDIfRY8jT6P3tXl0/+AOCsKUf/Z+9CjyVPAyHZPheyOy3xyswSe/6HQsh7fwEGPHlbl0/+AOCq2IcBT96GvPcXGPb9zf745ag5+QNA/ZCzpSMAAPLWfYoJVwzt8skfAPq++DBGz/kRXK1NEUz2bckVJTz50/coWwDEXy2HQuiz8F7kLXkmMr/UQyHkLXkGfRbeK14CxL+2AJoGnCYdAX1eug89Fj0Zse9vj0VPot+CX0L3RnYXt/Sv3kfBW3+K6DGN1mDwbEg48tZ9iqH33wgEg90+VtL29Tj72pHI3hr5WzDjmusx6mcXRfy4FP2ULAAhm138FUSP955BxqolET9uxqol6PHeMxE/bmfUDzlb9t5sTUdT/xFy4wPIXPE2MlYuivhx09YsxaCHroWzuqz7BwsFkf/3P6Pv/86BFoGTmFmCDhdaCmQfZpOz8YuOk38E6e0+jLhnJgpfewx6hJYIpu/dirOuHw1bi3GzCxS9lCwA3sx8BOKTxMZPXbcMee89a9jx8957Fqnrlhl2/BMJxCeJ3p7Vmn8SAnGJYuPHle1Ez1cfNO74+7fj5D9cgcwV73T5xB23fzsGPnYLcv/5vxFOZzxvTh/Ru1+SPfsw/LfXGHb83q89iTN+PROJtZ4uH8MWDKD/ewsx8s6LoLf7IpiOYomSdwFI3quu+73o+fpDxk7Th0Lo+fpDaBgyTuzuAH9KFtyeo692N1pT/+Ei4wId39++C2ZD93sNHcfeVIveL81FztKFKJ8yC/XDxp94P/xQCAl7NiL7478iffUH4peKuqo1T/ZJdmaspE/eshpjbzwTVeMuxI4f/wbN6blhzQk42n3I/XIpCp/4FXRv9DzQiWSoWQBSs8XGzvrk1W4t+AuXs6YcWZ+8Cs/kGwwf62gkv8aSY2d//DLiynaaNp77wB70/d85CNnsaDrpdDQWjoI/NRv+lCwEHS44GqrgqK9EXMkOpGz6HPbGGtOyGaVNsACklu5E8tY1po2XueJ9ZK54HwF3PMrPvxLVZ5yLtvRs+BNSELQ7YG9pgrOxFol7tyP//ZeRtH29adko+qlZAKRmAEJB5Cx9wbThcpa+AM9514lMl0rOsrQnpIiNnV70T5FxtUA7krZ9iaRtX4qMb6a23L4i42oATn58tsjYtrYWFCx6HgWLnhcZn2KTkmsA/KkyJ6fEXRuOucmPERwN1UjctcG08Y4k9TUGgPaEVJFx3QeKEbd/h8jYKvGnZIqMG19XiaRvZH6eiIygZgEQenWauuETJcYEhGcATNxZ7Uhpqz8UGVc1wROtdTBIXOV+kXGJjMICYKL4PZuVGBOQLQABoUsAyVu+EBlXNQG3zB0eifvMW9tBZAY1C4DQIjFHfYUSYwKyC/GkLgHY2lpExlVNIE5mBiB5Bx+jS7FFyQLgE7o+feipfrE+JiD3NQbkLgFo7cbe+kcdpGYAUjauEhmXyChKFoCgK15kXIkH5NjamkXG1STvMQ9G/oEv4dD93HAllnGGh2KNkgVANSrNPACAU2rsKN1YJ9rYvDJPmmzue7LIuERGYQFQgEprDwDAUSczdkufwSLjqkYXeiXe3HOAyLhERmEBUIBKdx8AgKNeZgagofAMkXFVI3FJCwDqhowWGZfIKCwAClBp/wFArgA0njxGZFzV2FplnmxXcwoLHsUWFgAFqLQDISB3CaAtty986bkiY6vEjGdpHE1bfDK82XJPuSSKNBYAFQg8gwAhuefLSy5ALJ8yS2xsVbjLdomNve2Oh8XGJoo0FgBFmP0UQklOoRkAAKg6awZaep8iNr4K4srlCkDFkDPRmi/7OGKiSGEBUITu96Ln6w8Ze6taKISerz8E3S+7IY7UGgAAgKajZObdcuMrwC1YAEIAvv7Nc2LjE0USC4BCUtctQ957zxp2/Lz3nkXqumWGHT9czqr9sDfXiY3fNODUjscwkyFcFftES2Z9Xl9s+8VjYuMTRQoLgGJ6vPcMMlYtifhxM1YtQY/3non4cbtCCwaR8vVnohn2XzYbB87/sWiGWKUFg0j8Zq1ohn1nT8f+S24RzUDUXSwAqgmF0Gfhvchb8kxkLgeEQshb8gz6LLzXUjvhpWxYLh0BpZfchbIZP5WOEZOs8OTFLdfdzZkAimosACoKhdBjydPo/+xd3VoY6KwpR/9n70KPJU9b6uQPACmbV0Jrl9+bv/zCW1B888PwZveSjhJTrFAAgI6ZgC+fWcaFgRSVWAAUlrpuGQb/dioK3nqkU/sEOBqqUfDWIxj826mWuOZ/NLq3Bclbv5SOAQCoGXUBNv9uCfbc+ACLQITE7d8BR0OVdAwAHWsCVjz1MTY88Ar3CaCoYpcOQLJ0vxc5S19Azkcvoan/cNQNn4iWPoPhT8mG/+AjfR11lXDUVyB+z2akbvikY5Mfwfv8w5Wy4RPUDz1bOgYAIKTrqD5zOmpGT0Xy5hWIK9sJ14E9cB8ohvvAHtFFi9Eqdf0nqDznMukYADruDvAMOROeBZ/D3dKA9C1fIXXTl0go2YmE4q1w1sjdmkp0LFpg2kBrzd2aYM2CjSLjnn7LUJFxVeVPycLXDy8DNE06ygnZ2poPFy1HbQWc9RUd79dVwFFXAWddBRy1B6AFrV+8rfSqMQAAIABJREFUzNLSezC23vtapz6nuk3mUdEaAFvAD7u3FY7mRjgbquGuPgC3Zz/iy4sRv+8bJO3YAN0newutypYu2i0dwXScAaCY5aivRMKeTWjua/3iFXAnIJCbgLbcPsf8GFtLA1K//hQp6z9ByuaV0L1qP58+fu9mxJdsQ0vPQdJRTigEoN3mQHu8A23xyUBWPtB/2Lc+RkMIiVVlyF61FAV/fw6u6gMyYUkZLAAU09KKPoiKAhCOQHwyqsdMRfWYqdDafUjeugqp6z9ByobllrkebrbMz9/GvqvulY4RESFoaMzMR+OUG7Fryo2Ia6pF5oaV6Pn355C4U2bWkmIbLwGYiJcAzBd0uLD5gX/Al5YjHcU4oRASir9G2pqlyPr0Dei+NulEpgnEJWLjQx8h4E4M6+OlLgF0l9PXivStq1H4xBzODBhExUsAvAuAYpru9yLv3aekYxhL09Dcbzj2XzYbm/7wPqrOvhQhXY0fbVtrE/LetcYGVEbyOeNwYPjZ+Pz5ldh899MIutzSkSgGqPFbgpSW8e/FiCvbKR3DFP6ULOy9di62zH0H9cMnSMcxRfa/XhF9PoCZgtBQOuZ8LH/1a+y66TfScSjKsQBQzNOCQeT//c/SMUzVltcfO29/Ejt+uTBm1kAcixYMoNerD0rHMFW7bseuqT/G8tc3oWzqDdJxKEqxAJASUjYsF98/XkLjwJHYdvcr2H3Ln+BLz5OOY5ikbV8ibc1S6Rim87nisemm+7Dyxa9QN/ws6TgUZVgASBkFbz8iHUGGpqF25A+x9d7X0XTSadJpDFPw5nylFkAeqTklE0X3v4SSy26TjkJRhAWAlJGw+2ukrv1YOoaY9qQ07Pj586ga9yPpKIZw1hxA7vvPSccQE4KGrVf/ElvujvFFrxQxLACklJ6v/1HZe+YBIGSzY+9181Ayc05M3imQu/QFuCpLpGOI2j/mAnz1Px8i6HRJRyGLi73fAETH4az1oP/TP4PW7peOIqpi0jXYecczCMQnSUeJKK3dh16vPKD8lsl1BSdhxcJV8Ob0lI5CFsYCQMpJ2L0BvV/5nXQMcQ2njMW2e15FW05v6SgRlbzlC/T66/3SMcS1JaRg5dMfo/bUc6SjkEWxAJCSMlYuQvayv0rHENeW0xvb7vkb2vL6S0eJqMwV76Dg7UelY4hrtzmweu5CVI8+TzoKWRALACmr4M35SN66SjqGuEB8Mnbe/gQC8cnSUSIq58OFyP3g/6RjiAtBw/o5T6G1Rx/pKGQxLACkLC0YRL+//AKuin3SUcR5s3th908eibmFgfnvPIbMz9+SjiEuoNtR9KdFXBhI3xJbP+1EnWRracCAp+6AraVBOoq4hpPHYP9ls6VjRFzvv/5eyU2CvqstPhlrHlksHYMshAWAlOcu34VBD14Ft2evdBRxFZOuQfVZM6RjRFYoiL7P343kLf+WTiKutudAbP3F49IxyCJYAIgAuD17MejBK5G85QvpKOL2Xn0fmvsNl44RUVq7H/2fuRPxCu8BcUjJ2dNQOvVG6RhkASwARAfZWhox4IlZyt8dELI7sOu2x+FLy5GOElG6txXjbhiDnI0seVtv+g0aThkpHYOEsQAQHUELBtHz9YfQ+6V50ALt0nHE+JMzUTLzbukYkRcMYvhvr8Ggvz0CHSHpNGKC0PD13c9IxyBhLABER5G54m0MfPQm2BtrpaOIqTvtXDT3GyYdwxC93ngKZ/x6Jpx+NR8eBAAtyRl8lLDiWACIjiHxm7U4+Q8zkbb6QyCk5qvF/T/6hXQEwyRvWY1xN4xB8oE90lHEfHNN7H5/6cRYAIiOw1lTjn4LfolBf7waSTtWS8cxXdNJp6F++ATpGIaxNzdgzK0/QL/3X4JdwUs+XlcCiq+LvVs/KTwsAERhSCjeiIF/uhEDnvop3OW7pOOYqvTiO2Nug6DvGrBgHiZcORS9l78NWzAgHcdUxdNuQtDulI5BAmL7p5oowlI2LMcp91+C3i/fD0d9pXQcU7T2GIDqM6dLxzCc7vOi8PHZmHDVcPRc+R5sITWeKNhud2LnbQ9IxyABLABEnaQFg8j8/C0MufdCFLw5Hwm7N8T8GoHyabcj6FBjG1lbWwtOnn8Hxl9zGvKLPoKuQBEomXgxAvGJ0jHIZLa5hRnzpEOYrXzqbSLj9ljC225iiRZoR+LuDchc8Q6yPnuzYydBXYcvIw/QbdLxIioQlwh7cz0Sd2+QjtI99d6wP1T3e5H9+Xvo8/e/IL6hBsGkZPiT0xG02Q0MKCOk6fAV9EP2in9IRxGz64o7pSOYLvb+JhMJcDRUIfPzt5D5+VsIuuJRP/gs1I+YiLph42PmKXu1o85HzscvSccwne7zoseSF9BjyQsAgOa+p6B0yvWoOnUcmtNzEYImGzBCqkacLR2BTMYCQBRhurcFaWs/QtrajxDSdfjTcuFLzYb/8D9Z8KVkw5+WDX9Kx/sBd4J07BNq7jME/pQsZdY+HEtC8RYMfHIOBgII2p2oOvtCNPcaiLbMHvBl5MCbnA5/Ygra3QkIOF0I6Pao2HLI64pHc59BSNizTToKmYQFgDpoOpr6D0fd8Ilo6TP48IkJABx1lXDUVyB+z2akbvgEibs2AApcF40ELRiEs7oMzuqy435cwJ0Af2oW/CnZaOkzGHXDJ6Kp/3BAs9AyHU1D3fAJyPrsTekklqG3+5D9yaITfpwvPRvNfU9Gc88BqBsyGjWnnIE2C84MlVxyCwY9+nPpGGQSLTBtYDSU04has2CjyLin3zJUZNzjCTpcqJx4JTyTb4A/OSOsz3E0VCNn6QvI+uRV6P7wr6lS5/iTM+A573pU/uAqyyzAS9n4OQY8KbOGJiL2Weexz97sfGy742FUDDnTMjME8Q3VGHfdKOkYIpYu2i0dwXQWenlBZqs7dRI2/34J9l/6i7BP/kDHiWn/pb/A5t8vQd2pkwxMqDZHQzUK3n4Ug39zUcduhBbQcPJoBF3x0jFigquiFMN/czXG3X4uUsqLpeMAAFqTM+BPCf93AUU3FgAVaRrKpt6GXbc+Bl96XpcP40vPw65bH0PZ1NsALTYWQlmRs9aDfgt+ifx3Hhe/3TBkd6J+8FmiGWJNXOlujJ41Cb0+XywdBSEA+y+5WToGmYQFQDWahj03/gHlU2dF5qStaSifOgt7bvwDS4DBcj94Hv2emy1eAmJ5a2BJgx65C6e89EfpGPCceYF0BDIJC4BiyqbMQvWYqRE/bvWYqSibMivix6VvS1v9IXos/h/RDPXDzon5rYGlFLyzQHwmoCm7gFsDK4I/xQqpO3USyqfcatjxy6fcyjUBJsh7fwFS1y0TG789IRW+zAKx8WPdoEfuEl0TEISGhsFqLgRUDQuAIoIOF0pmzjF2ml7TUDJzjmVWrMeynm88DK3dJza+PyVLbGwVDHvgZtHthVp6nSQ4OpmFBUARlROv7NaCv3D50vNQOfFKw8dRnbO6DNnLXxMb35eaLTa2CuJKdyN707/Fxm/J6yM2NpmHBUAFmg7P5BtMG84z+QZrbWATo3I+fEFsQeChTaLIOIOe+JXY2G3Z+WJjk3n4W1oBTf2Hd+o+/+7yJ2d07GJHhnLUVyKhWGZTK14CMJ6rohTuFpmNi7xpnOFRAQuAAuqGT1RiTBWlrpdZDOjnJQBTpG/5SmRcX0q6yLhkLhYABbT0GazEmCpK2LNZZFzOAJgjddOXIuP6LficAoo8FgAF+FPMf7UmMaaKHHUekXE5A2COhJKdIuO2u9wi45K5WAAUILFgi4vEzOGok3k0r4/fX1MkFG8VGTdgc4iMS+ZSsgDo3haRcSWe+R5wJ4iMG+K2wKYISf2i1m0y4yom4OaDl8g4ShYAp9CrJpVeiUt9jVXjzektMq69sVZkXNXUDx0jMq4eCoiMS+ZSsgA46ipExlXpWrzU11g1bbl9RMa1N7EAmKFh4Kki4+rt7SLjkrnULAD1Mq9OVVqNL/U1Vk1bTh+Rce1NdSLjqqap1wCRcW2+NpFxyVwsACZS6X58FgBztOX1ExmXMwDmaM2SeeiSvU1mnRSZS80CIHR9WqUd+aS+xirxpeeifsg4kbE5A2C8xpOGo0VoDY+jtVFkXDKXXTqABLFXpwf35C946xFThpPckz9WZgDak9JRP+RstPYcCH9KFvzJmdD9XjjqK+Goq0DS9iIkfrMGWsD8a6blF/0EIaHntsfKDIA3Ox91w8aipWd/tOT2hjcjF96UTLjqq5Cx7jPkfvwWXJ4SkWxbfzYfMk96ABxNMlsQk7nULACCC9QqJ16J7H/9Dc6ackPHkX4qX1QvAtQ01Iw8HxXnXoPmPkOP+wjl8ot+AltbM1K+/hR57z0D94E9pkT0ZvVE9VkXmzLW0Tiry8TGjoTSqTdi34yb0JTR46gn2casfFQNGI7tl/0UDr8XiQf2YsALDyJtzaem5Gs4+XTU5ctc/weAhH07xMYm86hZAARfnQYdLpTMnIP+z95l3JPcNA0lM+cg6HAZc/wwROsMQOOg0Si5fDZaCwrD/pyAOwE1Z1yI2pHnI+OLRch/53HDXyGXzfgpQoL34ifuXCc2dne09DoJ6+e9iKb03LA/x+9wobbnQKz+7ULkrv8Mgx+4BXq7z8CUwJafmTNLeCw5yxeJjk/mUHINgKuqFLYWuWtcdadOQvmUWw07fvmUW1F36iTDjn8itpZGuKpKxcbvqgMX/D/suGtBp07+RwrpOqrGXYKt977W5WOEo2za7agZdYFhxz8RR0MVXJUy0+LdUTNmCr544oNOnfyPFAJQPuIcfPa3dag68/zIhjvCht//FQ05vQw7/onooSCSt6wWG5/Mo2QB0ALtSNn0uWiGsimzUD1masSPWz1mKsqmzIr4cTsjZdPnItfEuyqk6yj+fw+h9OI7I7JmwpfRA9vmvIzakT+MQLpvO3DhzYaWx3BE26v/kN2JXbc/geIfP4ggur9Dpc8Zh7VznsaGB15BMMJrMDbOXQjP0LERPWZnxdfKPF+CzKdkAQCA1HUyj1E9TNOw58Y/oHzqrONeY+7M8cqnzsKeG/8QmeN1g/jXtpP2X/pL1JxxYUSPGXTFYfctf8K+a+6L2KWYAz/8MUpn3BGRY3VHws710hE6Ze+1cw25HdYz5Ex8/vJqNBaO6P7BdB0b5y5E+anju3+sbkr55mvpCGQSZQtA8uaV0Ay+jndCmoayqbdh162PwZee1+XD+NLzsOvWx1A29Tbxk7/W7kPy5pWiGTqjatwlqDj3WsOOX3nOZdj261fRlte/y8doGnAqtt3zCkp/dFcEk3Vd4s610hHC5jnvOlSfOc2w43vjEvHlQ2+j+PpfdfkYZRdei+WvbbTEyR8Asr74QDoCmUTJRYAAYGtrRvK2r8Tuoz5S3amT0DBkHLI+eRU5S1+Ao6E6rM/zJ2fAM/kGVE68UnTB35GSt30FW1uzdIywtCelo2Tm3YaP05p/Erbe+xqyPn0Daas/REJxeK+wWnsMQNm021F32rkGJwyf7mtD/D6ZJ9R1ljczH6UX/8zwcYLQ8M3Ft6L03JnI+fc/0fu1J+CsOfFdMFVnXYjtN9+HZgs9WllDCJkr/ykdg0yibAEAgNT1yyxRAICOuwM8k2+A57zrkLhrA1I3fIL4PZvhqK84vKmOPzUL/pRstPQZjLrhEzs2+RG6z/9YUtdHz/R/+UW3IOiKM2WsoNMNz3nXwXPedXBWlyFtzVIkfrMWNm8LNL8Xuq8N0DQ09x2GxoEj0XTSafBb6MRwSOr6f0ELRseDYspm3IGQ3bynJbYkpaF48lXYM/kqJNR6kLb5Kzia6mBrboSjuQFaoB21Q89E/YBhaE3JRNCCT8xMKd1l+B0OZB1KF4CUDZ8CV4fEp82/RdPRNOBUNA2QeQhIt4RCHV/TKOBPyULlOZeJjO3L6NFR9ibfIDJ+d2Qtf106Qlja8vqL3SkRAtCUloOmcZFf5Gu0Pq8/KR2BTGStl48mc9RXIqF4o3SMmJFQvDFq7v+vHz5ebBe9aBVXujNqrv/XnnautYp9FHD6WpH92RLpGGQipQsAAKSv5oKXSImmr2XdUGssuIomWZ9Gx6t/AKgbIfMQrGiW++VS6QhkMuULQOanb8DJ+167zVnrQeanb0jHCFtT4SjpCFFF97YgfdV70jHCEnTFo6XXKdIxoooGoN/CB6VjkMmULwC634u8d5+SjhH18t59CrrfKx0jLAF3AgLuBOkYUSX9y/dha2uSjhEWX2oWp/87KaV0Z1h3LlBsUb4AAEDmF4sRV7ZTOkbUiivbicwvFkvHCJs/JVM6QlTR2v3IXfqCdIyw+VNkHqEbrTQApzxqjT0myFwsAAAQCiL/ncelU0St/HceB0JB6RhhCznc0hGiSs5HL8JVsVc6Rti4uLNzctcuR+KuzdIxSAALwEEpX3+KpB18AEZnJe1YjZSvo+PWv0PsDVXSEaKGs9aDvPcXSMfolGi5E8UK7AE/Bj90m3QMEsICcIT8tx+TjhB1ovFr5misjZrNbKQVvDkfurdVOkanOOpZ8MI14PUnoHvbpGOQEBaAIyQUf420NbwVJlxpa5aGva2tpYSCiCv9RjqF5SVt+xJpqz+UjtFp9qZaOKvLpGNYXkJ9JXq9wQXQKmMB+I6CN+fD3lgjHcPy7I01KHhzvnSMLkvZ+Jl0BEvT2v3o9Wr03haWGmWXpcymh0IY9sAt0jFIGAvAdzhrDqD/03dCa/dLR7Esrd2P/k/fCWfNAekoXRZt6xbM1vuV38Fdvks6RpelrP+XdARLO/mFPyDpmw3SMUgYC8BRJO5aj95/vV86hmX1/uv9SNwVXc+E/66E3V8jYTd/AR5NzscvIWPlIukY3ZK87UvE790iHcOS8r9aivzF/ycdgyyABeAYMr5YjJyPXpSOYTk5H72IjCi65/94eOvn9yVvXon8tx6RjtF9oRDy34m+BapGS6rcj8H/fat0DLIIFoDjKHjrUaRsWiEdwzJSNq1AwVuPSseImKQdq5G29iPpGJbhPrAH/Z6bDS0YPXs6HE/y1lVIXRc9j6c2mtPfhlF3TZOOQRbCAnA8oSD6LpgNd/lu6STi3OW70XfB7Kja8CccvV+4D+4DxdIxxNmb69D/qf+CraVROkpE9Vl4b1SvZYgUe8CPkXdfBntTnXQUshAWgBOwtTVhwFM/hb1Z3R8ce3MdBjz106jZC74zbG1N6P/0HTF34usMZ60HhQ9fD7cnenb7C5etrRkD/kftn1+nvw1n3nkRd/uj72EBCIOrYh8GPXi1kjMB7vLdGPTg1XBV7JOOYhj3gT0ofPg6Je8ddx8oRuFD18T0321XZYmyP7+utmacedskxO3ns07o+1gAwnSoBKi0JiBl04qYP/kfEle2E4MevAoJxRulo5gmoXgjCh+6Lqpv5wyXq2IfBv3xasQrtA10XHMdxv5kAlyV5dJRyKJYADrB1taEAU/ersTdATkfvYgBT94ek9P+x+JoqMbAP92I1LUfS0cxXPKWLzDw0ZuUmhq3tTZh3A1jkLPp39JRDJdcUYKxN58DR321dBSyMNvcwox50iGiSwjJW76Aq7oM9UPOBnSbdKCI0tr96PPSXOR+uBBASDqO6bRgAOlrPkLQFYfm/iOk40ScFgwg7x8L0Pvl+6G3+6TjmK+uDbn/egeOUBDVQ8eg42G4sUNDCP3ffxHD5t0I3a/g97cbdl1xp3QE02mBaQPV+y0fIU39R2DXbX9Ge1K6dJSIsDfWoP/Td0b9Jj+RUnX2pSi5/FcIuuKko0SE27MXff7vHqUuc3zPvobD/1o/5Aysnfsi/A6XYKDIcbc04NS513OHvy5auki9NSIsAN3kS8/F/stmo/b0ydJRuiVtzVIUvDlfievBneFLz8O+K3+N+uETpKN0XSiE7OWvIf+tR6D7vdJpZB1RAACgPTEVa+a/jfq8vkKBIiNv7XIMeeAWaMF26ShRiwWAuqy57zCU/uguNA4cKR2lU5J2rEb+249F51P9TFQ34gcoueIe+NJzpaN0iqtiH3r97QEkb4n9695h+U4BOKTiB5dg281z0RaXZHKg7kmsLscp/zMHqevUWZxsFBYA6rb6YeNResnP0NpjgHSU44or24n8dx7nQ3E6IeiKR9m021Ex6RqEdGuvn3VVliDvH39B+qr3oAUD0nGs4xgF4JDi63+F4mn/D+02u0mBuiauqRaFC+Yh+7Ml0lFiBgsARYamo2rsdJRPux2+tBzpNN/irPUg792nkPnF4pjb1c8srfkDUHHudag540IELXb9mCf+EzhBAQCAoMuNrT9/DOWjJyNosUWCrrZmnPTKI+ix5AXpKDGHBYAiKuhwoWr85agZeT6a+w4FNKFfJqEQEoo3In31B8j89A1eB46Q9oQUVJ91MSrHz4Q3q0AuSCiIpG/WImPl35H+5T944j+eMArAIe0Jydhz7S9QfvY0tCakGBjq+PRQCKl7t6L3O88i67P3xHLEOhYAMow/JQv1w8ejbsQkNAw6AyG709DxtHYfkrd9hdT1y5Cy4VM46isNHU9pmo76IeNQOeEKNJw8BiG7w/gxQyEk7lqHtNUfIm3NR/z+hqsTBeBIDYNORfE1v0TVKaMQ0I2/PKABSKg5gPxlb6Lnm09D97G0G40FgEwRcCegYfBZqDt1EuqHnI1AfGQWHtlaGpGy6XOkrluG5M0rYWtrjshxKXxBpxtN/UegqXAUGgvPQHOfIQhF6Hqyq3I/4vdtQeI3a5G29iM46ioiclyldLEAHKbrKJ98BarOOBeNfU9Ga0omAhHYC0RDCO6mOiTt+wbp6z9HzrK34armHTlmYgEg04Vsdngz8+FPyYI/Nfvg26yOtwf/zJeaBQBw1lXCUV8JR13FwbcH3z/4Z66qUmgB3gZkJUFXHJr6j0BLr1OO+L5mwp+cCX9K1uE9BrR2H2xtzbC1tUD3tsDW1gxndRni925B/L6tiC/ZqvQDiyKmuwXgKJp7D0TVuItQO2QMvKmZCLjiEHC5EbA7EbQ7EDxYEGztftj8Xthbm+FoaYSzsRZx5fuQuepDpK9ZDsTIY5ijFQsAEZkq6HRDa/fzur1ZDCgAFBtULADWvteFKMbpvjbpCESkKGvfzExERESGYAEgIiJSEAsAERGRglgAiIiIFMQCQEREpCAWACIiIgWxABARESmIBYCIiEhBLABEREQKYgEgIiJSEAsAERGRglgAiIiIFMQCQEREpCAdQJN0CCIiIikBd7x0BBE6gDLpEERERFK86TnSEUToAMqlQxAREUnxpmVLRxDBGQAiIlKaN13dAsAZACIiUpbKBYAzAEREpCyuASAiIlIQ1wAQEREpSOVLAJwBICIiZak8A7AbQIN0ECIiIrO1xyeiJbeXdAwRur54ux/AP6WDEBERma3qtAkI2ezSMUQcehbAItEUREREAipGnycdQcyhAvA+AJ9kECIiIjMF7Q5UnT5ROoYYHQD0xdsbACyXjUJERGSe2iFj0B6fKB1DzJGPA+ZlACIiUkbFmMnSEUQdWQDeBRCSCkJERGQaTUPFqEnSKUQdLgD64u2lAFYLZiEiIjJF/YCh8GbkSscQpX/n/ddFUhAREZnIM26KdARx3y0Az4A7AxIRUQzzpmWj5PyrpWOI+1YB0BdvbwEwTyYKERGR8XZdeScCrjjpGOK+OwMAAM8D2GZ2ECIiIqM1F/RH6bmXS8ewhO8VAH3x9gCAewSyEBERGeqba2cjpNukY1jC0WYAoC/evgjAFyZnISIiMkzdoNNQMVrte/+PdNQCcNBs01IQEREZbMcNv5aOYCnHLAD64u1fgLsDEhFRDKgYPRl1g06TjmEpx5sBAIC7AFSbEYSIiMgI/qQ0bL/pN9IxLOe4BUBfvH0PgEsBtJuShoiIKIJCNhs2zHkKrdkF0lEs50QzANAXb18O4A7joxAREUXWtpvnoWbIGOkYlnTCAgAA+uLtzwB41uAsREREEVNy/tXc8e84wioAB90BYLlBOYiIiCKmZsgYbLt5rnQMSwu7AOiLt/sBXAag2Lg4RERE3dOa0xMbfvUUQja7dBRL68wMAPTF26sATAPQaEwcIiKirmuPS8C6e5+DPzlNOorldaoAAIC+ePsmAGPBmQAiIrKQ1pye+Oqht9HUa6B0lKjQ6QIAHC4BZ4BrAoiIyAJqhozBqvmLePLvhC4VAODw5YDJ4N0BREQkqOT8q7Hm/pc47d9JWigU6vZBgtMLZwF4AgBXXBCRde1rkE5AERSy2bDt5nm81a+LIlIAACA4vXACgLcAZETkgEREkcYCEDP8SWnYMOcpbvLTDV2+BPC9A3XsGDgSfIAQEREZqGL0ZKx6ZDFP/t0UsRmAIwWnF44FMB8ddwsQEVkDZwCiWt2g07Djhl/zqX4RYkgBOCQ4vXAGgAcBDDJsECKicLEARKXmgv745trZqBg9WTpKTDG0AABAcHqhDcBNAOYByDN0MCKi42EBiCretGzsuvJOlJ57OUK6TTpOzDG8ABwSnF4YD2AWgJnoWCugmTIwEdEhLADWp2moHzAUnnFTUHL+1Qi44qQTxSzTCsCRgtML89GxpfAMABMAOE0PQUTqYQGwpKDdgdohY1AxZjIqRk2CNyNXOpISRArAkYLTC5MBXIiOMnABgGTRQEQUu1gALKM9PhFVp09ExRnnour0iWiPT5SOpBzxAnCk4PRCB4B+6Fgr0OM4b/k3hYg6jwXAFAF3PLzpOfCmZcObfuifI95Py0ZLbi8+rU+YpQoAGaPI4+M3mQhAdVtAOgKRZURsIyAiIiKKHiwARERECmIBICIiUhALABERkYJYAIiIiBTEAkBERKQgFgAiIiIFsQAQEREpiAWAiIhIQSwARERECmIBICIiUhALABERkYJYAIiIiBTEAkBERKQgFgAiIiIFsQAQEREpiAWAiIhIQSwARERECmIBICIUIOT4AAAFCUlEQVQiUhALABERkYJYAIiIiBTEAkBERKQgFgAiIiIFsQAQEREpiAWAiIhIQSwARERECmIBICIiUhALABERkYJYAIiIiBTEAkBERKQgFgAiIiIFsQAQEREpiAWAiIhIQSwARERECmIBICIiUhALABERkYJYAIiIiBTEAkBERKQgFgAiIiIFsQAQEREpiAWAiIhIQSwARERECmIBICIiUhALABERkYJYAIiIiBTEAqCGJukARERkHRoQYgFQQ5l0ACIisg5Ng58FQA3l0gGIiMg6dE1rYQFQA2cAiIjoMA2oZwFQA2cAiIjoMA2oYgFQA2cAiIjoME1DGQuAGjgDQERER9rHAqAGzgAQEdFhGrCTBUANnAEgIqLDNA3bWADUsBtAg3QIIiKSpwEhAJ+xAChgVI7TD+Cf0jmIiEieXddKxue7uQ+AQhZJByAiInk2DYsBPgtAJe8D8EmHICIiWZqGhwAWAGWMynE2AFgunYOIiOTYda16fL67FGABUA0vAxARKcym4aND/84CoJZ30bH6k4iIFKRr+NPhf5cMQuYaleMsBbBaOgcREZnPpmnN4/Pdaw69zwKgntelAxARkfnsOv515PssAOp5BtwZkIhIKbqGoK7hx9/6M6kwJGNUjrMFwDzpHEREZB6Hrv1tfL676sg/YwFQ0/MAtkmHICIi49k0+HQNN333z1kAFDQqxxkAcI90DiIiMp5D1x4dn+/+3kZwWijEu8JUVeTxrQQwVjoHkVmq2wLSEYhMZde0xnN7uZOP9t84A6C22dIBiIjIOHb92L/nOQOguCKP7+8AZkjnIDIDZwBIJQ5dK5/U093jWP+dMwB0F4Bq6RBERBQ5moaQXcflx/sYFgDFjcpx7gFwKYB24ShERBQhLl37+fh894rjfQwLAGFUjnM5gDuEYxARUQS4bNprEwrcj5/o47gGgA4r8vieAXCrdA4io3ANAMU6p65t+UFP9+BwPpYzAHSkOwAslw5BRESdZ9e1OpuOUeF+PAsAHTYqx+kHcBmAYuksREQUPl1Du0PH6PH57pawP8fIQBR9RuU4qwBMA9AonYWIiE5MA0Ium3bZ+Hz3js58HgsAfc+oHOcmdOwQyJkAIiIL0zW0u+3aJePz3Ys6/blGBKLod7AEnAGuCSAisiS7rtW5bNrgrpz8ARYAOo6DlwMmA3hWOgsREf2HU9e2OHTkd3ba/0i8DZDCUuTxzQLwBAC7dBairuJtgBQLXDbttYkF7iu7exzOAFBYRuU4nwFwHrhtMBGRCE1DyG3T7orEyR9gAaBOOLhj4EgAXbreREREXePQtXK3TTsnnB3+wsVLANQlRR7fWADz0XG3AFFU4CUAijZ2TWu065g9ocD9l0gfmwWAuqXI45sB4EEAg6SzEJ0ICwBFC5sGn0PXHp1Q4L7HqDFYAKjbijw+G4CbAMwDkCebhujYWADI6nQNQYeu/U3XcNP4fLfPyLFYAChiijy+eACzAMxEx1oBTTYR0bexAJBV2TSt2a7jX7qGH4/Pd1eZMSYLABmiyOPLR8eWwjMATADgFA1EBBYAsha7rlXbNHyka/jT+Hz3GrPHZwEgwxV5fMkALkRHGbgAQLJsIlIVCwBJ0oCQXddKbBoWaxoeGp/vLhXNwwJAZiry+BwA+qFjrUCP47xNlMpIsYsFgIyiASFNg1/XtBYNqNeAKk1DGYB9GrBT07ANwGedeVqf0f4/HpR5AfH+c6YAAAAASUVORK5CYII=;" parent="31" vertex="1">
                    <mxGeometry x="108" y="2" width="10" height="10" as="geometry"/>
                </mxCell>
                <mxCell id="33" value="Google fonts" style="rounded=1;whiteSpace=wrap;html=1;fontColor=#ffffff;fillColor=#008a00;strokeColor=#FFFFFF;" parent="1" vertex="1">
                    <mxGeometry x="119" y="310" width="120" height="20" as="geometry"/>
                </mxCell>
                <mxCell id="34" value="Font Awesome" style="rounded=1;whiteSpace=wrap;html=1;fontColor=#ffffff;fillColor=#008a00;strokeColor=#FFFFFF;" parent="1" vertex="1">
                    <mxGeometry x="119" y="340" width="120" height="20" as="geometry"/>
                </mxCell>
                <mxCell id="35" value="Fav icon" style="rounded=1;whiteSpace=wrap;html=1;fontColor=#ffffff;fillColor=#008a00;strokeColor=#FFFFFF;" parent="1" vertex="1">
                    <mxGeometry x="120" y="370" width="120" height="20" as="geometry"/>
                </mxCell>
                <mxCell id="36" style="edgeStyle=orthogonalEdgeStyle;html=1;entryX=0;entryY=0.5;entryDx=0;entryDy=0;fontColor=#F2F2F2;endArrow=diamond;endFill=1;" parent="1" source="4" target="33" edge="1">
                    <mxGeometry relative="1" as="geometry">
                        <Array as="points">
                            <mxPoint x="100" y="200"/>
                            <mxPoint x="100" y="320"/>
                        </Array>
                    </mxGeometry>
                </mxCell>
                <mxCell id="37" style="edgeStyle=orthogonalEdgeStyle;html=1;entryX=0;entryY=0.5;entryDx=0;entryDy=0;fontColor=#F2F2F2;endArrow=diamond;endFill=1;" parent="1" source="4" target="34" edge="1">
                    <mxGeometry relative="1" as="geometry">
                        <Array as="points">
                            <mxPoint x="100" y="200"/>
                            <mxPoint x="100" y="350"/>
                        </Array>
                    </mxGeometry>
                </mxCell>
                <mxCell id="38" style="edgeStyle=orthogonalEdgeStyle;html=1;entryX=0;entryY=0.5;entryDx=0;entryDy=0;fontColor=#F2F2F2;endArrow=diamond;endFill=1;" parent="1" source="4" target="35" edge="1">
                    <mxGeometry relative="1" as="geometry">
                        <Array as="points">
                            <mxPoint x="100" y="200"/>
                            <mxPoint x="100" y="380"/>
                        </Array>
                    </mxGeometry>
                </mxCell>
                <mxCell id="40" value="" style="group" parent="1" vertex="1" connectable="0">
                    <mxGeometry x="520" y="10" width="120" height="80" as="geometry"/>
                </mxCell>
                <mxCell id="41" value="&lt;font color=&quot;#f2f2f2&quot;&gt;app.css&lt;/font&gt;" style="shape=document;whiteSpace=wrap;html=1;boundedLbl=1;fillColor=#d80073;fontColor=#ffffff;strokeColor=#F7F2FF;" parent="40" vertex="1">
                    <mxGeometry width="120" height="80" as="geometry"/>
                </mxCell>
                <mxCell id="42" value="" style="shape=image;verticalLabelPosition=bottom;labelBackgroundColor=default;verticalAlign=top;aspect=fixed;imageAspect=0;image=data:image/png,iVBORw0KGgoAAAANSUhEUgAAAgAAAAIACAYAAAD0eNT6AAAABHNCSVQICAgIfAhkiAAAAAlwSFlzAAAN1wAADdcBQiibeAAAABl0RVh0U29mdHdhcmUAd3d3Lmlua3NjYXBlLm9yZ5vuPBoAACAASURBVHic7d15eFTl3T7w+5xZs+8bCTsSlFUFQUSBotSFTavivtSfVvSt1rYUra1ga1+r1KX6uhRfX1xq3S2ItYpSUcGiYZUdgQAhCZN9T2YmM/P7I0BRWSbJnPM9M8/9uS6vGEzOc5uQnHue85znaKFQCERmKfL4HAD6AcgD0OM4bxOlMlLsqm4LSEeIKh88/fCrjz809yrpHGQMjQWAjFbk8SUDuBDADAAXAEiWTUSqYgHonBdm3wIA97/2xsvzhKOQAezSASg2FXl8+QCmoeOkPwGAUzQQEXXV3CsuvxYsAbGHBYAipsjjiwcwC8BMACMBaLKJiChCWAJikC4dgKJfkcdnK/L4bgGwE8CfAIwCT/5EsWbuFZdfO086BEUOCwB1S5HHNwPAJgB/QccCPiKKXSwBMYQFgLqkyOMbW+TxrQTwdwCDpPMQkWlYAmIECwB1SpHH16fI4/s7gJUAxkrnISIRLAExgAWAwlbk8U0AsBodK/uJSG0sAVGOBYDCUuTxzQLwEYAM6SxEZBksAVGMBYCOq8jjcxR5fM8AeBq8bZSIvo8lIEqxANAxFXl8mQCWArhVOgsRWRpLQBRiAaCjKvL4hgD4Ch27+BERnQhLQJRhAaDvOXjy/wJAX+ksRBRVWAKiCAsAfcvBaf93ASRJZyGiqMQSECVYAOiwg4/qfRN85U9E3cMSEAVYAOhIT4DX/IkoMlgCLI4FgAAcvs+fq/2JKJJYAiyMBYAO7fD3hHQOIopJLAEWxQKguCKPrw+At8BNfojIOCwBFsQCQI+B2/sSkfFYAiyGBUBhRR7fWPDBPkRkHpYAC2EBUNt86QBEpByWAItgAVBUkcc3A8BY6RxEpCSWAAtgAVBQkcdnA/CgdA4iUhpLgDAWADXdBGCQdAgiUh5LgCAWAMUUeXzxAOZJ5yAiOoglQAgLgHpmAciTDkFEdASWAAEsAOqZKR2AiOgoWAJMxgKgkCKPLx/ASOkcRETHwBJgIhYAtUwDoEmHICI6DpYAk7AAqIW7/hFRNGAJMAELgCKKPL5kABOkcxARhYklwGAsAOq4EIBTOgQRUSewBBiIBUAdnP4nomjEEmAQFgAFFHl8DgAXSOcgIuoilgADsACooR+AZOkQRETdwBIQYSwAauDOf0QUC1gCIogFQA09pAMQEUUIS0CEsACogTMARBRLWAIigAVADZwBIKJYwxLQTSwAauAMABHFIpaAbmABUANnAIgoVrEEdBELgBo4A0BEsYwloAtYANTAGQAiinUsAZ3EAqCGROkAREQmYAnoBBYAIiKKJSwBYWIBICKiWMMSEAYWACIiikUsASfAAkBERLGKJeA4WACIiCiWsQQcAwsAERHFOpaAo2ABICIiFbAEfAcLABERqYIl4AgsAEREpBKWgINYAIiISDUsAWABICIiNSlfAlgAiIhIVUqXABYAIiJSmbIlgAWAiIhUp2QJYAEgIiJSsASwABAREXVQqgSwABAREf2HMiWABYCIiOjblCgBLABERETfF/MlgAWAiIjo6GK6BLAAEBERHVvMlgAWACIiouOLyRLAAkBERHRiMVcCWACIiIjCE1MlgAWAiIgofDFTAlgAiIiIOicmSgALABERUedFfQlgASAiIuqaqC4BLABERERdF7UlgAWAiIioe6KyBLAAEBERdV/UlQAWACIiosiIqhLAAkBERBQ5UVMCWACIiIgiKypKAAsAERFR5Fm+BLAAEBERGcPSJYAFgIiIyDiWLQEsAERERMayZAlgASAiIjKe5UoACwAREZE5LFUCWACIiIjMY5kSwAJARERkLkuUABYAIiIi84mXABYAIiIiGaIlgAWAiIhIjlgJYAEgIiKSJVICWACIiIjkmV4CWACIiIiswdQSwAJARERkHaaVABYAIiIiazGlBLAAEBERWY/hJYAFgIiIyJoMLQEsAERERNZlWAlgASAiIrI2Q0oACwAREZH1RbwEsAAQERFFh4iWABYAIiKi6BGxEsACQEREFF0iUgJYAIiIiKJPt0sACwARER2Vw+WWjkDH160SwAJARERHFZ+cKh2BTqzLJYAFgIiIjiouOUU6AoWnSyWABYCIiI4qI7+ndAQKX6dLAAsAEREdVc9ThktHoM7pVAlgASAioqPK7nsSnHHx0jGoc8IuASwARER0VLqu4+SzJkrHoM4LqwSwABAR0TENmfBDuBMSpWNQ552wBLAAEBHRMTlcbpx2wSXSMahrjlsCWACIiOi4Bo4eh4FjzpGOQV1zzBLAAkBERCc0ZsaVyDtpkHQM6pqjlgAWACIiOiHdZsN5N93JmYDo9b0SoIVCIaEsZJYij4/fZCIA1W0B6QgxYceXK7D2n++grblJOgp13v2vvfHyPIAFQAksAEQdWAAix+9tw6blH2Lryk/ga22RjkOdc/9rb7w8jwVAASwARB1YACIvGAyiovgblGzZgOrSErQ21KOloQ5+b5t0NDqO3L4DXmUBUAALAFEHFgCi/+AiQCIiIgWxABARESmIBYCIiEhBLABEREQKYgEgIiJSEAsAERGRglgAiIiIFMQCQEREpCAWACIiIgWxABARESmIBYCIiEhBLABEREQKYgEgIiJSEAsAERGRglgAiIiIFMQCQEREpCAWACIiIgWxABARESmIBYCIiEhBLABEREQKYgEgIiJSEAsAERGRglgAiIiIFMQCQEREpCAWACIiIgWxABARESmIBYCIiEhBLABEREQKYgEgIiJSEAsAERGRgrRQKCSd4bDg9EIHgH4A8gD0OM7bRKmMRBTF9jVIJ1BCwB0Pb3oOvGnZ8KYf+ueI99Oy0ZLbCyGbXTqq0sQLQHB6YTKACwHMAHABgGTRQEQUu1gALKM9PhFVp09ExRnnour0iWiP5+s6s4kUgOD0wnwA09Bx0p8AwGl6CCJSDwuAJQXtDtQOGYOKMZNRMWoSvBm50pGUYFoBCE4vjAcwC8BMACMBaKYMTER0CAuA9Wka6gcMhWfcFJScfzUCrjjpRDHL8AIQnF5oA3ATgHnouIZPRCSDBSCqeNOysevKO1F67uUI6TbpODHH0AIQnF44A8CDAAYZNggRUbhYAKJSc0F/fHPtbFSMniwdJaYYUgCC0wvHApgPYGzED05E1FUsAFGtbtBp2HHDr1E36DTpKDEhogUgOL2wD4DH0LG4j4jIWlgAYkLF6MnYftNv0JpdIB0lqkWsAASnF04A8BaAjIgckIgo0lgAYoY/KQ0b5jyFmiFjpKNErYjsBBicXjgLwEfgyZ+IiEzgaKzF6XOvRc8PXpGOErW6NQNwcOe+JwDcGrFERERG4QxATCo5/2psu3kudxbspC4XgOD0wkwAb6JjIx8iIutjAYhZNUPGYMOvnoI/OU06StTo0iWA4PTCIQC+Ak/+RERkAembVmHM7BlI3LdDOkrU6PQMwMGT/xcAkgxJRERkFM4AxLz2uAR89dDbaOo1UDqK5XVqBuDgtP+74MmfiIgsyN7ajFP/cDMcDbXSUSwv7AJwcMHfmwD6GheHiIioe+I8JRj+8O3QAu3SUSytMzMAT4DX/ImIKAqkb1qFQc/dLx3D0sIqAAfv8+etfkREFDV6fvAK9wk4jhMWgIM7/D1hfBQiIqLIGvTcPKRvWiUdw5KOWwAO7u3/FgDurkBERFFHCwQw/KHbEVexXzqK5ZxoBuAxcHtfIiKKYo7GWhQ+/4B0DMs5ZgE4+EhfPtWPiIiiXvaXS5G6ba10DEs53gzAfNNSEBERGWzgC/8tHcFSjloAgtMLZwAYa3IWIiIiw6RuW4vsL5dKx7CM7xWA4PRCG4AHBbIQEREZ6qSX50MLBqRjWMLRZgBuAjDI7CBERERGS9i/C/kfvyEdwxK+VQCC0wvjAcyTiUJERGS8/q/+GTZvq3QMcd+dAZgFIE8iCBERkRlctRXcIRDfLwAzRVIQERGZKGfFe9IRxB0uAMHphfkARgpmISIiMkXKzo1wVR+QjiHqyBmAaQA0qSBERESmCYWQXbRMOoWoIwsAd/0jIiJlZK9Se08AHQCC0wuTAUyQjUJERGSetE2rYG9pko4h5tAMwIUAnJJBiIiIzKS3+5G55hPpGGIOFQBO/xMRkXKyv/xIOoIYPTi90AHgAukgREREZstcuxxaoF06hggdQD8AydJBiIiIzGZvaUL8gX3SMUTo4M5/RESkMFdthXQEETqAHtIhiIiIpLhq1C0AnAEgIiJlcQaAiIhIQa4aj3QEEZwBICIipal8CYAzAEREpCyVCwBnAIiISFlcA0BERKQgldcAJEqHICIikmJra5GOIEI/8YcQERFRrGEBICIiUhALABERkYJYAIiIiBTEAkBERKQgFgAiIiIFsQAQEREpiAWAiIhIQSwARERECmIBICIiUhALABERkYJYAIiIiBTEAkBERKQgFgAiIiIF2aUDqC5ks8ObmQ9/Shb8qdkH32Z1vD34Z77ULACAs64SjvpKOOoqDr49+P7BP3NVlUILtAv/H9GxhOxOtOb1Q1uP/mhPSEXQ6ULQ4UbI4Tr47y5owQCctR44aivgrD0AR10FnLUe6F41H1cabYJ2J1oL+nX8k9cHrdn58GXkwpecDltrM1w1HsRV7Edc+V7ElexCwr7t0L1t0rFJUSwAAgLuBDQMPgt1p05C/ZCzEYhPCuvz2nJ6oy2n9zH/u62lESmbPkfqumVI3rwStrbmSEWmTgq64tA4aDRaCgrRWjAQrfknwZvdGyG9a5Nu9uY6JOxcj6QdRUjaXoT4ku1AKBjh1NQZ/rQslF50HSpHn4em3N4I2J0Ialqnj6MjBFu7H+66SmSuWY6CdxcirnS3AYmJvk0LTBsYkg6hAn9KFuqHj0fdiEloGHQGQnanoeNp7T4kb/sKqeuXIWXDp3DUVxo6HgHtSWmoGzYBdSN+gMZTzkTQ4TJsLFtrExK/WYOk7UVIL/onHHUVho0VU/Y1dP1zdR0VZ0/FgR/8CHUDh6MtLrzi3hUubwtSd36NvGVvIXv5IiDIsme0pYvUK10sAAYKOlyoGn85akaej+a+Q4EuvDqIiFAICcUbkb76A2R++gZ0v1cmRwwKuBNRfdYM1J52HpoGjAA085fVaMEAUtctQ9YnryJpx2rTx48qXSgAFT+4BLuvuBNNWQVdeoXfXXooiMSK/Sj458soWPS86eOrggWAIkPTUTV2Osqn3Q5fWo50mm9x1nqQ9+5TyPxiMaeQu8GfkoWKSdegcsLlCLgTpeMcFle6E1nLX0XGqiXQva3ScaynEwWgbMp12HXFnWhNTDMwUOe4Wxpw0ksPI++Dv0lHiTksANRt9cPGo/SSn6G1xwDpKMcVV7YT+e88jpSvP5WOElXacnrDM/kGVJ85zfDLON1ha21CjyVPI+tfr0Dj9PF/hFEA9l1+O4ov/gm8cdYpdt8V31iLgf/7O2R/ulg6SsxgAaAua+47DKU/uguNA0dKR+mUpB2rkf/2Y0go/lo6iqW1J6Wh5PI5qDnjApFp/q6K37cVvV75PRKKN0pHsYZjFQBdR/G1v8Tei66HzxlnbqZuSKirwKBnfouMLz+SjhL1WACo03zpudh/2WzUnj5ZOkq3pK1ZioI358NZc0A6iuXUjJmCkplz0J6QKh2la0JBZH32JvLfeRy21ibpNLKOUgCaBgzF2t//1dBFfUZLqizFiPuuQVz5XukoUYsFgDqlqf8I7Lrtz2hPSpeOEhH2xhr0f/pOJO5aLx3FEnzpudh39X2oH3q2dJSIcDRUo+er/420NUulo8j5TgHYe/Vd+Oay/0IQQgt0I8gWbMfw+T9F5r8/lI4SlVQsALa5hRnzpENEo+qx07H71scQtPB1ws4KuuJQM2YqnLUHOu4zV1jlOZdh921PoDXf2ms5OiPoikftyB8Cug1JO4qk48io77gDJuCOx9pHFmH/2IsQioGTPwCENB0Hxk2B7nIjbcNK6ThRZ9cVd0pHMB1nADpL07H/0p/Dc9710kkMlfPRiyh461Hl7hQI6TpKrrwXleMvl45iqLSiD9Dnhd+od0vovgbUnToO63+9AD6HWzqNYbK3fIURv7mK+wd0goozACwAnRBwJ6L4lvmoHzJOOoopUjatQN8Fs2FrU+O6cdAVh903z0f9sPHSUUyRsHsDBjx1B+yNNdJRTLNj6hzsPe9KqPBLL6GuEmfcNQWOWm4CFg4VC0D0LGcW5s3uhW33vKLMyR8A6oeMw7Z7XoE3u5d0FMP5kzOw/ZcLlTn5A0Bzv+HY+utX0ZbXXzqKKcov+gn2KHLyB4Dm1CyseO5z1A07UzoKWRQLQBgOnfzb8vpJRzFdW16/mC8Bbbl9sf3uV9DSe7B0FNP5Mnpg25yX0ZbbRzqKoTyTb0DZ9P+SjmE6v92J1b/7K0sAHRULwAkE3InYefuT0XsLWAS0J6Ri5+1PWmrHu0jxpedixy+ehzczXzqKmEB8Enbd9kRMfn8BoOIHV2H/pb+QjiEmCA1r71sIX3q2dBSyGBaA49F0FN8yX8lX/t/VltcPxbfMj6pNcE4k4E7Azv96Cv6ULOko4tpy+2LvDb+TjhFxVedcipKZd0vHENdud6Lo0XelY5DFxM5vcwPsv/TnSl3zP5H6IeOw/9KfS8eIiJCuo/jm+WgtGCgdxTJqTzsv6nayPJ7qM6dj79X3yT2Ey2KaU7NR8qOfSMcgC2EBOIbqsdNj/la/rvCcdz2qx06XjtFt+2feHTMb/ERS6SU/k44QETVnXIg9N/yOJ//v2DXzTkDnr33qwL8JR9HUfwT2XjNXOoZl7b1mLpr6j5CO0WUVP7gKFROvlI5hSc39hqO53zDpGN3SOGg09vz4v2PqclWk+JxulFx8s3QMsgj+hHyHLz0Xu277M0J2h3QUywrZHdh125/hS8+VjtJpbXn9sP/SX0rHsLRovhUyEJ+EPTf+ASHdJh3Fsg6MnyEdgSyCBeA79l82O2b29jdSe1I69l82WzpGp+295j6WuxOoH3qOdIQuK7niHvjScqRjWFpDQexsb03dwwJwhOa+w6L+qX5mqj19Mpr7Rs90cfXY6Wg66XTpGJbXmn9SVE6f1512LqrHTJWOYXkB3YbWfN7ZRCwA31L6o7ukI0SdaPmatSekKn0veGeEdBv8SWnSMTol6IrDvit/LR0jajT34t0vxAJwWP2w8TF1C5RZGgeOjIprxvsv/QXaE6PrpCapPTlTOkKneM69jvs5dEJrAWcAiAWgg6bHzO1PEkov+Zmlp4yb+w6NiVsXzaT526QjhK09KR2eH94oHSOq6G2t0hHIAqz7W9tEVWOno7UHF8Z0VWuPAaiy8Am2YtI1vB+8kxz1VdIRwlY2dRYC7gTpGFElfv8u6QhkAcoXgKDDhfJpt0vHiHrl025H0OGSjvE9/uQM1J52nnSMqGJra4atrVk6Rljak9JRdfal0jGiTuKerdIRyAKULwBV4y/nbUMR4EvLQdX4y6VjfE/VuB/xtr9OStxeJB0hbFVnXYyQzS4dI6o4fa1w1FZKxyALUL4A1Iw8XzpCzLDa1zKk66g65zLpGFEndeOn0hHCo/H72xVp29dJRyCLULoA+FOy0Nx3qHSMmNHcd6ilVmLXD58YlbsVStLafUjZEB0FoOGUsUo/xrmrei16TjoCWYTSc2f1w8dbb3FYKIjEXRuQuuETxO/ZDEd9BRx1HdN1/tQs+FOy0dJnMOqGT0RT/+HWWn2vaagfPh6Zn70lnQQAUGnBSxIA4KrYi5RNKxG/dzMc9ZVw1B/8/qZkwZ+ShZbeg1E/5Cx4s3ubni3rszcP57G6qrOsuaWtHgohrr4KKTu/RtrGfyNks8OfkIxAQhL8iamoHXwGmtNyEBLIllxRgrQ10VHwyHhKF4C6EZOkIxym+73I+uRV5Cx9AY6G6qN+jO1AM9wH9iBp+1fI+XAh/MkZ8Ey+AZUTr7TMAry6EZMsUQCCDhcaB46SjnGYFgwg44tFyP1gIVwVe4/6MXGlOwEAGf9+Fz0BeLN748D5N6J67AxT9rbXva3I+8cCw8eJhJBuQ8Pgs6RjfEtCXQUKn/sdMle+f8KP9aVnY+8Vd8Bz5gVoMXHTpVMe52ZY9B9aYNpAiSIqLuBOwIZHP0PI7pSOgtR1y9Dz9YfgrCnv0uf70vNQMnMO6k6VLzRauw/Df36O+CryppNOw/bZL4pmOCRl0wr0fO1BuCr2denzvdm9UHLFPagfMi7Cyb6t90tzkbniHUPHiJSufn+r2wIRz+L0tWLgC39Ej/df7tLnF1//K+y6+CcIwtjZyB6rl2HIA3wS4LEsXbRbOoLpLDR/bK6GwWfJn/xDIfRY8jT6P3tXl0/+AOCsKUf/Z+9CjyVPAyHZPheyOy3xyswSe/6HQsh7fwEGPHlbl0/+AOCq2IcBT96GvPcXGPb9zf745ag5+QNA/ZCzpSMAAPLWfYoJVwzt8skfAPq++DBGz/kRXK1NEUz2bckVJTz50/coWwDEXy2HQuiz8F7kLXkmMr/UQyHkLXkGfRbeK14CxL+2AJoGnCYdAX1eug89Fj0Zse9vj0VPot+CX0L3RnYXt/Sv3kfBW3+K6DGN1mDwbEg48tZ9iqH33wgEg90+VtL29Tj72pHI3hr5WzDjmusx6mcXRfy4FP2ULAAhm138FUSP955BxqolET9uxqol6PHeMxE/bmfUDzlb9t5sTUdT/xFy4wPIXPE2MlYuivhx09YsxaCHroWzuqz7BwsFkf/3P6Pv/86BFoGTmFmCDhdaCmQfZpOz8YuOk38E6e0+jLhnJgpfewx6hJYIpu/dirOuHw1bi3GzCxS9lCwA3sx8BOKTxMZPXbcMee89a9jx8957Fqnrlhl2/BMJxCeJ3p7Vmn8SAnGJYuPHle1Ez1cfNO74+7fj5D9cgcwV73T5xB23fzsGPnYLcv/5vxFOZzxvTh/Ru1+SPfsw/LfXGHb83q89iTN+PROJtZ4uH8MWDKD/ewsx8s6LoLf7IpiOYomSdwFI3quu+73o+fpDxk7Th0Lo+fpDaBgyTuzuAH9KFtyeo692N1pT/+Ei4wId39++C2ZD93sNHcfeVIveL81FztKFKJ8yC/XDxp94P/xQCAl7NiL7478iffUH4peKuqo1T/ZJdmaspE/eshpjbzwTVeMuxI4f/wbN6blhzQk42n3I/XIpCp/4FXRv9DzQiWSoWQBSs8XGzvrk1W4t+AuXs6YcWZ+8Cs/kGwwf62gkv8aSY2d//DLiynaaNp77wB70/d85CNnsaDrpdDQWjoI/NRv+lCwEHS44GqrgqK9EXMkOpGz6HPbGGtOyGaVNsACklu5E8tY1po2XueJ9ZK54HwF3PMrPvxLVZ5yLtvRs+BNSELQ7YG9pgrOxFol7tyP//ZeRtH29adko+qlZAKRmAEJB5Cx9wbThcpa+AM9514lMl0rOsrQnpIiNnV70T5FxtUA7krZ9iaRtX4qMb6a23L4i42oATn58tsjYtrYWFCx6HgWLnhcZn2KTkmsA/KkyJ6fEXRuOucmPERwN1UjctcG08Y4k9TUGgPaEVJFx3QeKEbd/h8jYKvGnZIqMG19XiaRvZH6eiIygZgEQenWauuETJcYEhGcATNxZ7Uhpqz8UGVc1wROtdTBIXOV+kXGJjMICYKL4PZuVGBOQLQABoUsAyVu+EBlXNQG3zB0eifvMW9tBZAY1C4DQIjFHfYUSYwKyC/GkLgHY2lpExlVNIE5mBiB5Bx+jS7FFyQLgE7o+feipfrE+JiD3NQbkLgFo7cbe+kcdpGYAUjauEhmXyChKFoCgK15kXIkH5NjamkXG1STvMQ9G/oEv4dD93HAllnGGh2KNkgVANSrNPACAU2rsKN1YJ9rYvDJPmmzue7LIuERGYQFQgEprDwDAUSczdkufwSLjqkYXeiXe3HOAyLhERmEBUIBKdx8AgKNeZgagofAMkXFVI3FJCwDqhowWGZfIKCwAClBp/wFArgA0njxGZFzV2FplnmxXcwoLHsUWFgAFqLQDISB3CaAtty986bkiY6vEjGdpHE1bfDK82XJPuSSKNBYAFQg8gwAhuefLSy5ALJ8yS2xsVbjLdomNve2Oh8XGJoo0FgBFmP0UQklOoRkAAKg6awZaep8iNr4K4srlCkDFkDPRmi/7OGKiSGEBUITu96Ln6w8Ze6taKISerz8E3S+7IY7UGgAAgKajZObdcuMrwC1YAEIAvv7Nc2LjE0USC4BCUtctQ957zxp2/Lz3nkXqumWGHT9czqr9sDfXiY3fNODUjscwkyFcFftES2Z9Xl9s+8VjYuMTRQoLgGJ6vPcMMlYtifhxM1YtQY/3non4cbtCCwaR8vVnohn2XzYbB87/sWiGWKUFg0j8Zq1ohn1nT8f+S24RzUDUXSwAqgmF0Gfhvchb8kxkLgeEQshb8gz6LLzXUjvhpWxYLh0BpZfchbIZP5WOEZOs8OTFLdfdzZkAimosACoKhdBjydPo/+xd3VoY6KwpR/9n70KPJU9b6uQPACmbV0Jrl9+bv/zCW1B888PwZveSjhJTrFAAgI6ZgC+fWcaFgRSVWAAUlrpuGQb/dioK3nqkU/sEOBqqUfDWIxj826mWuOZ/NLq3Bclbv5SOAQCoGXUBNv9uCfbc+ACLQITE7d8BR0OVdAwAHWsCVjz1MTY88Ar3CaCoYpcOQLJ0vxc5S19Azkcvoan/cNQNn4iWPoPhT8mG/+AjfR11lXDUVyB+z2akbvikY5Mfwfv8w5Wy4RPUDz1bOgYAIKTrqD5zOmpGT0Xy5hWIK9sJ14E9cB8ohvvAHtFFi9Eqdf0nqDznMukYADruDvAMOROeBZ/D3dKA9C1fIXXTl0go2YmE4q1w1sjdmkp0LFpg2kBrzd2aYM2CjSLjnn7LUJFxVeVPycLXDy8DNE06ygnZ2poPFy1HbQWc9RUd79dVwFFXAWddBRy1B6AFrV+8rfSqMQAAIABJREFUzNLSezC23vtapz6nuk3mUdEaAFvAD7u3FY7mRjgbquGuPgC3Zz/iy4sRv+8bJO3YAN0newutypYu2i0dwXScAaCY5aivRMKeTWjua/3iFXAnIJCbgLbcPsf8GFtLA1K//hQp6z9ByuaV0L1qP58+fu9mxJdsQ0vPQdJRTigEoN3mQHu8A23xyUBWPtB/2Lc+RkMIiVVlyF61FAV/fw6u6gMyYUkZLAAU09KKPoiKAhCOQHwyqsdMRfWYqdDafUjeugqp6z9ByobllrkebrbMz9/GvqvulY4RESFoaMzMR+OUG7Fryo2Ia6pF5oaV6Pn355C4U2bWkmIbLwGYiJcAzBd0uLD5gX/Al5YjHcU4oRASir9G2pqlyPr0Dei+NulEpgnEJWLjQx8h4E4M6+OlLgF0l9PXivStq1H4xBzODBhExUsAvAuAYpru9yLv3aekYxhL09Dcbzj2XzYbm/7wPqrOvhQhXY0fbVtrE/LetcYGVEbyOeNwYPjZ+Pz5ldh899MIutzSkSgGqPFbgpSW8e/FiCvbKR3DFP6ULOy9di62zH0H9cMnSMcxRfa/XhF9PoCZgtBQOuZ8LH/1a+y66TfScSjKsQBQzNOCQeT//c/SMUzVltcfO29/Ejt+uTBm1kAcixYMoNerD0rHMFW7bseuqT/G8tc3oWzqDdJxKEqxAJASUjYsF98/XkLjwJHYdvcr2H3Ln+BLz5OOY5ikbV8ibc1S6Rim87nisemm+7Dyxa9QN/ws6TgUZVgASBkFbz8iHUGGpqF25A+x9d7X0XTSadJpDFPw5nylFkAeqTklE0X3v4SSy26TjkJRhAWAlJGw+2ukrv1YOoaY9qQ07Pj586ga9yPpKIZw1hxA7vvPSccQE4KGrVf/ElvujvFFrxQxLACklJ6v/1HZe+YBIGSzY+9181Ayc05M3imQu/QFuCpLpGOI2j/mAnz1Px8i6HRJRyGLi73fAETH4az1oP/TP4PW7peOIqpi0jXYecczCMQnSUeJKK3dh16vPKD8lsl1BSdhxcJV8Ob0lI5CFsYCQMpJ2L0BvV/5nXQMcQ2njMW2e15FW05v6SgRlbzlC/T66/3SMcS1JaRg5dMfo/bUc6SjkEWxAJCSMlYuQvayv0rHENeW0xvb7vkb2vL6S0eJqMwV76Dg7UelY4hrtzmweu5CVI8+TzoKWRALACmr4M35SN66SjqGuEB8Mnbe/gQC8cnSUSIq58OFyP3g/6RjiAtBw/o5T6G1Rx/pKGQxLACkLC0YRL+//AKuin3SUcR5s3th908eibmFgfnvPIbMz9+SjiEuoNtR9KdFXBhI3xJbP+1EnWRracCAp+6AraVBOoq4hpPHYP9ls6VjRFzvv/5eyU2CvqstPhlrHlksHYMshAWAlOcu34VBD14Ft2evdBRxFZOuQfVZM6RjRFYoiL7P343kLf+WTiKutudAbP3F49IxyCJYAIgAuD17MejBK5G85QvpKOL2Xn0fmvsNl44RUVq7H/2fuRPxCu8BcUjJ2dNQOvVG6RhkASwARAfZWhox4IlZyt8dELI7sOu2x+FLy5GOElG6txXjbhiDnI0seVtv+g0aThkpHYOEsQAQHUELBtHz9YfQ+6V50ALt0nHE+JMzUTLzbukYkRcMYvhvr8Ggvz0CHSHpNGKC0PD13c9IxyBhLABER5G54m0MfPQm2BtrpaOIqTvtXDT3GyYdwxC93ngKZ/x6Jpx+NR8eBAAtyRl8lLDiWACIjiHxm7U4+Q8zkbb6QyCk5qvF/T/6hXQEwyRvWY1xN4xB8oE90lHEfHNN7H5/6cRYAIiOw1lTjn4LfolBf7waSTtWS8cxXdNJp6F++ATpGIaxNzdgzK0/QL/3X4JdwUs+XlcCiq+LvVs/KTwsAERhSCjeiIF/uhEDnvop3OW7pOOYqvTiO2Nug6DvGrBgHiZcORS9l78NWzAgHcdUxdNuQtDulI5BAmL7p5oowlI2LMcp91+C3i/fD0d9pXQcU7T2GIDqM6dLxzCc7vOi8PHZmHDVcPRc+R5sITWeKNhud2LnbQ9IxyABLABEnaQFg8j8/C0MufdCFLw5Hwm7N8T8GoHyabcj6FBjG1lbWwtOnn8Hxl9zGvKLPoKuQBEomXgxAvGJ0jHIZLa5hRnzpEOYrXzqbSLj9ljC225iiRZoR+LuDchc8Q6yPnuzYydBXYcvIw/QbdLxIioQlwh7cz0Sd2+QjtI99d6wP1T3e5H9+Xvo8/e/IL6hBsGkZPiT0xG02Q0MKCOk6fAV9EP2in9IRxGz64o7pSOYLvb+JhMJcDRUIfPzt5D5+VsIuuJRP/gs1I+YiLph42PmKXu1o85HzscvSccwne7zoseSF9BjyQsAgOa+p6B0yvWoOnUcmtNzEYImGzBCqkacLR2BTMYCQBRhurcFaWs/QtrajxDSdfjTcuFLzYb/8D9Z8KVkw5+WDX9Kx/sBd4J07BNq7jME/pQsZdY+HEtC8RYMfHIOBgII2p2oOvtCNPcaiLbMHvBl5MCbnA5/Ygra3QkIOF0I6Pao2HLI64pHc59BSNizTToKmYQFgDpoOpr6D0fd8Ilo6TP48IkJABx1lXDUVyB+z2akbvgEibs2AApcF40ELRiEs7oMzuqy435cwJ0Af2oW/CnZaOkzGHXDJ6Kp/3BAs9AyHU1D3fAJyPrsTekklqG3+5D9yaITfpwvPRvNfU9Gc88BqBsyGjWnnIE2C84MlVxyCwY9+nPpGGQSLTBtYDSU04has2CjyLin3zJUZNzjCTpcqJx4JTyTb4A/OSOsz3E0VCNn6QvI+uRV6P7wr6lS5/iTM+A573pU/uAqyyzAS9n4OQY8KbOGJiL2Weexz97sfGy742FUDDnTMjME8Q3VGHfdKOkYIpYu2i0dwXQWenlBZqs7dRI2/34J9l/6i7BP/kDHiWn/pb/A5t8vQd2pkwxMqDZHQzUK3n4Ug39zUcduhBbQcPJoBF3x0jFigquiFMN/czXG3X4uUsqLpeMAAFqTM+BPCf93AUU3FgAVaRrKpt6GXbc+Bl96XpcP40vPw65bH0PZ1NsALTYWQlmRs9aDfgt+ifx3Hhe/3TBkd6J+8FmiGWJNXOlujJ41Cb0+XywdBSEA+y+5WToGmYQFQDWahj03/gHlU2dF5qStaSifOgt7bvwDS4DBcj94Hv2emy1eAmJ5a2BJgx65C6e89EfpGPCceYF0BDIJC4BiyqbMQvWYqRE/bvWYqSibMivix6VvS1v9IXos/h/RDPXDzon5rYGlFLyzQHwmoCm7gFsDK4I/xQqpO3USyqfcatjxy6fcyjUBJsh7fwFS1y0TG789IRW+zAKx8WPdoEfuEl0TEISGhsFqLgRUDQuAIoIOF0pmzjF2ml7TUDJzjmVWrMeynm88DK3dJza+PyVLbGwVDHvgZtHthVp6nSQ4OpmFBUARlROv7NaCv3D50vNQOfFKw8dRnbO6DNnLXxMb35eaLTa2CuJKdyN707/Fxm/J6yM2NpmHBUAFmg7P5BtMG84z+QZrbWATo3I+fEFsQeChTaLIOIOe+JXY2G3Z+WJjk3n4W1oBTf2Hd+o+/+7yJ2d07GJHhnLUVyKhWGZTK14CMJ6rohTuFpmNi7xpnOFRAQuAAuqGT1RiTBWlrpdZDOjnJQBTpG/5SmRcX0q6yLhkLhYABbT0GazEmCpK2LNZZFzOAJgjddOXIuP6LficAoo8FgAF+FPMf7UmMaaKHHUekXE5A2COhJKdIuO2u9wi45K5WAAUILFgi4vEzOGok3k0r4/fX1MkFG8VGTdgc4iMS+ZSsgDo3haRcSWe+R5wJ4iMG+K2wKYISf2i1m0y4yom4OaDl8g4ShYAp9CrJpVeiUt9jVXjzektMq69sVZkXNXUDx0jMq4eCoiMS+ZSsgA46ipExlXpWrzU11g1bbl9RMa1N7EAmKFh4Kki4+rt7SLjkrnULAD1Mq9OVVqNL/U1Vk1bTh+Rce1NdSLjqqap1wCRcW2+NpFxyVwsACZS6X58FgBztOX1ExmXMwDmaM2SeeiSvU1mnRSZS80CIHR9WqUd+aS+xirxpeeifsg4kbE5A2C8xpOGo0VoDY+jtVFkXDKXXTqABLFXpwf35C946xFThpPckz9WZgDak9JRP+RstPYcCH9KFvzJmdD9XjjqK+Goq0DS9iIkfrMGWsD8a6blF/0EIaHntsfKDIA3Ox91w8aipWd/tOT2hjcjF96UTLjqq5Cx7jPkfvwWXJ4SkWxbfzYfMk96ABxNMlsQk7nULACCC9QqJ16J7H/9Dc6ackPHkX4qX1QvAtQ01Iw8HxXnXoPmPkOP+wjl8ot+AltbM1K+/hR57z0D94E9pkT0ZvVE9VkXmzLW0Tiry8TGjoTSqTdi34yb0JTR46gn2casfFQNGI7tl/0UDr8XiQf2YsALDyJtzaem5Gs4+XTU5ctc/weAhH07xMYm86hZAARfnQYdLpTMnIP+z95l3JPcNA0lM+cg6HAZc/wwROsMQOOg0Si5fDZaCwrD/pyAOwE1Z1yI2pHnI+OLRch/53HDXyGXzfgpQoL34ifuXCc2dne09DoJ6+e9iKb03LA/x+9wobbnQKz+7ULkrv8Mgx+4BXq7z8CUwJafmTNLeCw5yxeJjk/mUHINgKuqFLYWuWtcdadOQvmUWw07fvmUW1F36iTDjn8itpZGuKpKxcbvqgMX/D/suGtBp07+RwrpOqrGXYKt977W5WOEo2za7agZdYFhxz8RR0MVXJUy0+LdUTNmCr544oNOnfyPFAJQPuIcfPa3dag68/zIhjvCht//FQ05vQw7/onooSCSt6wWG5/Mo2QB0ALtSNn0uWiGsimzUD1masSPWz1mKsqmzIr4cTsjZdPnItfEuyqk6yj+fw+h9OI7I7JmwpfRA9vmvIzakT+MQLpvO3DhzYaWx3BE26v/kN2JXbc/geIfP4ggur9Dpc8Zh7VznsaGB15BMMJrMDbOXQjP0LERPWZnxdfKPF+CzKdkAQCA1HUyj1E9TNOw58Y/oHzqrONeY+7M8cqnzsKeG/8QmeN1g/jXtpP2X/pL1JxxYUSPGXTFYfctf8K+a+6L2KWYAz/8MUpn3BGRY3VHws710hE6Ze+1cw25HdYz5Ex8/vJqNBaO6P7BdB0b5y5E+anju3+sbkr55mvpCGQSZQtA8uaV0Ay+jndCmoayqbdh162PwZee1+XD+NLzsOvWx1A29Tbxk7/W7kPy5pWiGTqjatwlqDj3WsOOX3nOZdj261fRlte/y8doGnAqtt3zCkp/dFcEk3Vd4s610hHC5jnvOlSfOc2w43vjEvHlQ2+j+PpfdfkYZRdei+WvbbTEyR8Asr74QDoCmUTJRYAAYGtrRvK2r8Tuoz5S3amT0DBkHLI+eRU5S1+Ao6E6rM/zJ2fAM/kGVE68UnTB35GSt30FW1uzdIywtCelo2Tm3YaP05p/Erbe+xqyPn0Daas/REJxeK+wWnsMQNm021F32rkGJwyf7mtD/D6ZJ9R1ljczH6UX/8zwcYLQ8M3Ft6L03JnI+fc/0fu1J+CsOfFdMFVnXYjtN9+HZgs9WllDCJkr/ykdg0yibAEAgNT1yyxRAICOuwM8k2+A57zrkLhrA1I3fIL4PZvhqK84vKmOPzUL/pRstPQZjLrhEzs2+RG6z/9YUtdHz/R/+UW3IOiKM2WsoNMNz3nXwXPedXBWlyFtzVIkfrMWNm8LNL8Xuq8N0DQ09x2GxoEj0XTSafBb6MRwSOr6f0ELRseDYspm3IGQ3bynJbYkpaF48lXYM/kqJNR6kLb5Kzia6mBrboSjuQFaoB21Q89E/YBhaE3JRNCCT8xMKd1l+B0OZB1KF4CUDZ8CV4fEp82/RdPRNOBUNA2QeQhIt4RCHV/TKOBPyULlOZeJjO3L6NFR9ibfIDJ+d2Qtf106Qlja8vqL3SkRAtCUloOmcZFf5Gu0Pq8/KR2BTGStl48mc9RXIqF4o3SMmJFQvDFq7v+vHz5ebBe9aBVXujNqrv/XnnautYp9FHD6WpH92RLpGGQipQsAAKSv5oKXSImmr2XdUGssuIomWZ9Gx6t/AKgbIfMQrGiW++VS6QhkMuULQOanb8DJ+167zVnrQeanb0jHCFtT4SjpCFFF97YgfdV70jHCEnTFo6XXKdIxoooGoN/CB6VjkMmULwC634u8d5+SjhH18t59CrrfKx0jLAF3AgLuBOkYUSX9y/dha2uSjhEWX2oWp/87KaV0Z1h3LlBsUb4AAEDmF4sRV7ZTOkbUiivbicwvFkvHCJs/JVM6QlTR2v3IXfqCdIyw+VNkHqEbrTQApzxqjT0myFwsAAAQCiL/ncelU0St/HceB0JB6RhhCznc0hGiSs5HL8JVsVc6Rti4uLNzctcuR+KuzdIxSAALwEEpX3+KpB18AEZnJe1YjZSvo+PWv0PsDVXSEaKGs9aDvPcXSMfolGi5E8UK7AE/Bj90m3QMEsICcIT8tx+TjhB1ovFr5misjZrNbKQVvDkfurdVOkanOOpZ8MI14PUnoHvbpGOQEBaAIyQUf420NbwVJlxpa5aGva2tpYSCiCv9RjqF5SVt+xJpqz+UjtFp9qZaOKvLpGNYXkJ9JXq9wQXQKmMB+I6CN+fD3lgjHcPy7I01KHhzvnSMLkvZ+Jl0BEvT2v3o9Wr03haWGmWXpcymh0IY9sAt0jFIGAvAdzhrDqD/03dCa/dLR7Esrd2P/k/fCWfNAekoXRZt6xbM1vuV38Fdvks6RpelrP+XdARLO/mFPyDpmw3SMUgYC8BRJO5aj95/vV86hmX1/uv9SNwVXc+E/66E3V8jYTd/AR5NzscvIWPlIukY3ZK87UvE790iHcOS8r9aivzF/ycdgyyABeAYMr5YjJyPXpSOYTk5H72IjCi65/94eOvn9yVvXon8tx6RjtF9oRDy34m+BapGS6rcj8H/fat0DLIIFoDjKHjrUaRsWiEdwzJSNq1AwVuPSseImKQdq5G29iPpGJbhPrAH/Z6bDS0YPXs6HE/y1lVIXRc9j6c2mtPfhlF3TZOOQRbCAnA8oSD6LpgNd/lu6STi3OW70XfB7Kja8CccvV+4D+4DxdIxxNmb69D/qf+CraVROkpE9Vl4b1SvZYgUe8CPkXdfBntTnXQUshAWgBOwtTVhwFM/hb1Z3R8ce3MdBjz106jZC74zbG1N6P/0HTF34usMZ60HhQ9fD7cnenb7C5etrRkD/kftn1+nvw1n3nkRd/uj72EBCIOrYh8GPXi1kjMB7vLdGPTg1XBV7JOOYhj3gT0ofPg6Je8ddx8oRuFD18T0321XZYmyP7+utmacedskxO3ns07o+1gAwnSoBKi0JiBl04qYP/kfEle2E4MevAoJxRulo5gmoXgjCh+6Lqpv5wyXq2IfBv3xasQrtA10XHMdxv5kAlyV5dJRyKJYADrB1taEAU/ersTdATkfvYgBT94ek9P+x+JoqMbAP92I1LUfS0cxXPKWLzDw0ZuUmhq3tTZh3A1jkLPp39JRDJdcUYKxN58DR321dBSyMNvcwox50iGiSwjJW76Aq7oM9UPOBnSbdKCI0tr96PPSXOR+uBBASDqO6bRgAOlrPkLQFYfm/iOk40ScFgwg7x8L0Pvl+6G3+6TjmK+uDbn/egeOUBDVQ8eg42G4sUNDCP3ffxHD5t0I3a/g97cbdl1xp3QE02mBaQPV+y0fIU39R2DXbX9Ge1K6dJSIsDfWoP/Td0b9Jj+RUnX2pSi5/FcIuuKko0SE27MXff7vHqUuc3zPvobD/1o/5Aysnfsi/A6XYKDIcbc04NS513OHvy5auki9NSIsAN3kS8/F/stmo/b0ydJRuiVtzVIUvDlfievBneFLz8O+K3+N+uETpKN0XSiE7OWvIf+tR6D7vdJpZB1RAACgPTEVa+a/jfq8vkKBIiNv7XIMeeAWaMF26ShRiwWAuqy57zCU/uguNA4cKR2lU5J2rEb+249F51P9TFQ34gcoueIe+NJzpaN0iqtiH3r97QEkb4n9695h+U4BOKTiB5dg281z0RaXZHKg7kmsLscp/zMHqevUWZxsFBYA6rb6YeNResnP0NpjgHSU44or24n8dx7nQ3E6IeiKR9m021Ex6RqEdGuvn3VVliDvH39B+qr3oAUD0nGs4xgF4JDi63+F4mn/D+02u0mBuiauqRaFC+Yh+7Ml0lFiBgsARYamo2rsdJRPux2+tBzpNN/irPUg792nkPnF4pjb1c8srfkDUHHudag540IELXb9mCf+EzhBAQCAoMuNrT9/DOWjJyNosUWCrrZmnPTKI+ix5AXpKDGHBYAiKuhwoWr85agZeT6a+w4FNKFfJqEQEoo3In31B8j89A1eB46Q9oQUVJ91MSrHz4Q3q0AuSCiIpG/WImPl35H+5T944j+eMArAIe0Jydhz7S9QfvY0tCakGBjq+PRQCKl7t6L3O88i67P3xHLEOhYAMow/JQv1w8ejbsQkNAw6AyG709DxtHYfkrd9hdT1y5Cy4VM46isNHU9pmo76IeNQOeEKNJw8BiG7w/gxQyEk7lqHtNUfIm3NR/z+hqsTBeBIDYNORfE1v0TVKaMQ0I2/PKABSKg5gPxlb6Lnm09D97G0G40FgEwRcCegYfBZqDt1EuqHnI1AfGQWHtlaGpGy6XOkrluG5M0rYWtrjshxKXxBpxtN/UegqXAUGgvPQHOfIQhF6Hqyq3I/4vdtQeI3a5G29iM46ioiclyldLEAHKbrKJ98BarOOBeNfU9Ga0omAhHYC0RDCO6mOiTt+wbp6z9HzrK34armHTlmYgEg04Vsdngz8+FPyYI/Nfvg26yOtwf/zJeaBQBw1lXCUV8JR13FwbcH3z/4Z66qUmgB3gZkJUFXHJr6j0BLr1OO+L5mwp+cCX9K1uE9BrR2H2xtzbC1tUD3tsDW1gxndRni925B/L6tiC/ZqvQDiyKmuwXgKJp7D0TVuItQO2QMvKmZCLjiEHC5EbA7EbQ7EDxYEGztftj8Xthbm+FoaYSzsRZx5fuQuepDpK9ZDsTIY5ijFQsAEZkq6HRDa/fzur1ZDCgAFBtULADWvteFKMbpvjbpCESkKGvfzExERESGYAEgIiJSEAsAERGRglgAiIiIFMQCQEREpCAWACIiIgWxABARESmIBYCIiEhBLABEREQKYgEgIiJSEAsAERGRglgAiIiIFMQCQEREpCAdQJN0CCIiIikBd7x0BBE6gDLpEERERFK86TnSEUToAMqlQxAREUnxpmVLRxDBGQAiIlKaN13dAsAZACIiUpbKBYAzAEREpCyuASAiIlIQ1wAQEREpSOVLAJwBICIiZak8A7AbQIN0ECIiIrO1xyeiJbeXdAwRur54ux/AP6WDEBERma3qtAkI2ezSMUQcehbAItEUREREAipGnycdQcyhAvA+AJ9kECIiIjMF7Q5UnT5ROoYYHQD0xdsbACyXjUJERGSe2iFj0B6fKB1DzJGPA+ZlACIiUkbFmMnSEUQdWQDeBRCSCkJERGQaTUPFqEnSKUQdLgD64u2lAFYLZiEiIjJF/YCh8GbkSscQpX/n/ddFUhAREZnIM26KdARx3y0Az4A7AxIRUQzzpmWj5PyrpWOI+1YB0BdvbwEwTyYKERGR8XZdeScCrjjpGOK+OwMAAM8D2GZ2ECIiIqM1F/RH6bmXS8ewhO8VAH3x9gCAewSyEBERGeqba2cjpNukY1jC0WYAoC/evgjAFyZnISIiMkzdoNNQMVrte/+PdNQCcNBs01IQEREZbMcNv5aOYCnHLAD64u1fgLsDEhFRDKgYPRl1g06TjmEpx5sBAIC7AFSbEYSIiMgI/qQ0bL/pN9IxLOe4BUBfvH0PgEsBtJuShoiIKIJCNhs2zHkKrdkF0lEs50QzANAXb18O4A7joxAREUXWtpvnoWbIGOkYlnTCAgAA+uLtzwB41uAsREREEVNy/tXc8e84wioAB90BYLlBOYiIiCKmZsgYbLt5rnQMSwu7AOiLt/sBXAag2Lg4RERE3dOa0xMbfvUUQja7dBRL68wMAPTF26sATAPQaEwcIiKirmuPS8C6e5+DPzlNOorldaoAAIC+ePsmAGPBmQAiIrKQ1pye+Oqht9HUa6B0lKjQ6QIAHC4BZ4BrAoiIyAJqhozBqvmLePLvhC4VAODw5YDJ4N0BREQkqOT8q7Hm/pc47d9JWigU6vZBgtMLZwF4AgBXXBCRde1rkE5AERSy2bDt5nm81a+LIlIAACA4vXACgLcAZETkgEREkcYCEDP8SWnYMOcpbvLTDV2+BPC9A3XsGDgSfIAQEREZqGL0ZKx6ZDFP/t0UsRmAIwWnF44FMB8ddwsQEVkDZwCiWt2g07Djhl/zqX4RYkgBOCQ4vXAGgAcBDDJsECKicLEARKXmgv745trZqBg9WTpKTDG0AABAcHqhDcBNAOYByDN0MCKi42EBiCretGzsuvJOlJ57OUK6TTpOzDG8ABwSnF4YD2AWgJnoWCugmTIwEdEhLADWp2moHzAUnnFTUHL+1Qi44qQTxSzTCsCRgtML89GxpfAMABMAOE0PQUTqYQGwpKDdgdohY1AxZjIqRk2CNyNXOpISRArAkYLTC5MBXIiOMnABgGTRQEQUu1gALKM9PhFVp09ExRnnour0iWiPT5SOpBzxAnCk4PRCB4B+6Fgr0OM4b/k3hYg6jwXAFAF3PLzpOfCmZcObfuifI95Py0ZLbi8+rU+YpQoAGaPI4+M3mQhAdVtAOgKRZURsIyAiIiKKHiwARERECmIBICIiUhALABERkYJYAIiIiBTEAkBERKQgFgAiIiIFsQAQEREpiAWAiIhIQSwARERECmIBICIiUhALABERkYJYAIiIiBTEAkBERKQgFgAiIiIFsQAQEREpiAWAiIhIQSwARERECmIBICIUIOT4AAAFCUlEQVQiUhALABERkYJYAIiIiBTEAkBERKQgFgAiIiIFsQAQEREpiAWAiIhIQSwARERECmIBICIiUhALABERkYJYAIiIiBTEAkBERKQgFgAiIiIFsQAQEREpiAWAiIhIQSwARERECmIBICIiUhALABERkYJYAIiIiBTEAkBERKQgFgAiIiIFsQAQEREpiAWAiIhIQSwARERECmIBICIiUhALABERkYJYAIiIiBTEAqCGJukARERkHRoQYgFQQ5l0ACIisg5Ng58FQA3l0gGIiMg6dE1rYQFQA2cAiIjoMA2oZwFQA2cAiIjoMA2oYgFQA2cAiIjoME1DGQuAGjgDQERER9rHAqAGzgAQEdFhGrCTBUANnAEgIqLDNA3bWADUsBtAg3QIIiKSpwEhAJ+xAChgVI7TD+Cf0jmIiEieXddKxue7uQ+AQhZJByAiInk2DYsBPgtAJe8D8EmHICIiWZqGhwAWAGWMynE2AFgunYOIiOTYda16fL67FGABUA0vAxARKcym4aND/84CoJZ30bH6k4iIFKRr+NPhf5cMQuYaleMsBbBaOgcREZnPpmnN4/Pdaw69zwKgntelAxARkfnsOv515PssAOp5BtwZkIhIKbqGoK7hx9/6M6kwJGNUjrMFwDzpHEREZB6Hrv1tfL676sg/YwFQ0/MAtkmHICIi49k0+HQNN333z1kAFDQqxxkAcI90DiIiMp5D1x4dn+/+3kZwWijEu8JUVeTxrQQwVjoHkVmq2wLSEYhMZde0xnN7uZOP9t84A6C22dIBiIjIOHb92L/nOQOguCKP7+8AZkjnIDIDZwBIJQ5dK5/U093jWP+dMwB0F4Bq6RBERBQ5moaQXcflx/sYFgDFjcpx7gFwKYB24ShERBQhLl37+fh894rjfQwLAGFUjnM5gDuEYxARUQS4bNprEwrcj5/o47gGgA4r8vieAXCrdA4io3ANAMU6p65t+UFP9+BwPpYzAHSkOwAslw5BRESdZ9e1OpuOUeF+PAsAHTYqx+kHcBmAYuksREQUPl1Du0PH6PH57pawP8fIQBR9RuU4qwBMA9AonYWIiE5MA0Ium3bZ+Hz3js58HgsAfc+oHOcmdOwQyJkAIiIL0zW0u+3aJePz3Ys6/blGBKLod7AEnAGuCSAisiS7rtW5bNrgrpz8ARYAOo6DlwMmA3hWOgsREf2HU9e2OHTkd3ba/0i8DZDCUuTxzQLwBAC7dBairuJtgBQLXDbttYkF7iu7exzOAFBYRuU4nwFwHrhtMBGRCE1DyG3T7orEyR9gAaBOOLhj4EgAXbreREREXePQtXK3TTsnnB3+wsVLANQlRR7fWADz0XG3AFFU4CUAijZ2TWu065g9ocD9l0gfmwWAuqXI45sB4EEAg6SzEJ0ICwBFC5sGn0PXHp1Q4L7HqDFYAKjbijw+G4CbAMwDkCebhujYWADI6nQNQYeu/U3XcNP4fLfPyLFYAChiijy+eACzAMxEx1oBTTYR0bexAJBV2TSt2a7jX7qGH4/Pd1eZMSYLABmiyOPLR8eWwjMATADgFA1EBBYAsha7rlXbNHyka/jT+Hz3GrPHZwEgwxV5fMkALkRHGbgAQLJsIlIVCwBJ0oCQXddKbBoWaxoeGp/vLhXNwwJAZiry+BwA+qFjrUCP47xNlMpIsYsFgIyiASFNg1/XtBYNqNeAKk1DGYB9GrBT07ANwGedeVqf0f4/HpR5AfH+c6YAAAAASUVORK5CYII=;" parent="40" vertex="1">
                    <mxGeometry x="108" y="2" width="10" height="10" as="geometry"/>
                </mxCell>
                <mxCell id="44" style="edgeStyle=orthogonalEdgeStyle;html=1;fontColor=#F2F2F2;endArrow=open;endFill=0;" parent="1" source="17" target="41" edge="1">
                    <mxGeometry relative="1" as="geometry"/>
                </mxCell>
                <mxCell id="45" value="imports" style="edgeLabel;html=1;align=center;verticalAlign=middle;resizable=0;points=[];fontColor=#F2F2F2;" parent="44" vertex="1" connectable="0">
                    <mxGeometry x="-0.0974" relative="1" as="geometry">
                        <mxPoint as="offset"/>
                    </mxGeometry>
                </mxCell>
                <mxCell id="46" style="edgeStyle=orthogonalEdgeStyle;html=1;fontColor=#F2F2F2;endArrow=open;endFill=0;" parent="1" source="17" target="47" edge="1">
                    <mxGeometry relative="1" as="geometry">
                        <mxPoint x="720" y="80" as="targetPoint"/>
                        <Array as="points">
                            <mxPoint x="700" y="200"/>
                            <mxPoint x="700" y="-105"/>
                        </Array>
                    </mxGeometry>
                </mxCell>
                <mxCell id="47" value="&amp;lt;NAVBAR /&amp;gt;" style="rounded=1;whiteSpace=wrap;html=1;strokeColor=#FFFFFF;fontColor=#F2F2F2;fillColor=#004C99;" parent="1" vertex="1">
                    <mxGeometry x="750" y="-120" width="120" height="30" as="geometry"/>
                </mxCell>
                <mxCell id="48" style="edgeStyle=orthogonalEdgeStyle;html=1;fontColor=#F2F2F2;endArrow=open;endFill=0;entryX=0;entryY=0.5;entryDx=0;entryDy=0;" parent="1" source="17" target="49" edge="1">
                    <mxGeometry relative="1" as="geometry">
                        <mxPoint x="740" y="260" as="targetPoint"/>
                    </mxGeometry>
                </mxCell>
                <mxCell id="49" value="&amp;lt;FOOTER /&amp;gt;" style="rounded=1;whiteSpace=wrap;html=1;strokeColor=#FFFFFF;fontColor=#F2F2F2;fillColor=#004C99;" parent="1" vertex="1">
                    <mxGeometry x="760" y="460" width="120" height="30" as="geometry"/>
                </mxCell>
                <mxCell id="53" style="edgeStyle=orthogonalEdgeStyle;html=1;entryX=0;entryY=0.5;entryDx=0;entryDy=0;fontColor=#F2F2F2;endArrow=open;endFill=0;" parent="1" source="50" target="17" edge="1">
                    <mxGeometry relative="1" as="geometry"/>
                </mxCell>
                <mxCell id="54" value="calls" style="edgeLabel;html=1;align=center;verticalAlign=middle;resizable=0;points=[];fontColor=#F2F2F2;" parent="53" vertex="1" connectable="0">
                    <mxGeometry x="0.0894" y="2" relative="1" as="geometry">
                        <mxPoint as="offset"/>
                    </mxGeometry>
                </mxCell>
                <mxCell id="50" value="&amp;lt;APP /&amp;gt;" style="rounded=1;whiteSpace=wrap;html=1;strokeColor=#FFFFFF;fontColor=#F2F2F2;fillColor=#004C99;" parent="1" vertex="1">
                    <mxGeometry x="325" y="340" width="130" height="30" as="geometry"/>
                </mxCell>
                <mxCell id="51" style="edgeStyle=orthogonalEdgeStyle;html=1;entryX=0.5;entryY=0;entryDx=0;entryDy=0;fontColor=#F2F2F2;endArrow=open;endFill=0;" parent="1" source="7" target="50" edge="1">
                    <mxGeometry relative="1" as="geometry"/>
                </mxCell>
                <mxCell id="55" value="HOME" style="swimlane;whiteSpace=wrap;html=1;strokeColor=#FFFFFF;fontColor=#F2F2F2;fillColor=#004C99;" parent="1" vertex="1">
                    <mxGeometry x="920" y="-30" width="380" height="440" as="geometry">
                        <mxRectangle x="920" y="-30" width="400" height="40" as="alternateBounds"/>
                    </mxGeometry>
                </mxCell>
                <mxCell id="69" value="&amp;lt;ANIMATION /&amp;gt;" style="rounded=1;whiteSpace=wrap;html=1;strokeColor=#FFFFFF;fontColor=#F2F2F2;fillColor=#004C99;" vertex="1" parent="55">
                    <mxGeometry x="30" y="70" width="120" height="30" as="geometry"/>
                </mxCell>
                <mxCell id="70" value="&amp;lt;VIDEO /&amp;gt;" style="rounded=1;whiteSpace=wrap;html=1;strokeColor=#FFFFFF;fontColor=#F2F2F2;fillColor=#004C99;" vertex="1" parent="55">
                    <mxGeometry x="30" y="130" width="120" height="30" as="geometry"/>
                </mxCell>
                <mxCell id="56" value="Citas" style="swimlane;whiteSpace=wrap;html=1;strokeColor=#FFFFFF;fontColor=#F2F2F2;fillColor=#004C99;" parent="1" vertex="1">
                    <mxGeometry x="1810" y="-30" width="380" height="440" as="geometry">
                        <mxRectangle x="1810" y="-30" width="390" height="30" as="alternateBounds"/>
                    </mxGeometry>
                </mxCell>
                <mxCell id="72" value="&amp;lt;TITLE /&amp;gt;" style="rounded=1;whiteSpace=wrap;html=1;strokeColor=#FFFFFF;fontColor=#F2F2F2;fillColor=#004C99;" vertex="1" parent="56">
                    <mxGeometry x="30" y="65" width="120" height="30" as="geometry"/>
                </mxCell>
                <mxCell id="73" value="&amp;lt;AGENDA /&amp;gt;" style="rounded=1;whiteSpace=wrap;html=1;strokeColor=#FFFFFF;fontColor=#F2F2F2;fillColor=#CC0000;" vertex="1" parent="56">
                    <mxGeometry x="30" y="130" width="120" height="30" as="geometry"/>
                </mxCell>
                <mxCell id="57" value="Experiencias" style="swimlane;whiteSpace=wrap;html=1;strokeColor=#FFFFFF;fontColor=#F2F2F2;fillColor=#004C99;" parent="1" vertex="1">
                    <mxGeometry x="2210" y="-30" width="940" height="440" as="geometry">
                        <mxRectangle x="2210" y="-30" width="470" height="30" as="alternateBounds"/>
                    </mxGeometry>
                </mxCell>
                <mxCell id="75" value="&amp;lt;PRESENTATION /&amp;gt;" style="rounded=1;whiteSpace=wrap;html=1;strokeColor=#FFFFFF;fontColor=#F2F2F2;fillColor=#004C99;" vertex="1" parent="57">
                    <mxGeometry x="30" y="70" width="120" height="30" as="geometry"/>
                </mxCell>
                <mxCell id="76" value="&amp;lt;DIGITAL /&amp;gt;" style="rounded=1;whiteSpace=wrap;html=1;strokeColor=#FFFFFF;fontColor=#F2F2F2;fillColor=#4C0099;" vertex="1" parent="57">
                    <mxGeometry x="200" y="140" width="120" height="30" as="geometry"/>
                </mxCell>
                <mxCell id="77" value="&amp;lt;ON_CAMPUS /&amp;gt;" style="rounded=1;whiteSpace=wrap;html=1;strokeColor=#FFFFFF;fontColor=#F2F2F2;fillColor=#CC0000;" vertex="1" parent="57">
                    <mxGeometry x="540" y="140" width="120" height="30" as="geometry"/>
                </mxCell>
                <mxCell id="78" value="&amp;lt;WHAT_AU /&amp;gt;" style="rounded=1;whiteSpace=wrap;html=1;strokeColor=#FFFFFF;fontColor=#F2F2F2;fillColor=#4C0099;" vertex="1" parent="57">
                    <mxGeometry x="740" y="140" width="120" height="30" as="geometry"/>
                </mxCell>
                <mxCell id="79" value="&amp;lt;FOR_COUNSELERS /&amp;gt;" style="rounded=1;whiteSpace=wrap;html=1;strokeColor=#FFFFFF;fontColor=#F2F2F2;fillColor=#4C0099;" vertex="1" parent="57">
                    <mxGeometry x="540" y="190" width="150" height="30" as="geometry"/>
                </mxCell>
                <mxCell id="87" style="edgeStyle=none;html=1;exitX=0;exitY=0.5;exitDx=0;exitDy=0;entryX=0;entryY=0.5;entryDx=0;entryDy=0;" edge="1" parent="57" source="80" target="76">
                    <mxGeometry relative="1" as="geometry">
                        <Array as="points">
                            <mxPoint x="180" y="155"/>
                        </Array>
                    </mxGeometry>
                </mxCell>
                <mxCell id="88" style="edgeStyle=none;html=1;entryX=0;entryY=0.5;entryDx=0;entryDy=0;exitX=0;exitY=0.5;exitDx=0;exitDy=0;" edge="1" parent="57" source="80" target="84">
                    <mxGeometry relative="1" as="geometry">
                        <Array as="points">
                            <mxPoint x="180" y="195"/>
                        </Array>
                    </mxGeometry>
                </mxCell>
                <mxCell id="89" style="edgeStyle=none;html=1;entryX=0;entryY=0.5;entryDx=0;entryDy=0;exitX=0;exitY=0.5;exitDx=0;exitDy=0;" edge="1" parent="57" source="80" target="85">
                    <mxGeometry relative="1" as="geometry">
                        <Array as="points">
                            <mxPoint x="180" y="235"/>
                        </Array>
                    </mxGeometry>
                </mxCell>
                <mxCell id="80" value="&amp;lt;RAIN_DROPS /&amp;gt;" style="rounded=1;whiteSpace=wrap;html=1;strokeColor=#FFFFFF;fontColor=#F2F2F2;fillColor=#004C99;" vertex="1" parent="57">
                    <mxGeometry x="180" y="70" width="120" height="30" as="geometry"/>
                </mxCell>
                <mxCell id="90" style="edgeStyle=none;html=1;exitX=0;exitY=0.5;exitDx=0;exitDy=0;entryX=0;entryY=0.5;entryDx=0;entryDy=0;" edge="1" parent="57" source="81" target="86">
                    <mxGeometry relative="1" as="geometry">
                        <Array as="points">
                            <mxPoint x="350" y="155"/>
                        </Array>
                    </mxGeometry>
                </mxCell>
                <mxCell id="81" value="&amp;lt;DIALOG /&amp;gt;" style="rounded=1;whiteSpace=wrap;html=1;strokeColor=#FFFFFF;fontColor=#F2F2F2;fillColor=#004C99;" vertex="1" parent="57">
                    <mxGeometry x="350" y="70" width="120" height="30" as="geometry"/>
                </mxCell>
                <mxCell id="91" style="edgeStyle=none;html=1;exitX=0;exitY=0.5;exitDx=0;exitDy=0;entryX=0;entryY=0.5;entryDx=0;entryDy=0;" edge="1" parent="57" source="82" target="77">
                    <mxGeometry relative="1" as="geometry">
                        <Array as="points">
                            <mxPoint x="520" y="155"/>
                        </Array>
                    </mxGeometry>
                </mxCell>
                <mxCell id="92" style="edgeStyle=none;html=1;exitX=0;exitY=0.5;exitDx=0;exitDy=0;entryX=0;entryY=0.5;entryDx=0;entryDy=0;" edge="1" parent="57" source="82" target="79">
                    <mxGeometry relative="1" as="geometry">
                        <Array as="points">
                            <mxPoint x="520" y="205"/>
                        </Array>
                    </mxGeometry>
                </mxCell>
                <mxCell id="82" value="&amp;lt;LINK /&amp;gt;" style="rounded=1;whiteSpace=wrap;html=1;strokeColor=#FFFFFF;fontColor=#F2F2F2;fillColor=#004C99;" vertex="1" parent="57">
                    <mxGeometry x="520" y="70" width="120" height="30" as="geometry"/>
                </mxCell>
                <mxCell id="93" style="edgeStyle=none;html=1;exitX=0;exitY=0.5;exitDx=0;exitDy=0;entryX=0;entryY=0.75;entryDx=0;entryDy=0;" edge="1" parent="57" source="83" target="78">
                    <mxGeometry relative="1" as="geometry">
                        <Array as="points">
                            <mxPoint x="710" y="163"/>
                        </Array>
                    </mxGeometry>
                </mxCell>
                <mxCell id="83" value="&amp;lt;CARD /&amp;gt;" style="rounded=1;whiteSpace=wrap;html=1;strokeColor=#FFFFFF;fontColor=#F2F2F2;fillColor=#004C99;" vertex="1" parent="57">
                    <mxGeometry x="710" y="70" width="120" height="30" as="geometry"/>
                </mxCell>
                <mxCell id="84" value="&amp;lt;CONTESTS /&amp;gt;" style="rounded=1;whiteSpace=wrap;html=1;strokeColor=#FFFFFF;fontColor=#F2F2F2;fillColor=#4C0099;" vertex="1" parent="57">
                    <mxGeometry x="200" y="180" width="120" height="30" as="geometry"/>
                </mxCell>
                <mxCell id="85" value="&amp;lt;GEAS /&amp;gt;" style="rounded=1;whiteSpace=wrap;html=1;strokeColor=#FFFFFF;fontColor=#F2F2F2;fillColor=#4C0099;" vertex="1" parent="57">
                    <mxGeometry x="200" y="220" width="120" height="30" as="geometry"/>
                </mxCell>
                <mxCell id="86" value="&amp;lt;ONE_ONE /&amp;gt;" style="rounded=1;whiteSpace=wrap;html=1;strokeColor=#FFFFFF;fontColor=#F2F2F2;fillColor=#4C0099;" vertex="1" parent="57">
                    <mxGeometry x="370" y="140" width="120" height="30" as="geometry"/>
                </mxCell>
                <mxCell id="58" value="Experiencias Precenciales" style="swimlane;whiteSpace=wrap;html=1;strokeColor=#FFFFFF;fontColor=#F2F2F2;fillColor=#004C99;" parent="1" vertex="1" collapsed="1">
                    <mxGeometry x="3290" y="-30" width="470" height="30" as="geometry">
                        <mxRectangle x="1730" y="-30" width="380" height="440" as="alternateBounds"/>
                    </mxGeometry>
                </mxCell>
                <mxCell id="59" value="GEAS" style="swimlane;whiteSpace=wrap;html=1;strokeColor=#FFFFFF;fontColor=#F2F2F2;fillColor=#004C99;" parent="1" vertex="1" collapsed="1">
                    <mxGeometry x="3780" y="-30" width="470" height="30" as="geometry">
                        <mxRectangle x="1730" y="-30" width="380" height="440" as="alternateBounds"/>
                    </mxGeometry>
                </mxCell>
                <mxCell id="60" value="DPI" style="swimlane;whiteSpace=wrap;html=1;strokeColor=#FFFFFF;fontColor=#F2F2F2;fillColor=#004C99;" parent="1" vertex="1" collapsed="1">
                    <mxGeometry x="4270" y="-30" width="470" height="30" as="geometry">
                        <mxRectangle x="1730" y="-30" width="380" height="440" as="alternateBounds"/>
                    </mxGeometry>
                </mxCell>
                <mxCell id="61" value="PERFIL" style="swimlane;whiteSpace=wrap;html=1;strokeColor=#FFFFFF;fontColor=#F2F2F2;fillColor=#004C99;" parent="1" vertex="1">
                    <mxGeometry x="1370" y="-30" width="380" height="440" as="geometry">
                        <mxRectangle x="1370" y="-30" width="400" height="30" as="alternateBounds"/>
                    </mxGeometry>
                </mxCell>
                <mxCell id="71" value="&amp;lt;DATA /&amp;gt;" style="rounded=1;whiteSpace=wrap;html=1;strokeColor=#A50040;fontColor=#ffffff;fillColor=#d80073;" vertex="1" parent="61">
                    <mxGeometry x="40" y="90" width="120" height="30" as="geometry"/>
                </mxCell>
                <mxCell id="94" value="&amp;lt;DPI /&amp;gt;" style="rounded=1;whiteSpace=wrap;html=1;strokeColor=#A50040;fontColor=#ffffff;fillColor=#d80073;" vertex="1" parent="61">
                    <mxGeometry x="40" y="150" width="120" height="30" as="geometry"/>
                </mxCell>
                <mxCell id="95" value="&amp;lt;PROVIDERS /&amp;gt;" style="rounded=1;whiteSpace=wrap;html=1;strokeColor=#A50040;fontColor=#ffffff;fillColor=#d80073;" vertex="1" parent="61">
                    <mxGeometry x="40" y="200" width="120" height="30" as="geometry"/>
                </mxCell>
            </root>
        </mxGraphModel>
    </diagram>
</mxfile>